<?xml version="1.0" encoding="UTF-8"?>
<svg width="116px" height="100px" viewBox="0 0 116 100" version="1.1" xmlns="http://www.w3.org/2000/svg" xmlns:xlink="http://www.w3.org/1999/xlink">
    <!-- Generator: Sketch 63 (92445) - https://sketch.com -->
    <title>Group 37</title>
    <desc>Created with Sketch.</desc>
    <defs>
        <polygon id="path-1" points="0.0573727458 0.0196417683 12.5609464 0.0196417683 12.5609464 18.8309201 0.0573727458 18.8309201"></polygon>
        <polygon id="path-3" points="8.4359606e-05 0.0627962897 65.874072 0.0627962897 65.874072 50.1955528 8.4359606e-05 50.1955528"></polygon>
    </defs>
    <g id="Page-1" stroke="none" stroke-width="1" fill="none" fill-rule="evenodd">
        <g id="輪播5" transform="translate(-794.000000, -7068.000000)">
            <g id="Group-56" transform="translate(100.000000, 7003.000000)">
                <g id="Group-37" transform="translate(694.000000, 65.000000)">
                    <g id="Group-18" transform="translate(37.000000, 20.000000)">
                        <path d="M66.6311422,7.36842105 C67.5587534,7.70795287 68.5725843,7.74988365 69.52,7.48776251 C68.8342439,7.67741866 68.4471557,15.8395141 68.3697381,16.8303708 C68.2475103,18.3992271 68.6740074,25.4857442 65.8855725,22.3792109 C64.6468904,20.9989356 65.7373387,18.6632835 66.0268046,17.0731392 C66.6033359,13.9070427 66.5675277,10.5917155 66.6311422,7.36842105" id="Fill-1" fill="#C8D6A1"></path>
                        <path d="M66.36,24.2105263 L73.7952104,0.326305519 C73.7952104,0.326305519 76.0013265,-1.05235457 76.8337933,1.85798268 C77.6664862,4.76831993 69.4897222,22.9797182 69.4897222,22.9797182 L66.36,24.2105263 Z" id="Fill-3" fill="#BCC98F"></path>
                        <g id="Group-7" transform="translate(66.360000, 5.263158)">
                            <mask id="mask-2" fill="white">
                                <use xlink:href="#path-1"></use>
                            </mask>
                            <g id="Clip-6"></g>
                            <path d="M0.0573727458,18.8309201 L10.6683314,0.0783752322 C10.6683314,0.0783752322 12.5814704,-0.535742415 12.5609036,2.20761362 C12.5403368,4.95119257 2.61429478,18.5886167 2.61429478,18.5886167 L0.0573727458,18.8309201 Z" id="Fill-5" fill="#C8D6A1" mask="url(#mask-2)"></path>
                        </g>
                        <path d="M12.52413,79.0014013 C17.0630091,78.04469 21.3895572,76.690515 22.6529154,76.3028895 C38.2303483,71.525236 53.0056174,62.6588223 63.2656981,49.5785939 C67.477335,44.2091174 73.0599349,36.9211899 72.6596279,29.6251732 C72.1238187,19.8628266 62.8997095,17.6398283 55.7006045,22.4413121 C51.1085873,25.5042749 48.0073152,30.9034847 44.8068519,35.3123146 C40.5852516,41.1280086 36.3767144,46.9821809 31.473618,52.2261656 C23.3724938,60.890568 13.6110255,69.4314462 2.84635426,74.3916532 C1.90647419,74.8247531 -0.108566702,76.4834753 0.00457316146,77.6763037 C0.302810726,80.8232192 6.59458272,80.2512912 12.52413,79.0014013" id="Fill-8" fill="#FF5072"></path>
                        <path d="M52.0290298,49.3869649 C52.242609,49.5057232 52.5678664,49.527396 52.6504301,49.2914275 C52.6904083,49.1770923 52.649561,49.0503726 52.6034992,48.93847 C52.3227826,48.2593141 51.8404369,47.6989166 51.3663476,47.1520093 C49.7667849,45.3062801 48.0448976,43.5187136 46.6022059,41.5312264 C46.0716256,40.8003212 43.440886,36.5564266 44.1029163,35.7894737 C41.4096021,38.9092559 41.474784,39.5494891 44.3214928,42.8864419 C45.4413171,44.1989752 46.7673332,45.2720016 48.1302858,46.2859806 C49.398942,47.2296334 50.697799,48.5961277 52.0133861,49.3778977 C52.0186007,49.3809938 52.0238152,49.38409 52.0290298,49.3869649" id="Fill-10" fill="#FFFFFF"></path>
                        <path d="M46.5232595,52.8833966 C46.4175515,52.6345543 46.3174903,52.369193 46.3545333,52.1023494 C46.3913504,51.8355057 46.6124788,51.5733211 46.8893976,51.5790392 C47.1617989,51.5845455 47.3580814,51.8251284 47.5119001,52.0434743 C48.9601896,54.0981708 50.4708198,56.3464348 52.8664154,57.2312546 C53.0968046,57.3163904 53.3405202,57.3917843 53.5200882,57.5554908 C53.6998821,57.7194091 53.7920378,58.0046777 53.6519973,58.2016338 C53.5541948,58.339503 53.3768855,58.3956249 53.2151614,58.4538646 C52.229683,58.8094444 52.2506891,59.1944617 51.3004467,58.7414628 C50.5803676,58.398378 49.8921364,57.6423209 49.3453009,57.0855494 C48.1504395,55.8686575 47.1841602,54.4382906 46.5232595,52.8833966" id="Fill-12" fill="#FFFFFF"></path>
                        <path d="M48.1864224,38.0620216 C48.7861107,38.8854695 49.4678465,39.7657312 50.4512205,40 C50.7664935,39.4337334 50.3347274,38.7547747 49.9419519,38.240412 C48.3548231,36.1616852 47.3575752,33.8994246 46.2120198,31.5789474 C43.6030048,32.6469514 47.2879663,36.8284863 48.1864224,38.0620216" id="Fill-14" fill="#FFFFFF"></path>
                        <path d="M22.1206876,69.1289285 C22.1045973,68.8894697 22.3738854,68.0441565 22.615686,68.6158025 C23.2300205,70.0686914 23.6988723,71.8849638 25.0182722,72.8793741 C25.7349585,73.4193935 26.5951161,73.7552382 27.3866667,74.1661693 C26.4936582,74.5751641 25.7009902,74.8036504 25.3952756,74.7195278 C24.5109826,74.4766267 23.8673729,73.2414668 23.4137174,72.5325568 C23.0204004,71.9180965 22.7088754,71.2520009 22.487858,70.5570755 C22.3975739,70.2735115 22.1551028,69.6379668 22.1206876,69.1289285" id="Fill-16" fill="#FFFFFF"></path>
                    </g>
                    <g id="Group-14" transform="translate(0.263984, 0.000000)">
                        <path d="M46.8455153,36.09375 C46.6447758,36.4086425 46.4442987,36.7237996 46.2435592,37.0386922 C44.2456107,40.1743865 42.2479246,43.3103455 40.2502385,46.4460399 C39.9880964,46.8572525 39.2226622,46.8977386 39.1827767,46.3865014 C38.9526479,43.4222779 38.7222567,40.4580544 38.4918655,37.4938309 C36.6844227,38.0558744 34.8772424,38.6176532 33.0697996,39.1796966 C33.7664838,41.6427383 34.4631679,44.1055153 35.1598521,46.5682923 C35.2795086,46.9916772 34.7465649,47.492859 34.2771231,47.1938435 C31.9642891,45.7217871 29.6514552,44.2494661 27.3386212,42.7771452 C26.6589933,44.1737861 25.9796279,45.5701624 25.3,46.9665387 C26.1625239,47.8048408 26.9678435,48.6920968 27.7385258,49.5957589 C29.1374046,51.2361107 30.4378817,52.9733119 31.4121899,54.8573747 C31.4793655,54.9873009 31.5370945,55.1198733 31.5984971,55.2513872 C32.4287452,57.0248407 32.7711832,58.9364235 33.0446088,60.8800248 C33.4681298,63.8892329 33.7153149,66.9421026 33.8399571,70 C37.5773855,69.3506334 41.5740697,69.3453411 45.3114981,68.6959745 C45.2102099,68.7134392 44.341126,55.2826119 44.3799618,54.2037742 C44.4316555,52.7634717 44.5709924,51.3128492 44.9359971,49.8945098 C45.6652195,47.0620649 47.3553674,44.2542292 48.918249,41.6392983 C49.799666,40.1643311 50.7235926,38.7020656 51.7,37.2652031 C50.081751,36.8746305 48.4637643,36.4843226 46.8455153,36.09375" id="Fill-1" fill="#3B455A"></path>
                        <g id="Group-5">
                            <mask id="mask-4" fill="white">
                                <use xlink:href="#path-3"></use>
                            </mask>
                            <g id="Clip-4"></g>
                            <path d="M65.5401384,12.0401237 C64.2285864,6.58714431 59.3965944,3.09424509 54.6707304,4.19585177 C54.1870824,4.30859391 53.7234984,4.46690707 53.2802424,4.66288874 C51.8343144,1.35596139 47.6441064,-0.470039921 43.2585384,0.509341623 C41.6040504,0.878651178 40.1293464,1.60067507 38.9302584,2.55345157 C36.8182584,0.464560864 33.1014024,-0.479522906 29.1699144,0.378950589 C23.7969864,1.55220648 19.9470744,5.66966558 20.3966664,9.73997317 C20.2884264,9.68781675 20.1788664,9.63724084 20.0679864,9.58850884 C19.4753064,8.98976374 18.1912104,8.77139169 16.8331944,8.72845484 C15.1153464,8.52773168 13.2681384,8.67498135 11.4132744,9.19549182 C9.5483784,9.59588449 7.7278344,10.3774404 6.2850744,11.6605409 C0.8786184,15.5048374 -1.5306456,22.0251793 1.0201224,26.9384188 C2.0518344,28.9256309 3.7488264,30.3517664 5.8101384,31.1696738 C3.6078504,34.796125 3.0824904,38.9986675 4.8351864,42.3925223 C6.1414584,44.9218449 8.5647144,46.5658256 11.2736184,47.1648341 C13.0558824,47.5589048 14.8038264,47.2106685 16.5641784,46.9454084 C16.5918984,47.053409 16.6233144,47.1606194 16.6615944,47.2665128 C17.7102024,50.1559254 22.3977864,51.061287 27.1315704,49.2884957 C30.1284984,48.1663426 32.4237144,46.2394529 33.4395864,44.2435481 C34.5739944,44.3981734 35.7815304,44.6918825 36.8581224,44.4555982 C37.9904184,44.2069332 39.0189624,43.0281456 40.2457704,43.3007814 C40.6349064,43.3871819 40.9701864,43.6287346 41.3065224,43.846053 C43.7625144,45.433926 46.8283464,45.9323096 49.6922184,45.4252333 C52.5558264,44.9184205 55.2127224,43.4480311 57.3500664,41.4455409 C58.0285464,40.8099175 58.6661064,40.1100206 59.0982744,39.2807863 C59.6949144,38.1354526 59.8456584,36.8386545 59.8364184,35.5592418 C59.8314024,34.8398521 59.3039304,33.1895494 59.6426424,32.5528724 C60.0032664,31.8745756 61.5117624,31.4106996 62.1115704,30.8248619 C62.9281224,30.0272376 63.5543304,29.0291535 63.9252504,27.940981 C64.6127064,25.9255834 64.4374104,23.5677448 63.5244984,21.6484941 C65.5459464,19.218216 66.4031544,15.6283796 65.5401384,12.0401237" id="Fill-3" fill="#54B2F0" mask="url(#mask-4)"></path>
                        </g>
                        <path d="M47.440199,12.5798477 C46.0240008,11.7318776 44.2737334,12.0303361 43.2195769,13.21295 C42.5498399,11.3910627 40.9719351,9.94280949 39.0527682,9.84855942 C37.1679673,9.75571189 35.413171,11.016587 34.7349091,12.8174364 C33.6200127,11.9156091 32.1159016,11.658946 30.7535169,12.1632961 C29.0091103,12.8090212 27.8976772,14.5490007 27.5124585,16.3857549 C27.3821875,17.0084785 28.3135322,17.1484511 28.4435368,16.528813 C28.7421746,15.1038419 29.5829423,13.7450701 30.8981737,13.1661055 C32.1571941,12.6115449 33.697536,12.915333 34.5950475,14.0188441 C34.8603849,14.3453533 35.3614889,14.2311873 35.4374137,13.7944392 C35.7469739,12.0151888 37.4167877,10.6892363 39.1326891,10.8437952 C40.9157241,11.0042447 42.3004867,12.6477301 42.5714185,14.4438109 C42.6433473,14.9215129 43.2755215,15.0373619 43.4691965,14.58182 C44.1045675,13.0875638 45.8268626,12.6718537 47.1061297,13.5223483 C48.5074092,14.4541897 48.8513354,16.3086157 48.3752733,17.8943169 C48.1946521,18.4968441 49.0546009,18.8999314 49.2370869,18.2926356 C49.8745892,16.1683627 49.3817437,13.7425456 47.440199,12.5798477" id="Fill-6" fill="#FFFFFF"></path>
                        <path d="M13.3002511,41.6857781 C14.7653072,42.3994343 16.4971251,42.0100949 17.4814763,40.8282759 C18.2577533,42.5077168 19.9194129,43.7784443 21.8432993,43.7495158 C23.7325067,43.7211182 25.4123061,42.4227894 25.9845103,40.680449 C27.1515934,41.4636396 28.6702686,41.6135897 30.0019437,41.0535991 C31.707619,40.3364927 32.7165123,38.625204 32.9934111,36.8669397 C33.0873113,36.270855 32.1480428,36.1957473 32.0546762,36.789178 C31.8396661,38.1530603 31.0791281,39.4877487 29.7986712,40.1154159 C28.5726337,40.7165432 27.0155448,40.5243948 26.0538684,39.5371128 C25.7695002,39.2451746 25.2751905,39.3839779 25.2250393,39.8009188 C25.0198994,41.5002646 23.4291985,42.8551233 21.7048499,42.8147828 C19.9135441,42.7725844 18.4330158,41.3057276 18.0568816,39.6262867 C17.9568459,39.1796212 17.3184848,39.1092906 17.1517587,39.5511789 C16.6040966,41.0013157 14.9072245,41.4994684 13.5787505,40.7749308 C12.1235646,39.9813897 11.6711365,38.2512577 12.053673,36.7246862 C12.1990582,36.1445254 11.3158097,35.8167584 11.1693575,36.401431 C10.6566412,38.4465909 11.2915344,40.7072542 13.3002511,41.6857781" id="Fill-8" fill="#FFFFFF"></path>
                        <path d="M21.9672789,21.954696 C21.478651,20.6408945 20.2797742,19.6829199 18.8688312,19.6875 C17.6877372,19.6910315 16.6619105,20.399711 16.0957816,21.4025695 C14.8034789,20.0184679 12.7297962,19.6831903 10.9908011,20.5157062 C8.60446028,21.6580835 7.5927006,24.3378707 7.7089521,26.8946327 C7.73682061,27.507055 8.67426426,27.4873169 8.64639575,26.8711092 C8.55190823,24.7991478 9.23641196,22.6357962 11.0797149,21.5431698 C12.6769788,20.596281 14.7987015,20.9247989 15.8104611,22.5755003 C16.029428,22.9324087 16.556541,22.8431816 16.6669534,22.4451746 C17.2787336,20.2420764 20.2633185,20.060648 21.0675241,22.222918 C21.2798556,22.7934307 22.1817337,22.5311571 21.9672789,21.954696" id="Fill-10" fill="#FFFFFF"></path>
                        <path d="M47.835203,27.9805935 C47.8519475,26.2845335 46.6713316,24.7457869 45.0084741,24.2515198 C43.0743558,23.6766711 40.7556292,24.4406552 39.6752227,26.1669975 C39.3689271,26.6569019 40.076833,27.2268746 40.386735,26.7320942 C41.2291121,25.3858193 42.9233977,24.7198674 44.4770295,25.0488656 C46.0623471,25.3845361 47.1839708,26.8770895 46.8714927,28.4917982 C46.8024539,28.847999 47.1762426,29.0897434 47.4900087,28.9832424 C49.4849225,28.3062555 51.3639128,30.1847787 50.6529156,32.1744221 C50.4573914,32.7215548 51.2884337,33.0911004 51.4849884,32.5411447 C52.3845543,30.024129 50.3254963,27.6328614 47.835203,27.9805935" id="Fill-12" fill="#FFFFFF"></path>
                    </g>
                </g>
            </g>
        </g>
    </g>
</svg>