<?xml version="1.0" encoding="UTF-8"?>
<svg width="126px" height="105px" viewBox="0 0 126 105" version="1.1" xmlns="http://www.w3.org/2000/svg" xmlns:xlink="http://www.w3.org/1999/xlink">
    <!-- Generator: Sketch 63 (92445) - https://sketch.com -->
    <title>Group 16</title>
    <desc>Created with Sketch.</desc>
    <defs>
        <polygon id="path-1" points="0.190581083 0.118650419 16.22412 0.118650419 16.22412 16.1383596 0.190581083 16.1383596"></polygon>
        <polygon id="path-3" points="0.0408015803 0.0689477124 3.48028533 0.0689477124 3.48028533 4.52337255 0.0408015803 4.52337255"></polygon>
        <polygon id="path-5" points="0 0.103467814 33.465786 0.103467814 33.465786 31.5098222 0 31.5098222"></polygon>
        <polygon id="path-7" points="4.92647059e-05 0.109926471 66.8866912 0.109926471 66.8866912 64.9999761 4.92647059e-05 64.9999761"></polygon>
    </defs>
    <g id="Page-1" stroke="none" stroke-width="1" fill="none" fill-rule="evenodd">
        <g id="輪播5" transform="translate(-516.000000, -7065.000000)">
            <g id="Group-56" transform="translate(100.000000, 7003.000000)">
                <g id="Group-16" transform="translate(416.000000, 61.000000)">
                    <g id="Group-32" transform="translate(92.000000, 39.500000) rotate(-1.000000) translate(-92.000000, -39.500000) translate(58.000000, 1.000000)">
                        <g id="Group-3" transform="translate(51.680000, 11.776471)">
                            <mask id="mask-2" fill="white">
                                <use xlink:href="#path-1"></use>
                            </mask>
                            <g id="Clip-2"></g>
                            <path d="M16.2136707,8.53388735 C15.9894973,12.9518756 12.2234307,16.3518785 7.80161733,16.1278991 C3.379804,15.9039197 -0.022916,12.1411109 0.201030667,7.72312265 C0.425204,3.30513441 4.19127067,-0.0948685294 8.613084,0.129110882 C13.0348973,0.353090294 16.437844,4.11589912 16.2136707,8.53388735" id="Fill-1" fill="#35383F" mask="url(#mask-2)"></path>
                        </g>
                        <path d="M65.272892,20.2045169 C65.120729,23.2023915 62.5652849,25.5094291 59.5647639,25.3576238 C56.5642429,25.205595 54.254945,22.6521812 54.407108,19.6543066 C54.559271,16.6564321 57.1147151,14.3493944 60.1152361,14.5011997 C63.1157571,14.6532286 65.425055,17.2066423 65.272892,20.2045169" id="Fill-4" fill="#FF5072"></path>
                        <polygon id="Fill-6" fill="#FF5072" points="59.2631229 52.5411765 57.12 52.4305966 58.6035437 22.6470588 60.7466667 22.7576387"></polygon>
                        <path d="M61.6509597,20.0210783 C61.6001892,21.0203752 60.7484215,21.7893332 59.7482645,21.738824 C58.7481074,21.6880972 57.9782698,20.8370619 58.0290403,19.837765 C58.0798108,18.8382503 58.9315785,18.0692924 59.9317355,18.1200193 C60.9318926,18.1705284 61.7017302,19.0217813 61.6509597,20.0210783" id="Fill-8" fill="#35383F"></path>
                        <path d="M32.9048522,73.7970512 C32.8021652,73.785402 32.6284049,73.7583759 32.9048522,73.7970512 M12.745897,46.2315945 C12.5845977,49.1800021 12.8075092,52.1698809 13.2369485,55.0928934 C14.1283638,61.1574569 16.1352598,67.7946942 21.7488919,72.3996155 C27.6899686,77.2731668 37.9614362,78.5468882 45.2374437,74.9002286 C52.1848529,71.4182885 55.5631393,64.9261999 57.4869627,58.9343273 C58.3686862,56.1881494 58.9741933,53.3825606 59.3849412,50.5671866 C59.600007,49.0924003 59.8060732,47.5952476 59.831918,46.1074142 C59.8330718,46.038684 59.837687,45.9697209 59.84,45.9009907 C59.8891458,43.9532477 55.9690413,43.8505019 55.9194285,45.8015067 C55.8940452,46.792386 55.7959734,47.7834983 55.6845176,48.769485 C55.5636008,49.8419086 55.4092242,50.9115364 55.2225416,51.9776694 C55.1685444,52.2863727 55.1103935,52.5943771 55.0520119,52.9026144 C55.0455507,52.937096 55.0404741,52.9636561 55.036782,52.9843916 C55.0340129,52.9969727 55.031013,53.0107188 55.0275517,53.0277266 C54.9899382,53.206425 54.9534786,53.3853564 54.9151729,53.5640549 C54.7691035,54.2422702 54.6091887,54.9186216 54.434044,55.5924103 C53.6709297,58.5270719 52.6341373,61.4328436 51.1316767,64.1885738 C51.045835,64.3460707 50.9574549,64.5026357 50.8690749,64.6592007 C50.9927608,64.4392642 50.7714646,64.8250851 50.7103139,64.9261999 C50.4934021,65.2854607 50.2672599,65.6412267 50.0309645,65.9930319 C49.5869875,66.6542394 49.1074739,67.3012349 48.5868855,67.9277279 C48.3432058,68.2205883 48.0905266,68.509022 47.8283863,68.7920971 C47.705162,68.9251308 47.5798608,69.0569995 47.4524828,69.1874703 C47.3677948,69.2741402 47.2810301,69.3596452 47.1956499,69.4458491 C47.1688821,69.4726423 47.1107312,69.5278594 47.0671181,69.5690975 C46.5043011,70.0853892 45.9126395,70.5804794 45.2722881,71.040156 C44.9561506,71.2673151 44.6298598,71.4856207 44.2934157,71.694607 C44.1346547,71.7931591 43.9715093,71.8872845 43.8106715,71.9837397 C44.246572,71.7220991 43.5510696,72.1207341 43.4373062,72.178747 C42.6808839,72.5652668 41.8815407,72.9016951 41.0480455,73.1798776 C40.9642806,73.2078356 40.8777466,73.2329979 40.794674,73.2623538 C40.7838284,73.2660815 40.7743673,73.2695763 40.7651371,73.2728381 C40.7605219,73.274003 40.7568298,73.2749349 40.7519839,73.2763328 C40.5539942,73.3273562 40.3587735,73.3842042 40.1598607,73.4333638 C39.6881929,73.5503215 39.20891,73.6491066 38.7243198,73.7297189 C38.2722663,73.8049726 37.8167514,73.8578599 37.3586982,73.9079514 C37.3282383,73.9112132 37.2825483,73.9149409 37.2393967,73.9182027 C37.2721643,73.9161058 37.312316,73.913543 37.3619288,73.9105142 C37.2936247,73.9147079 37.2250898,73.9196006 37.1567856,73.9240273 C37.1316331,73.9256581 37.1166339,73.9263571 37.120326,73.9261241 C37.1004808,73.927289 37.0808665,73.9286869 37.0610213,73.9296189 C36.7543449,73.9431319 36.4485916,73.9578099 36.1412229,73.9624696 C35.0638172,73.9787784 34.0055643,73.8979331 32.9360044,73.8005459 C32.9302355,73.799847 32.9235435,73.799381 32.91639,73.7984491 C32.8160106,73.7842371 32.7156312,73.7702581 32.6157133,73.7548812 C32.3921095,73.7206326 32.169198,73.6833552 31.9474402,73.6423501 C31.4203906,73.5449629 30.8988792,73.4282381 30.3859058,73.2914767 C29.9776962,73.1829064 29.5831012,73.0524355 29.1822759,72.9289542 C29.1730456,72.9261584 29.1651998,72.9235956 29.1571233,72.9212658 C29.1492776,72.918004 29.1416626,72.9149752 29.1326631,72.9112475 C29.0498212,72.8779308 28.9639795,72.8481089 28.8804454,72.8157242 C28.6309967,72.718803 28.3850095,72.6172222 28.1422528,72.5105157 C27.7822715,72.3518538 27.4303667,72.1827077 27.0869998,72.0033103 C26.8975481,71.9042923 26.7108655,71.8020125 26.526952,71.6969369 C26.4323415,71.6428847 25.9202911,71.3206683 26.0442077,71.4064063 C25.393703,70.9721248 24.7764273,70.514079 24.2041493,70.017125 C23.9300096,69.7787827 23.6655618,69.533917 23.410575,69.2832266 C23.3404248,69.2140304 22.990366,68.8442854 23.1295127,68.9978216 C22.9954427,68.8519739 22.862065,68.7058932 22.7330717,68.5574826 C21.6768956,67.3408422 20.830478,66.0335711 20.1001312,64.6864598 C20.084209,64.6571039 20.0692097,64.6277479 20.053749,64.598159 C20.0345961,64.5606486 20.0099051,64.512887 19.9958289,64.4837641 C19.919679,64.3269661 19.8419138,64.1704011 19.76761,64.0131371 C19.593619,63.64479 19.4295506,63.2736471 19.2740202,62.9006404 C18.9774971,62.1884095 18.71328,61.4687231 18.4765231,60.743678 C18.0106241,59.3166534 17.6515658,57.8705241 17.3739648,56.4169393 C17.3102758,56.0826078 17.2507404,55.7480433 17.1953587,55.4130129 C17.1667448,55.2394401 17.1404385,55.0654013 17.1127476,54.8915955 C17.1870514,55.3587277 17.0917487,54.7403892 17.0762879,54.6264602 C16.9862926,53.9650197 16.9112965,53.3026473 16.8506073,52.6395759 C16.7433052,51.4692992 16.6796162,50.2973916 16.6574635,49.125251 C16.6406182,48.2483007 16.6627709,47.3748451 16.6976153,46.5011565 C16.1057229,46.6283656 15.4722942,46.6320933 14.9212458,46.5985437 C14.204283,46.5547427 13.4561679,46.4436095 12.745897,46.2315945" id="Fill-12" fill="#3B455A"></path>
                        <path d="M9.18687148,1.24439126 C7.01372017,1.13183807 4.84079795,1.01951887 2.66764663,0.906965678 C2.20396771,0.88286385 1.78977231,1.26404712 1.76640509,1.73859572 C1.51555113,6.79202352 1.26492626,11.8454513 1.01407229,16.8986451 C0.978792376,17.611638 0.943512458,18.3243969 0.90800345,19.0373898 C0.852105398,20.1647937 2.56753414,20.2555851 2.62366128,19.1260751 C2.87428615,14.0728814 3.12514012,9.01945356 3.37576499,3.96602576 C3.39661221,3.54529678 3.41745944,3.12456779 3.43853575,2.70360481 C5.32555318,2.80141611 7.21279971,2.89899341 9.09981714,2.99680471 C10.2038037,3.0539003 10.2926907,1.30172085 9.18687148,1.24439126" id="Fill-14" fill="#FF5072"></path>
                        <path d="M12.0603937,3.62165142 L9.97333333,3.51601601 L10.1516603,0 L12.2387207,0.105635412 C13.0295622,0.145776869 13.6380825,0.818791817 13.598141,1.6089447 L13.5647781,2.26341477 C13.5248366,3.05356765 12.8512352,3.66179288 12.0603937,3.62165142" id="Fill-16" fill="#35383F"></path>
                        <g id="Group-20" transform="translate(6.346667, 0.000000)">
                            <mask id="mask-4" fill="white">
                                <use xlink:href="#path-3"></use>
                            </mask>
                            <g id="Clip-19"></g>
                            <path d="M3.28149867,4.52337255 L1.55837867,4.42649346 C0.676645333,4.37692157 -0.001768,3.54325817 0.0428853333,2.56440196 L0.079832,1.75363725 C0.124712,0.77503268 0.875432,0.0216405229 1.75716533,0.0712124183 L3.48028533,0.168343137 L3.28149867,4.52337255 Z" id="Fill-18" fill="#FF5072" mask="url(#mask-4)"></path>
                        </g>
                        <path d="M26.2549247,2.71899921 C28.4153486,2.82958878 30.5755448,2.93994844 32.7359687,3.05053801 C33.1969321,3.07421936 33.5690734,3.48875782 33.5456153,3.95502737 C33.2962305,8.9202923 33.0470734,13.8855572 32.7979164,18.8505922 C32.7626153,19.5511461 32.727542,20.2514701 32.692241,20.9520241 C32.6366703,22.0597591 30.9310605,21.9744603 30.9868589,20.864656 C31.236016,15.8993911 31.485173,10.9343561 31.7345578,5.96909112 C31.7552829,5.55570224 31.7760081,5.14208344 31.7967332,4.72869455 C29.9207674,4.6328196 28.0445738,4.53671473 26.1683802,4.44083978 C25.0710871,4.38474029 25.1555819,2.6626698 26.2549247,2.71899921" id="Fill-21" fill="#FF5072"></path>
                        <path d="M24.027946,4.42376953 L26.1150063,4.52941176 L26.2933333,1.01340338 L24.206273,0.907761141 C23.4154315,0.867617091 22.74183,1.47564685 22.7018885,2.26585078 L22.6685256,2.92036312 C22.6285841,3.71080181 23.2371045,4.38362548 24.027946,4.42376953" id="Fill-23" fill="#35383F"></path>
                        <path d="M25.3866667,4.44871833 L27.203562,4.5275299 C28.1332808,4.56785686 28.9248564,3.95517366 28.9721788,3.15907445 L29.0111362,2.49951372 C29.0582196,1.7032098 28.3428858,1.02502088 27.413167,0.984693923 L25.5962717,0.905882353 L25.3866667,4.44871833 Z" id="Fill-25" fill="#FF5072"></path>
                        <g id="Group-31" transform="translate(0.000000, 18.117647)">
                            <mask id="mask-6" fill="white">
                                <use xlink:href="#path-5"></use>
                            </mask>
                            <g id="Clip-30"></g>
                            <path d="M0.241975577,1.43117089 C-0.102976699,4.59220074 -0.0474511816,7.83599226 0.209817048,10.998654 C0.666051715,16.608497 1.89547921,22.7606038 5.73668822,27.0828616 C9.80185015,31.6571346 17.036131,32.9636034 22.2916212,29.6897379 C27.3099712,26.5636778 29.8884374,20.6139291 31.4227925,15.1073634 C32.1258844,12.5834819 32.6355623,10.0015506 33.0073519,7.40772971 C33.2019226,6.0490394 33.3909407,4.66960039 33.4522502,3.29645593 C33.4550264,3.23304416 33.4603476,3.1696324 33.4635866,3.1059875 C33.554741,1.30877686 30.7826296,1.16423534 30.6914752,2.96447669 C30.6449725,3.87881838 30.5468775,4.79246068 30.4397595,5.70120722 C30.3231559,6.6894516 30.182954,7.67513153 30.0203105,8.6566151 C29.9731138,8.94103551 29.9231408,9.22475653 29.8729365,9.50847755 C29.8065372,9.88428551 29.9141179,9.30192305 29.8518831,9.62364451 C29.8201873,9.78800221 29.7891855,9.95282617 29.7567956,10.1171839 C29.6339454,10.74151 29.5013782,11.3637379 29.3579373,11.9834014 C28.7332753,14.6828309 27.915662,17.3519533 26.7725304,19.8767673 C26.6998845,20.0373949 26.6249251,20.19709 26.5504284,20.3567851 C26.6906303,20.0567449 26.5025376,20.4533015 26.4532587,20.5521493 C26.2892271,20.8810978 26.1189488,21.2067825 25.9414985,21.5285039 C25.6081141,22.133247 25.2499745,22.7242353 24.8633781,23.2958737 C24.6826888,23.5632756 24.4955215,23.8262479 24.3016449,24.0843244 C24.2107219,24.2055528 24.1181793,24.3256155 24.0242487,24.4445126 C23.9617825,24.523311 23.8979281,24.6011769 23.8349992,24.6795091 C23.7838695,24.7433872 23.5756488,24.9816475 23.8081619,24.7149451 C23.3748315,25.2122146 22.9195222,25.6880359 22.4274273,26.1270225 C22.1972278,26.3324114 21.9598562,26.5301069 21.7157753,26.7187103 C21.6005599,26.8075333 21.4823368,26.8923932 21.3657332,26.9793513 C21.6817659,26.7434222 21.1781032,27.1024447 21.0957404,27.1546661 C20.5492767,27.5017989 19.9736622,27.8020723 19.3756061,28.0484923 C19.3154535,28.0732042 19.25345,28.0953517 19.1939914,28.1212293 C18.884668,28.2562124 19.4857317,28.0317068 19.163221,28.1335853 C19.0216309,28.1783465 18.8818917,28.2282366 18.7396076,28.2711328 C18.4022901,28.3730113 18.0603454,28.4581043 17.7149304,28.5264118 C17.3926511,28.5902898 17.0687522,28.633186 16.7430025,28.6735178 C16.657632,28.6842418 16.4063791,28.6972972 16.7453161,28.6758491 C16.6740583,28.6805117 16.6028006,28.6870394 16.5317742,28.689837 C16.3142993,28.6984628 16.097287,28.7080212 15.8795807,28.7084875 C15.1165676,28.7098863 14.3697494,28.6217626 13.6155278,28.5182522 C13.547509,28.5089269 13.3453036,28.4641657 13.6564778,28.5275775 C13.5674056,28.5093932 13.4785648,28.4914421 13.3899553,28.4720922 C13.232633,28.4375887 13.0760048,28.4002877 12.9200707,28.3597228 C12.5499005,28.2629732 12.1841262,28.1487388 11.8250612,28.016087 C11.5391048,27.9104784 11.2635594,27.7850537 10.9833869,27.6659235 C10.6682796,27.5318729 11.2473645,27.8137288 10.9486834,27.649138 C10.8910757,27.617199 10.8311544,27.5885238 10.7728526,27.5575173 C10.599104,27.4649641 10.4279004,27.3679814 10.2592416,27.2663361 C10.0089141,27.1155 9.76460178,26.9548724 9.52676749,26.7846865 C9.39558845,26.6909676 9.26626027,26.594218 9.13924565,26.494904 C9.0626667,26.4352224 8.59324473,26.0300398 8.88868675,26.2965091 C8.41001052,25.8647496 7.95817162,25.4096769 7.54334974,24.9147388 C7.35595112,24.6913988 7.1759559,24.4617643 7.00267001,24.227234 C6.94876399,24.1540308 6.6526279,23.7215718 6.86640114,24.0423608 C6.75720096,23.8787025 6.64846349,23.7152773 6.54412178,23.5485883 C5.83131296,22.4123054 5.26981116,21.1946596 4.79159765,19.941811 C4.76753659,19.8781661 4.74440096,19.814055 4.72103397,19.7501769 C4.83648077,20.0639719 4.75064758,19.8327055 4.72381024,19.7534408 C4.67429999,19.6075005 4.62363296,19.4622596 4.5757422,19.3160861 C4.46307167,18.9738491 4.35757319,18.6292808 4.25832132,18.2828474 C4.06907185,17.6216865 3.9024953,16.9537647 3.75604675,16.2816467 C3.46731406,14.9586255 3.2546976,13.6190519 3.10015158,12.273417 C3.0645227,11.9642846 3.03213282,11.654686 3.00275057,11.3446212 C2.98748105,11.1839936 2.97359967,11.0231328 2.95925558,10.8622721 C2.9983548,11.2944979 2.94861319,10.7223932 2.94097843,10.6170178 C2.89632666,10.0052808 2.86231728,9.39284433 2.83848758,8.78017478 C2.79614937,7.69844468 2.78504427,6.61578205 2.8028587,5.53358568 C2.82391213,4.27001302 2.91113346,3.01599875 2.99580988,1.75638932 C2.9999788,1.69507574 3.00737769,1.63376215 3.01408703,1.5726817 C3.09621852,0.821298919 2.41579958,0.141953763 1.69836362,0.105352119 C0.911289416,0.065020372 0.324338428,0.677456791 0.241975577,1.43117089" id="Fill-29" fill="#3B455A" mask="url(#mask-6)"></path>
                        </g>
                    </g>
                    <g id="Group-12" transform="translate(34.062101, 73.420294) rotate(-1.000000) translate(-34.062101, -73.420294) translate(0.562101, 40.920294)">
                        <g id="Group-3">
                            <mask id="mask-8" fill="white">
                                <use xlink:href="#path-7"></use>
                            </mask>
                            <g id="Clip-2"></g>
                            <path d="M66.8867404,32.5549393 C66.8867404,50.4739099 51.9137184,64.9999761 33.4433949,64.9999761 C14.9730713,64.9999761 4.92647059e-05,50.4739099 4.92647059e-05,32.5549393 C4.92647059e-05,14.6359688 14.9730713,0.109902574 33.4433949,0.109902574 C51.9137184,0.109902574 66.8867404,14.6359688 66.8867404,32.5549393" id="Fill-1" fill="#54B2F0" mask="url(#mask-8)"></path>
                        </g>
                        <path d="M63.4107143,31.8981481 C63.4107143,47.5207219 50.286945,60.1851852 34.0983388,60.1851852 C17.9094836,60.1851852 4.78571429,47.5207219 4.78571429,31.8981481 C4.78571429,16.2755744 17.9094836,3.61111111 34.0983388,3.61111111 C50.286945,3.61111111 63.4107143,16.2755744 63.4107143,31.8981481" id="Fill-4" fill="#FFFFFF"></path>
                        <path d="M31.1372037,32.0837311 L31.1078203,32.833159 C31.0901903,33.2865945 31.4187943,33.6697054 31.8421595,33.6885985 L58.9931197,34.9066814 C59.4162401,34.9255745 59.7737377,34.5734273 59.7913677,34.1199919 L59.8207511,33.370564 C59.8383811,32.9168662 59.5097772,32.5340176 59.0864119,32.5148621 L31.9354517,31.2970417 C31.5123313,31.2778861 31.1548337,31.6302957 31.1372037,32.0837311" id="Fill-8" fill="#FF5072"></path>
                        <path d="M34.6963625,30.802118 L34.6963625,16.7485174 C34.6963625,16.1408218 34.1607685,15.6481481 33.4998678,15.6481481 C32.8392315,15.6481481 32.3036375,16.1408218 32.3036375,16.7485174 L32.3036375,30.802118 C31.5890717,31.1829309 31.1071429,31.8920308 31.1071429,32.7064256 C31.1071429,33.921817 32.1783307,34.9074074 33.4998678,34.9074074 C34.8214049,34.9074074 35.8928571,33.921817 35.8928571,32.7064256 C35.8928571,31.8920308 35.4109283,31.1829309 34.6963625,30.802118" id="Fill-10" fill="#2E4661"></path>
                    </g>
                </g>
            </g>
        </g>
    </g>
</svg>