<?xml version="1.0" encoding="UTF-8"?>
<svg width="70px" height="144px" viewBox="0 0 70 144" version="1.1" xmlns="http://www.w3.org/2000/svg" xmlns:xlink="http://www.w3.org/1999/xlink">
    <!-- Generator: Sketch 63 (92445) - https://sketch.com -->
    <title>Group 60</title>
    <desc>Created with Sketch.</desc>
    <defs>
        <polygon id="path-1" points="0.141051522 0.00858928571 7.87536147 0.00858928571 7.87536147 12.9437893 0.141051522 12.9437893"></polygon>
        <polygon id="path-3" points="0.0352444444 0.017162069 7.83346667 0.017162069 7.83346667 7 0.0352444444 7"></polygon>
        <polygon id="path-5" points="0 0.113383911 69.7834662 0.113383911 69.7834662 69.7781601 0 69.7781601"></polygon>
    </defs>
    <g id="Page-1" stroke="none" stroke-width="1" fill="none" fill-rule="evenodd">
        <g id="輪播5" transform="translate(-1095.000000, -7044.000000)">
            <g id="Group-56" transform="translate(100.000000, 7003.000000)">
                <g id="Group-60" transform="translate(995.000000, 41.000000)">
                    <g id="Group-3" transform="translate(11.000000, 0.000000)">
                        <mask id="mask-2" fill="white">
                            <use xlink:href="#path-1"></use>
                        </mask>
                        <g id="Clip-2"></g>
                        <path d="M7.15783529,4.84013214 C7.49030588,4.88354286 7.81854118,5.1454 7.8656,5.42931071 C7.93171765,5.82673929 7.65007059,6.19491786 7.37971765,6.52688214 C6.29430588,7.85822143 5.05195294,9.09832857 4.47054118,10.6112036 C4.15336471,11.4367036 4.04983529,12.9748821 2.53195294,12.9433107 C2.16324706,12.9354179 1.7856,12.9263643 1.43971765,12.8181857 C1.15712941,12.7297393 0.911247059,12.579775 0.679011765,12.4235429 C0.497835294,12.3016679 0.175011765,12.1417214 0.152188235,11.9608821 C0.0328941176,10.9487393 0.907952941,9.36993571 1.06042353,8.30788214 C1.15312941,7.662525 2.42042353,-0.0669035714 2.86136471,0.00900714286 C3.53312941,0.116257143 4.20489412,0.223275 4.87665882,0.330292857 C5.00701176,0.351185714 5.14465882,0.374632143 5.24418824,0.445435714 C5.36630588,0.532489286 5.40254118,0.669221429 5.42842353,0.795971429 C5.65901176,1.92256071 5.62889412,3.07607857 5.34042353,4.18270357 C5.26418824,4.4759 5.17054118,4.78441786 5.29195294,5.07250714 C5.41336471,5.36059643 5.85171765,5.59482857 6.18442353,5.45391786 C6.45571765,5.33900714 6.52371765,5.04557857 6.77454118,4.90559643 C6.89124706,4.84036429 7.02489412,4.82272143 7.15783529,4.84013214" id="Fill-1" fill="#E5D1BD" mask="url(#mask-2)"></path>
                    </g>
                    <path d="M5.94516508,24.2348648 C7.3069767,18.2413105 9.87077352,7.81375135 11.1131121,8.00252826 C13.0768231,8.30349003 14.979324,8.99529659 16.6746174,10.0252346 C15.6789329,14.2371224 14.2010488,18.688473 14.6236253,23.0699896 C14.9688956,26.6502181 18.532911,27.3568926 21.5136167,27.7727424 C25.6813451,28.3541663 29.6182888,28.9049534 33.8630966,29.1304494 C34.1453432,29.1455426 34.450487,29.1694213 34.6638155,29.3536928 C34.9163639,29.5717549 34.9603445,29.9454791 34.9802945,30.2712206 C35.0050052,30.6780597 35.0072723,31.086025 34.9825615,31.4930893 C34.8213749,34.1352903 34.1088439,36.8518306 32.4461959,38.9389644 C30.9216107,40.8530902 28.5126528,42.1646167 26.0624347,41.9832737 C24.6534687,41.8789734 23.3279297,41.3081372 22.0336759,40.7449603 C19.2304796,39.5257948 16.8958806,37.6887116 14.2915037,36.0827562 C11.2339454,34.1976903 8.35276277,32.0675298 5.61327026,29.7517462 C5.37160368,29.5447224 5.11973541,29.3181 5.03404125,29.0126328 C4.9651232,28.7677635 5.01409129,28.5071252 5.0644196,28.2575251 C5.13651151,27.8995699 5.4665927,26.3411466 5.94516508,24.2348648" id="Fill-4" fill="#FFFFFF"></path>
                    <g id="Group-8" transform="translate(22.000000, 137.000000)">
                        <mask id="mask-4" fill="white">
                            <use xlink:href="#path-3"></use>
                        </mask>
                        <g id="Clip-7"></g>
                        <polygon id="Fill-6" fill="#3B455A" mask="url(#mask-4)" points="7.36568889 2.63081724 6.89791111 5.24423103 1.85502222 7.00002414 0.0352444444 3.95743793 2.7908 1.77295517 7.83346667 0.017162069"></polygon>
                    </g>
                    <polygon id="Fill-9" fill="#3B455A" points="41 79.2511718 30.178251 138.827865 25.2827692 139 22.3751483 97.5757554 21 77"></polygon>
                    <polygon id="Fill-11" fill="#3B455A" points="55 79 48.030915 137.614061 43.5331825 138 38.7746518 93.0858817 35 79.8445785"></polygon>
                    <polygon id="Fill-13" fill="#3B455A" points="44 137.413922 44.2061036 139.913922 48.9413282 142 51 139.293039 48.529121 137"></polygon>
                    <polygon id="Fill-15" fill="#484F5B" points="22.1618739 80 20 72.97301 22.1618739 65 55 66.1606613 55 78.2563822"></polygon>
                    <path d="M59.9684089,81.6503403 C59.9044585,83.3331701 59.7398837,85.0287673 59.4467204,86.7528111 C59.3328016,87.4225384 59.1755616,88.1417673 58.6570821,88.5937773 C57.8371877,89.3085264 56.4894161,88.9978535 55.6564566,88.2978877 C54.823497,87.5976979 54.3146445,86.6063223 53.6132531,85.7798027 C51.1609047,82.8894478 46.8723321,82.4425896 43.0373718,82.2103129 C40.2327232,82.0403052 37.4280747,81.8705215 34.6234261,81.7005138 C32.0647229,81.5455134 29.4610941,81.3940968 26.9679458,81.9773643 C22.1826689,83.0973096 17.8523796,86.8735413 13.009341,86.0228308 C12.8218449,85.9899044 15.5160129,83.1342678 15.7857964,82.9167744 C17.3038732,81.6946901 17.1454871,81.5210986 17.1452579,79.4776464 C17.1447995,75.5264793 17.3364214,71.5739683 17.7072878,67.6396004 C18.3830073,60.4694865 21.3238083,54.2833565 23.528836,47.4770008 C24.6235567,44.0979018 25.6169652,40.6621336 27.12106,37.4449787 C28.2987557,34.9259977 30.40866,31.2348819 32.9950979,30.065659 C33.8704619,29.6700943 34.8414075,29.6084973 35.7892027,29.5525 C38.664678,29.3822683 41.5403826,29.2122606 44.4158579,29.0422529 C45.4640483,28.980208 46.5546431,28.9253306 47.5168787,29.3502379 C48.9588568,29.9870388 49.7902118,31.539955 50.5181919,32.9898362 C53.7828706,39.4920147 55.9042357,46.5427425 57.1383177,53.8416501 C58.0013041,58.9461368 58.255272,64.1614982 59.0258856,69.1987882 C59.6720366,73.421878 60.1265657,77.4964631 59.9684089,81.6503403" id="Fill-17" fill="#FFFFFF"></path>
                    <path d="M39.6496496,48.1132832 C39.5678359,50.0580417 39.8277552,51.9945427 40.0867553,53.914975 C40.8253766,59.3914989 41.9712279,64.809997 43.1281102,70.2146581 C43.7171228,72.9670918 44.3185453,75.7168473 44.8930796,78.4719591 C45.1594337,79.748974 45.2044772,81.4232428 45.7555705,82.6080859 C45.8293407,82.7663179 47.5453598,84.3910416 46.8228255,84.5599861 C41.1337866,85.890117 35.2025242,81.8789689 29.5008456,83.1570997 C26.6104784,83.8049806 23.6817322,85.7778593 20.9448806,84.6675571 C20.6091227,84.5314195 20.2752034,84.3339085 20.1118058,84.0183371 C19.8796939,83.5704223 20.0536629,83.0336832 20.2301599,82.562558 C21.1140235,80.2038074 22.2001231,77.9894518 22.2789493,75.4787181 C22.3598437,72.9097354 22.565527,70.3121862 22.9879246,67.774225 C23.7345894,63.2892735 25.2975526,59.0426743 26.8497145,54.8362469 C29.7180196,47.0636849 32.5863247,39.2908998 35.4544,31.5181147 C35.6079156,31.1023372 35.7697045,30.6729459 36.0585803,30.3685334 C36.4046798,30.0040865 36.8824625,29.8715197 37.3393322,29.7637256 C39.5471527,29.242832 42.0415509,28.7842047 44.2716633,29.1080335 C44.8609057,31.4980288 42.8665821,35.7401644 42.1371534,38.0004943 C41.075414,41.2892206 39.7990285,44.5603161 39.6496496,48.1132832" id="Fill-19" fill="#3B455A"></path>
                    <path d="M32.9011417,13.7113618 C32.3459332,15.1370605 32.2040517,16.7066222 32.3539169,18.2316164 C32.3936072,18.6371116 32.4326133,19.1063405 32.1447443,19.3910646 C31.836574,19.6958787 32.2188785,20.210368 31.9084271,19.908094 C31.5979758,19.6055891 30.539795,18.5521331 30.4385162,18.1281644 C30.2015147,17.1347475 30.0582646,16.1184696 30.011503,15.0975732 C29.9709002,14.2099176 30.0174337,13.2691505 30.4884713,12.519123 C30.7676722,12.0743715 31.1759808,11.7307629 31.5785868,11.396622 C32.1623084,10.9121523 32.765419,10.4214478 33.4803012,10.1759801 C34.7125263,9.75247318 35.5544632,10.0988528 34.5644859,11.1557727 C33.8550783,11.9127277 33.2813933,12.7348021 32.9011417,13.7113618" id="Fill-21" fill="#3B455A"></path>
                    <path d="M42.9889116,29.7632388 C41.2698691,30.1754925 39.5505985,30.5877463 37.8315561,31 C37.3495944,29.5389309 36.9737464,28.0385455 36.7088044,26.5177065 C35.1536107,26.4761175 33.2978756,26.2436282 32.550059,24.7348341 C32.314555,24.2594014 32.2303487,23.7178354 32.1495653,23.1878599 C31.8161628,20.9968244 31.4827603,18.8055617 31.1491296,16.614299 C31.0338878,15.8566067 30.9191024,15.0750518 31.0779307,14.3337223 C31.3570213,13.0326458 32.4135945,12.1295056 33.4872829,11.5024891 C36.2268427,9.90256275 39.6261333,9.46281028 42.555785,10.7591142 C43.3355497,11.1040983 44.0936353,11.5829399 44.6184989,12.3051793 C45.4279299,13.4189917 45.5632534,14.9182408 45.6657159,16.3227216 C45.7604196,17.6190255 45.8551232,18.9155567 45.9495987,20.2120878 C46.0584508,21.7031555 46.0817274,23.4342121 45.0434103,24.3787141 C44.4923035,24.8805092 43.7134515,25.0695914 43.2643508,25.6809268 C42.4722632,26.7588317 43.1395246,28.3787571 42.9889116,29.7632388" id="Fill-23" fill="#EFBFA5"></path>
                    <path d="M38.1302794,24.028631 C38.8469666,24.3660754 39.5321685,24.2752931 40.2257514,23.9597693 C40.5818298,23.7976897 40.8296351,24.3855604 40.4740096,24.5474186 C39.637044,24.9280399 38.7679136,25.0221435 37.9069376,24.6167231 C37.548594,24.4480009 37.7696707,23.8588017 38.1302794,24.028631 M32.4574874,24.4519865 C32.9234247,25.7441949 33.7689977,26.921929 34.9865052,27.5128996 C36.3668756,28.1831386 37.9511076,28.0215018 39.4465466,27.846137 C40.2647116,27.7500406 41.0826501,27.6539443 41.9005886,27.5580693 C43.9700116,27.3151713 45.9837123,26.7656063 46.7323378,24.4929492 C47.0773171,23.4447459 47.065312,22.2847254 46.8301914,21.1909095 C46.7658617,20.8904422 46.6802398,20.5839966 46.4949522,20.3430914 C46.3096645,20.1021862 46.0018333,19.9409923 45.7214102,20.0204822 C45.3632931,20.1218926 45.2004303,20.5377198 45.0090268,20.8698501 C44.5915633,21.5945585 43.7378357,22.0863328 42.9536476,21.8407778 C42.7210188,21.7679306 42.5103617,21.6383997 42.3001576,21.5070975 C42.2140826,21.4532924 42.1280077,21.3992659 42.0408002,21.3487821 C41.1755204,20.8477081 40.184979,20.7015708 39.2182214,20.7141917 C38.3794437,20.7250413 37.1238821,20.5992746 36.6140013,21.3707027 C36.3172692,21.8195215 36.0205372,22.2683403 35.7238051,22.717159 C35.6014881,22.9018235 35.4762264,23.0902521 35.3027174,23.2222186 C35.1237721,23.3579492 34.9045075,23.4250395 34.6847899,23.4598025 C34.1323246,23.5474849 33.4738513,23.3851838 33.2049803,22.8624107 C33.0876466,22.6347907 33.0609181,22.3715221 33.0138033,22.1188816 C32.9664621,21.8660197 32.8874091,21.6018654 32.6998563,21.433586 C31.9824896,20.7894746 31.9766002,21.9756227 32.0105772,22.3752862 C32.0706031,23.0818381 32.2169305,23.7848473 32.4574874,24.4519865" id="Fill-25" fill="#3B455A"></path>
                    <path d="M29.8359029,10.3256877 C29.6166171,9.81648709 29.4333905,9.29142356 29.2880263,8.75616243 C29.8151688,8.86063126 30.3684543,8.82845214 30.8802716,8.66370411 C30.8363242,8.34916454 30.7926023,8.03439836 30.748655,7.7198588 C30.7134971,7.45789357 34.2065203,6.76490942 34.4891353,6.69987134 C37.134764,6.09118743 39.5527681,5.52646653 42.1805925,6.62033 C44.4252864,7.55488415 46.0150525,9.20553704 46.6760653,11.5584652 C47.3075545,13.8060181 46.9904577,16.9069975 45.9451876,19 C45.8651809,18.3888233 46.0082914,16.8990661 45.782019,16.3400105 C45.6109625,15.7716638 45.3310519,15.2402551 44.9815017,14.763007 C44.2837535,13.8098705 43.3069961,13.0643121 42.2340054,12.5866108 C40.5232151,11.8251893 38.6240147,11.5666233 36.7653812,11.5754612 C35.0624788,11.5833927 32.9971802,11.6622542 31.4116961,12.3459472 C30.6497171,12.6745368 30.5467227,12.8936721 29.9512928,12.1585378 C29.84627,12.0289149 28.9378,10.4698139 29.0033829,10.459163 C29.2808145,10.4147468 29.5584714,10.3701039 29.8359029,10.3256877" id="Fill-27" fill="#3B455A"></path>
                    <g id="Group-31" transform="translate(0.000000, 47.000000)">
                        <mask id="mask-6" fill="white">
                            <use xlink:href="#path-5"></use>
                        </mask>
                        <g id="Clip-30"></g>
                        <path d="M64.8660909,15.0035065 C59.5817727,8.61318387 52.3888182,7.78582903 46.9938182,8.33160323 C43.0895,8.72676452 39.1751818,7.53563548 36.1138182,5.09963548 C31.8554091,1.71073226 25.2395,-1.56662258 17.1883636,1.07711935 C6.39381818,4.62137742 1.44836364,15.0360226 0.367909091,25.5030548 C-0.431636364,33.2491194 -0.0273181818,41.6129903 2.56813636,49.1221839 C5.0795,56.3888613 11.3672273,65.1336677 20.1845,64.8315387 C22.8729091,64.7394097 25.5395,65.4922484 27.6954091,67.0873452 C38.0154091,74.7220871 50.2665455,64.4332161 56.8138182,57.0461839 C63.6508636,49.3321839 69.8510909,39.227571 69.7834662,28.6498935 C69.7508636,23.6774097 68.0804091,18.8907645 64.8660909,15.0035065" id="Fill-29" fill="#FF5072" mask="url(#mask-6)"></path>
                    </g>
                    <path d="M55.4344515,64.6448293 C55.2076625,64.5706221 55.0051337,64.3297207 55.0001517,64.1070991 C54.9932203,63.7950372 55.2249912,63.5484777 55.4452819,63.3284675 C56.330127,62.4453801 57.3148286,61.6515153 57.8669633,60.5675679 C58.1680489,59.9758688 58.3907222,58.8133619 59.4425724,59.0255379 C59.6979536,59.077113 59.9593999,59.1308643 60.1892214,59.2562113 C60.3770208,59.3589263 60.5331954,59.5040764 60.6794061,59.6520556 C60.7931255,59.7676099 61.0019359,59.9299518 61,60.0707496 C60.9869899,61.0041065 60.2821464,61.7468313 59.9886421,62.5787789 C59.6580977,63.5154 59.7395425,64.651793 59.5684219,65.6397716 C59.4967245,66.0528076 59.4016334,66.4804239 59.1395373,66.8066309 C58.9794637,67.0059675 58.7667543,67.1548172 58.5570775,67.3006202 C58.2854506,67.4897289 58.0138237,67.6788375 57.7419802,67.8679462 C57.6691998,67.9186508 57.5942533,67.9702259 57.5080432,67.9902467 C57.399739,68.0152725 57.2868861,67.9874176 57.1792317,67.9597804 C56.8252937,67.8690343 56.4713557,67.7780706 56.1174176,67.687107 C56.0327237,67.6653453 55.9423981,67.6403194 55.8856467,67.5735112 C55.790339,67.4614387 55.8321444,67.2901746 55.8914951,67.1556877 C56.1735192,66.5169834 56.9331647,65.4493572 56.7538129,64.6983629 C56.6977114,64.4631196 56.4159039,64.2298348 56.1709199,64.2962078 C55.971207,64.3503943 55.8951774,64.5662698 55.7071614,64.6422179 C55.6196516,64.6776894 55.5252104,64.6746428 55.4344515,64.6448293" id="Fill-32" fill="#EFBFA5"></path>
                    <path d="M64.8811559,50.7011917 C65.0466548,51.6543653 65.0521485,52.6187132 64.8156888,53.58619 C64.6009752,54.4642718 61.4141485,63.3800764 60.2698484,62.9874091 C58.8050802,62.484786 57.4288985,61.6744209 56.2466,60.6171022 C57.6239262,56.8837459 57.9521772,53.1544124 55.8219797,49.555819 C54.1072463,46.6587524 51.2111301,44.6080324 48.1952961,43.0190373 C47.0793803,42.4310421 45.843289,41.7985729 45.3774657,40.647166 C45.1529091,40.0922469 45.1398614,39.480562 45.1297896,38.8840743 C45.0865264,36.3349775 45.0432632,33.7858807 45,31.2367839 C46.7694419,30.7055545 48.7233818,31.1199001 50.3596005,31.9655762 C51.9958192,32.8112524 53.3726876,34.0560769 54.7289545,35.2861513 C57.7221268,38.0012992 59.7522924,39.5918587 61.5194452,43.1075383 C62.6825156,45.4213029 64.4153326,48.0166616 64.8811559,50.7011917" id="Fill-34" fill="#FFFFFF"></path>
                    <path d="M40.7763409,46.197182 C42.6832344,43.6628614 45.6116861,41.8383333 48.3967935,40.9322394 C51.1816712,40.0261455 53.8613377,39.9322225 56.4112133,40.0314015 C58.6725625,40.1193829 60.8739551,40.3517909 63,40.7270257 C61.994522,42.4638009 60.6766269,44.0993404 59.3320843,45.6942028 C57.391652,47.9958869 55.3453194,50.2724336 52.985421,52.1618622 C50.6255226,54.0515193 47.9038176,55.5417181 45.3516448,55.9212949 C40.0938472,56.7030722 36.7633881,51.530453 40.7763409,46.197182" id="Fill-36" fill="#54B2F0"></path>
                    <path d="M14.5175562,65.2966464 C14.9791577,62.5509528 15.184289,62.061231 15.5030832,62.0641261 C16.0095222,61.9599016 16.8553806,62.405083 16.9692677,62.8979226 C17.0452671,63.2264081 16.9717337,63.8268129 16.8426019,64.6450202 C16.528964,66.4996829 15.8416059,70.7548509 15.5667524,73.0834236 C15.3829189,74.4294348 15.3223883,74.6657217 15.2102947,74.7919937 C14.7798552,75.2249265 13.6533144,74.9409814 13.3325025,74.3187519 C13.1060734,73.9521843 13.1101088,73.6245896 13.4414575,71.3875475 C13.6261878,70.3510921 13.7183287,69.6783092 13.643226,69.6593796 C13.5678991,69.6404499 13.1553946,69.6910032 12.6675632,69.7228496 C11.5230874,69.8210612 11.6537886,69.6219656 11.4152534,71.495558 C11.0650729,73.8052009 10.9859349,74.0368111 10.5732062,74.0873644 C10.0669914,74.1918117 9.29623575,73.76556 9.08863838,73.3266142 C8.93776038,72.9789763 8.97856246,72.5057345 9.2182186,70.941698 C9.92373579,66.613929 11.0374979,62.2536456 11.4874417,62.0576678 C12.2797193,61.851223 12.5574873,62.2500823 12.7458046,62.4522958 C13.0471122,62.8375703 13.0424043,62.8556092 12.4131107,65.9458229 C12.1911654,67.1274799 11.9497157,68.072182 12.0248185,68.0911117 C12.0248185,68.0911117 12.4563789,68.0452351 13.019313,68.0323184 C13.9949758,67.9688483 14.0135833,67.8962474 14.0505742,67.750823 C14.0877893,67.6053985 14.2956108,66.4783035 14.5175562,65.2966464" id="Fill-38" fill="#FFFFFF"></path>
                    <path d="M20.8633672,70.6619383 C21.3921144,70.3612378 21.7535049,70.0020203 21.8385513,69.6882923 C21.966691,69.4405561 21.9235978,69.3747779 21.690119,69.4860456 C21.690119,69.4860456 21.5471589,69.5633564 21.4185632,69.5885571 C21.1276268,69.6863702 20.4278746,70.1690287 20.166123,70.3849436 C19.9805257,70.6190116 19.5671497,71.1697975 19.5671497,71.1697975 C19.610243,71.2357893 20.4727919,70.903054 20.8633672,70.6619383 M17.5650239,70.1562147 C18.4200486,68.8758884 19.682293,68.118798 20.9937869,68.0041132 C23.9471563,67.9084358 24.042463,69.5074022 23.9918456,70.1444686 C22.83152,73.0769392 19.8485098,72.7574449 19.2805454,72.6779985 C19.0322463,72.6190544 19.0513988,72.6235392 19.0520828,72.8462883 C18.9804888,74.4612721 21.1809803,74.7429652 21.4149151,74.854233 C21.6780347,75.0838161 21.9416103,75.4616138 21.8989731,75.618371 C21.7197599,76.2806382 19.7915082,76.0446481 18.53884,75.1908125 C16.0916453,73.7189177 17.2088776,70.7206689 17.5650239,70.1562147" id="Fill-40" fill="#FFFFFF"></path>
                    <path d="M26.0692586,76.2892543 C28.1098339,75.8305569 28.832688,72.1533139 28.832688,72.1533139 C28.832688,72.1533139 28.6405979,72.2225249 28.4443508,72.3916042 C27.9781274,72.709557 27.2708068,73.6281129 26.9017223,74.2749342 C26.7833615,74.5255339 26.6098678,74.7612695 26.5413892,74.8030749 C26.3681142,75.0388105 25.9456471,76.3164277 26.0692586,76.2892543 M27.4784304,70.7196234 C28.324021,70.2012373 28.6349095,70.0430738 29.0742228,70.0001072 C29.5047849,69.9949977 30.1644112,70.1726703 30.5177433,70.4896941 C31.0408499,70.9128569 31.1290189,71.3599416 30.8277567,71.722719 C30.6816107,71.8446512 30.6586386,71.8585863 30.8288506,72.1263726 C31.122893,72.6089919 30.8863902,73.1097268 30.741338,73.7161363 C30.4203855,75.3035775 30.3709409,75.6733224 30.39085,77.9575191 C30.4376693,78.4138939 30.4247612,78.712802 30.3424993,78.8117413 C30.2105741,79.1190104 29.4732803,79.0212324 28.9781777,78.7265048 C28.6478176,78.4761374 28.537333,78.2852264 28.3791539,77.3148783 C28.4062828,77.2010749 28.3787164,77.0726396 28.3235834,77.0580078 C28.3235834,77.0580078 28.1912206,77.2038619 28.0315101,77.3824636 C27.6436105,77.8629926 27.1089084,78.2229829 26.6695951,78.2661817 C25.9876531,78.4252742 25.1304671,78.012795 24.8003258,77.7626598 C24.2907836,77.282363 23.8910698,76.6706117 24.0267143,76.0214679 C24.755038,72.6480102 27.0213958,70.9999513 27.4784304,70.7196234" id="Fill-42" fill="#FFFFFF"></path>
                    <path d="M33.3053449,70.9007941 C33.9683235,67.9801476 34.2872302,67.0377956 34.5480122,67.0266804 C35.0185778,66.8948534 35.81629,67.2707715 35.9574819,67.7311657 C36.0654915,68.0094919 35.9824243,68.3360584 35.5372466,70.7905307 C35.0669037,72.6403328 34.4852107,76.2570171 34.2676326,78.5183062 C34.0749969,79.5891506 33.9921524,79.992857 33.638059,79.9804079 C33.0744048,80.0884482 32.3697812,79.7363167 32.1355006,79.2523581 C32.0092296,79.0467258 31.9713705,78.8826645 32.0212554,78.37403 C32.122584,76.2570171 32.4664331,74.2015826 33.3053449,70.9007941" id="Fill-44" fill="#FFFFFF"></path>
                    <path d="M40.0554092,66.4468007 C40.1226263,66.1871333 40.2820931,66.0493414 40.4809631,66 C40.9709528,66.0231927 41.6220319,66.4615804 41.6816001,66.9502189 C41.7652739,67.346314 41.5981582,68.31154 41.2191926,69.7770009 C40.8399953,71.2426891 40.8353597,71.2611068 41.4998821,71.327729 C43.3001423,71.5587466 43.05028,72.4441624 42.8859457,72.6797275 C42.7218432,72.9152927 42.4309553,72.9218867 41.3255811,73.1206164 C40.4429507,73.1772339 40.4429507,73.1772339 39.7712429,75.7743625 C39.4115154,77.1654703 39.0756615,78.4638072 39.0323181,78.6309312 C39.014239,79.1002424 39.0191064,79.0818247 39.411979,79.0809152 C40.2273923,79.2837377 40.6559595,79.8642376 40.5215252,80.3835723 C40.3008676,81.2369276 38.879573,81.1398365 37.6019839,80.4861205 C36.2027087,79.6639162 36.5441254,78.584091 37.1965951,76.0613154 C37.7519476,73.5144377 37.7714174,73.5192126 37.3053014,73.4032491 C36.640779,73.3366269 36.2374762,73.0583144 36.0807907,72.5455736 C35.9491379,72.3350202 35.9732433,72.2422494 36.1911195,72.1187823 C36.3554538,71.8834445 37.0679554,71.6856244 37.9744595,71.536236 C38.4642174,71.5594287 38.440112,71.5730715 38.7328542,70.4416311 C39.1359252,68.8833994 39.7462104,66.922706 40.0554092,66.4468007" id="Fill-46" fill="#FFFFFF"></path>
                    <path d="M44.2738703,70.0337167 C44.596837,69.1383625 44.6213542,69.0468992 44.8974082,69.0356904 C45.2965196,68.8789923 46.1609858,69.2627795 46.3151612,69.7088874 C46.3745682,69.8010232 46.350994,70.2040895 46.2291153,70.6611819 C46.1225599,71.3754029 45.2522,75.6618493 45.1300856,76.1191659 C45.1701618,76.2843827 45.2637514,76.2485147 45.7654106,75.7078051 C46.6807972,74.9554745 46.9019232,74.7557347 47.380244,74.6178672 C49.4960293,74.4862766 49.7812772,75.8591231 49.9354525,76.305231 C50.1051869,77.008019 49.9293233,79.3208304 49.5351625,81.1140047 C49.3934815,81.6444023 49.3456258,82.1389319 49.385702,82.3043729 C49.3621278,82.7074392 49.2395419,82.9307173 48.8649477,82.9961763 C47.059399,83.0665672 47.0320529,82.1452088 46.9375203,81.8692496 C47.5047158,80.1374992 47.5749669,78.8500633 47.68553,77.8063055 C47.7324427,76.9999487 47.4712404,77.0342474 47.0381822,77.3969623 C46.5707056,77.8876809 45.5183529,78.9962253 44.3266766,81.4143989 C44.2436954,81.7253294 44.0272841,81.9066868 43.9287439,81.9609371 C43.4904994,82.2637973 42.5819493,81.9667656 42.1312104,81.3713574 C41.9577042,80.9985547 41.9577042,80.9985547 42.1227237,80.0650908 C42.5871356,76.9847048 43.7849412,71.5509317 44.2738703,70.0337167" id="Fill-48" fill="#FFFFFF"></path>
                    <path d="M52.5361907,76.7645347 C52.705341,76.3863796 52.9532375,76.1703573 53.1371252,76.0583974 C53.5279965,75.8200761 54.6154856,76.3536278 54.7413035,76.8915929 C54.7230467,76.9673168 54.7193074,77.3092359 54.4544739,78.0852901 C54.0574436,79.4109235 53.3361902,81.7590622 53.8524396,81.9781041 C54.9537862,82.4547468 56.5546651,78.5675075 56.6683851,78.0936523 C56.8186188,77.4683491 57.1725366,77.3008738 57.8726737,77.4885577 C58.6464978,77.6957532 59.0853208,78.3175721 58.9861182,79.0576225 C58.6711335,81.7565071 58.058761,85.2834769 57.6436939,86.6850665 C56.7920034,90.1479265 54.2241743,90.3070397 52.8049835,89.7653581 C51.6625041,89.3786085 51.1271181,88.9124186 51.0017401,88.3744535 C50.968086,87.8611103 51.4190068,87.7802761 52.6668477,87.9735347 C54.3889254,88.233226 54.4837287,87.512455 54.8735003,86.9512617 C55.1165576,86.5928505 55.9277752,83.5427556 55.8540881,83.5230117 C55.7804011,83.5032677 55.8769641,83.4282406 55.6702004,83.6349716 C54.0356674,85.2140246 52.619776,84.0883861 52.2920336,83.7383371 C51.355438,82.9023542 51.1631918,81.5804373 51.8096583,78.8894504 C52.1512583,77.4681168 52.1464191,77.325728 52.5361907,76.7645347" id="Fill-50" fill="#FFFFFF"></path>
                    <path d="M18.6647889,84.5737605 C19.0676613,84.516395 19.8158208,84.4673859 20.3534339,84.5242997 C21.4473304,84.5631456 22.2728703,84.7734105 22.6577473,85.1112796 C23.263743,85.7052609 22.9339769,86.2009981 22.6656203,86.2926925 C20.050886,86.2061926 19.5042751,86.26672 18.3770871,86.3593178 C17.7247532,86.4329444 17.729477,86.414199 17.4865389,87.0517689 C17.1156083,88.1965944 17.0206825,88.5721803 17.1932135,88.5360445 C17.1932135,88.5360445 17.6152061,88.4836477 18.0180785,88.4265081 C20.5450852,87.9709719 21.2183387,88.5421424 21.4108897,88.7510522 C21.9928166,89.2790857 21.9604248,89.7305566 21.3659012,89.8990395 C18.1714895,90.084461 18.1863357,90.2680758 17.1556481,90.5451918 C16.4702476,90.7502621 16.4702476,90.7502621 16.1245106,92.4411889 C15.7211883,94.0372595 15.5047934,95.5411839 15.3774758,96.3682406 C15.2164168,97.0866643 14.7125451,97.0582074 14.1942771,96.9260861 C13.2337716,96.6814923 12.9402213,96.3070357 13.0097287,95.3851226 C13.1503179,94.1818024 14.6592337,88.130195 15.5349357,85.6352479 C15.8158892,84.8472629 16.28422,84.2069827 16.5716968,84.0405324 C16.763123,83.929415 17.3056849,84.0475337 17.690337,84.3854029 C17.8828879,84.5943127 17.9357495,84.6277382 18.6647889,84.5737605" id="Fill-52" fill="#FFFFFF"></path>
                    <path d="M24.4128091,94.6956183 C24.9096212,93.8729405 25.0829525,92.5685066 24.7818027,91.9212275 C24.7407562,91.853816 24.6316532,91.8259068 24.6316532,91.8259068 C24.3594273,91.7561338 23.1473844,93.0416752 22.5833666,94.1320668 C22.1412123,94.9689139 21.967881,96.2733478 22.1990603,96.2754946 C23.6416444,96.3031892 24.0199958,95.3360275 24.4128091,94.6956183 M22.3617577,91.0925385 C23.1488732,90.2681432 23.5744387,90.0352085 24.105279,90 C26.5200071,90.6945101 26.9087796,91.8390027 26.9989544,93.3252758 C27.018946,93.9382051 26.7496976,95.0092749 26.4113295,95.663424 C25.0031989,98.2667099 22.526582,98.2025187 21.5318943,97.7765811 C19.4987078,97.2557522 20.0010495,95.2568082 20.2126625,94.6458111 C20.6261055,93.2316726 21.3621786,92.0715079 22.3617577,91.0925385" id="Fill-54" fill="#FFFFFF"></path>
                    <path d="M32.4128623,96.6956739 C32.9094557,95.8729863 33.0827848,94.5683224 32.7816387,93.9212503 C32.7405927,93.8536233 32.6317037,93.8257137 32.6317037,93.8257137 C32.3592685,93.7561546 31.1472405,95.0414965 30.5834422,96.1321157 C30.1410807,96.9689728 29.9677515,98.273422 30.1991406,98.2755689 C31.6417071,98.3032638 32.0198411,97.3360906 32.4128623,96.6956739 M30.3616234,93.0925514 C31.1489419,92.2681463 31.5745022,92.0349943 32.1051233,92 C34.5200345,92.6945183 34.9085895,93.8390244 34.9989759,95.3253151 C35.0187545,95.9382517 34.7495095,97.0091196 34.4111455,97.6634911 C33.0030322,100.266808 30.5264456,100.202401 29.5319829,99.7766731 C27.4986085,99.2558381 28.0011568,97.2566558 28.2125545,96.6458661 C28.6259924,95.2317108 29.3620565,94.0713177 30.3616234,93.0925514" id="Fill-56" fill="#FFFFFF"></path>
                    <path d="M39.7268388,100.229639 C39.7802679,99.7045666 39.9464138,98.4291651 40.0403835,98.0734853 C40.0996711,97.8486794 40.0942813,97.6281534 40.0942813,97.6281534 C40.0141376,97.6085561 39.8194024,97.7004607 39.5201523,97.8669252 C38.2931568,98.7235751 36.9595372,100.711012 37.2997965,100.953613 C37.5203089,101.08674 38.2797995,101.032903 39.0135128,100.75336 C39.6675511,100.454445 39.7474605,100.474042 39.7268388,100.229639 M42.1918438,90.245376 C42.231447,90.0958058 42.4114188,90.0597648 42.5911563,90.023949 C43.0305407,89.8919488 43.7464444,90.3255673 43.9526621,90.8344214 C44.228947,91.2405586 43.2196518,94.8219096 42.8932185,96.0581166 C42.2405862,98.5303052 42.1278694,99.2801836 42.0945934,101.584556 C41.9877351,102.634927 41.9678163,102.709937 41.5687381,102.931589 C41.3491631,103.117426 40.4490695,102.897801 40.188251,102.594831 C40.0481166,102.480851 40.0481166,102.480851 39.8683791,102.516892 C39.4693009,102.738319 38.055069,102.852074 37.3745504,102.606319 C35.1795032,102.210544 35.1462271,101.046194 35,100.631722 C35.2390251,98.5969811 36.5852989,97.4499756 37.0987342,97.0370807 C37.9512571,96.3081511 39.378612,95.579672 40.1725503,95.3945113 C40.5322596,95.3228798 40.5273385,95.3413508 40.7398834,94.5362845 C41.0663167,93.3000776 42.0723312,90.3757994 42.1918438,90.245376" id="Fill-58" fill="#FFFFFF"></path>
                </g>
            </g>
        </g>
    </g>
</svg>