<?xml version="1.0" encoding="UTF-8"?>
<svg width="143px" height="80px" viewBox="0 0 143 80" version="1.1" xmlns="http://www.w3.org/2000/svg" xmlns:xlink="http://www.w3.org/1999/xlink">
    <!-- Generator: Sketch 63 (92445) - https://sketch.com -->
    <title>Group 35</title>
    <desc>Created with Sketch.</desc>
    <defs>
        <polygon id="path-1" points="0 0.0481307087 93.4691933 0.0481307087 93.4691933 51.7952756 0 51.7952756"></polygon>
        <polygon id="path-3" points="0 0.0407086614 79.0356047 0.0407086614 79.0356047 43.8267713 0 43.8267713"></polygon>
    </defs>
    <g id="Page-1" stroke="none" stroke-width="1" fill="none" fill-rule="evenodd">
        <g id="輪播5" transform="translate(-241.000000, -7079.000000)">
            <g id="Group-56" transform="translate(100.000000, 7003.000000)">
                <g id="Group-35" transform="translate(141.000000, 76.000000)">
                    <g id="Group-8">
                        <g id="Group-3">
                            <mask id="mask-2" fill="white">
                                <use xlink:href="#path-1"></use>
                            </mask>
                            <g id="Clip-2"></g>
                            <path d="M93.4056744,18.5275795 L93.4056744,0.435674016 C93.4056744,0.221737008 93.2492893,0.0481307087 93.0565215,0.0481307087 L43.0040269,0.0481307087 C42.8112591,0.0481307087 42.6548739,0.221737008 -8.04036763e-05,0.435674016 L-8.04036763e-05,39.1089339 C42.6548739,39.3228709 42.8112591,39.4964772 43.0040269,39.4964772 L52.3955783,39.4964772 L52.5698533,51.3885087 C52.5756825,51.7864929 53.0769995,51.9457685 53.3039388,51.6216898 L61.7786873,39.5118315 L93.4691933,39.5118315 L93.4056744,18.5275795 Z" id="Fill-1" fill="#FF5072" mask="url(#mask-2)"></path>
                        </g>
                        <polygon id="Fill-4" fill="#FFFFF3" points="7.98882682 20 85.4804469 20 85.4804469 18.4 7.98882682 18.4"></polygon>
                        <polygon id="Fill-6" fill="#FFFFF3" points="7.98882682 29.6 85.4804469 29.6 85.4804469 28 7.98882682 28"></polygon>
                        <polygon id="Fill-7" fill="#FFFFF3" points="7.98882682 9.6 85.4804469 9.6 85.4804469 8 7.98882682 8"></polygon>
                    </g>
                    <g id="Group-8" transform="translate(63.910615, 36.000000)">
                        <g id="Group-3">
                            <mask id="mask-4" fill="white">
                                <use xlink:href="#path-3"></use>
                            </mask>
                            <g id="Clip-2"></g>
                            <path d="M42.6475139,0.0407086614 L0.295573192,0.0407086614 C0.13229188,0.0407086614 -3.401694e-05,0.187606299 -3.401694e-05,0.368629921 L-3.401694e-05,23.2195276 C-3.401694e-05,28.8530866 4.11533538,33.4200787 9.19185342,33.4200787 L26.7522483,33.4200787 L33.9323739,43.679874 C34.1242294,43.9540945 34.5485907,43.8193228 34.5535232,43.4825669 L34.7008166,33.4200787 L42.6475139,33.4200787 C42.8107952,33.4200787 42.9431211,33.2731811 79.0356047,33.0921575 L79.0356047,0.368629921 C42.9431211,0.187606299 42.8107952,0.0407086614 42.6475139,0.0407086614" id="Fill-1" fill="#54B2F0" mask="url(#mask-4)"></path>
                        </g>
                        <polygon id="Fill-4" fill="#FFFFF3" points="6.39106145 16.8 71.8994413 16.8 71.8994413 16 6.39106145 16"></polygon>
                        <polygon id="Fill-6" fill="#FFFFF3" points="6.39106145 24.8 71.8994413 24.8 71.8994413 24 6.39106145 24"></polygon>
                        <polygon id="Fill-7" fill="#FFFFF3" points="6.39106145 8 71.8994413 8 71.8994413 7.2 6.39106145 7.2"></polygon>
                    </g>
                </g>
            </g>
        </g>
    </g>
</svg>