<?xml version="1.0" encoding="UTF-8"?>
<svg width="225px" height="36px" viewBox="0 0 225 36" version="1.1" xmlns="http://www.w3.org/2000/svg" xmlns:xlink="http://www.w3.org/1999/xlink">
    <title>TOPsale</title>
    <g id="Page-1" stroke="none" stroke-width="1" fill="none" fill-rule="evenodd">
        <g id="輪播3" transform="translate(-125.000000, -752.000000)" fill="#F1535B" fill-rule="nonzero">
            <g id="Group-8" transform="translate(0.000000, 682.000000)">
                <path d="M133.824,105.768 C136.192,105.768 138.32,105.352 140.208,104.52 C142.096,103.688 143.776,102.664 145.248,101.448 C146.72,100.232 147.992,98.936 149.064,97.56 C150.136,96.184 151.024,94.952 151.728,93.864 C153.776,90.696 155.488,87.92 156.864,85.536 C158.24,83.152 159.568,81.168 160.848,79.584 C162.128,78 163.512,76.816 165,76.032 C166.488,75.248 168.352,74.856 170.592,74.856 C171.744,74.856 172.696,74.848 173.448,74.832 C174.2,74.816 174.8,74.776 175.248,74.712 C175.696,74.648 176.008,74.528 176.184,74.352 C176.36,74.176 176.448,73.944 176.448,73.656 C176.448,73.208 176.288,72.864 175.968,72.624 C175.648,72.384 175.296,72.264 174.912,72.264 C174.464,72.264 173.928,72.312 173.304,72.408 C172.68,72.504 171.904,72.552 170.976,72.552 C169.92,72.552 168.656,72.504 167.184,72.408 C165.712,72.312 164.08,72.264 162.288,72.264 C156.464,72.264 151.584,72.704 147.648,73.584 C143.712,74.464 140.544,75.576 138.144,76.92 C135.744,78.264 134.024,79.752 132.984,81.384 C131.944,83.016 131.424,84.6 131.424,86.136 C131.424,88.024 132.072,89.56 133.368,90.744 C134.664,91.928 136.624,92.52 139.248,92.52 C141.008,92.52 142.624,92.264 144.096,91.752 C145.568,91.24 146.84,90.544 147.912,89.664 C148.984,88.784 149.816,87.776 150.408,86.64 C151,85.504 151.296,84.312 151.296,83.064 L151.296,83.064 L151.296,82.2 C151.296,81.912 151.28,81.608 151.248,81.288 L151.248,81.288 L150.672,81.288 C150.704,81.608 150.72,81.928 150.72,82.248 L150.72,82.248 L150.72,83.16 C150.72,84.28 150.44,85.368 149.88,86.424 C149.32,87.48 148.544,88.416 147.552,89.232 C146.56,90.048 145.376,90.704 144,91.2 C142.624,91.696 141.104,91.944 139.44,91.944 C137.072,91.944 135.24,91.456 133.944,90.48 C132.648,89.504 132,88.056 132,86.136 C132,84.504 132.552,82.984 133.656,81.576 C134.76,80.168 136.384,78.944 138.528,77.904 C140.672,76.864 143.304,76.048 146.424,75.456 C149.544,74.864 153.12,74.568 157.152,74.568 C158.592,74.568 160.16,74.632 161.856,74.76 C163.552,74.888 165.12,74.952 166.56,74.952 L166.56,74.952 L166.56,75.048 C164.8,75.368 163.192,76.048 161.736,77.088 C160.28,78.128 158.912,79.384 157.632,80.856 C156.352,82.328 155.136,83.952 153.984,85.728 C152.832,87.504 151.688,89.296 150.552,91.104 C149.416,92.912 148.272,94.656 147.12,96.336 C145.968,98.016 144.744,99.512 143.448,100.824 C142.152,102.136 140.752,103.192 139.248,103.992 C137.744,104.792 136.096,105.192 134.304,105.192 C132.416,105.192 130.832,104.792 129.552,103.992 C128.272,103.192 127.552,102.024 127.392,100.488 C127.552,100.552 127.744,100.584 127.968,100.584 C128.384,100.584 128.752,100.44 129.072,100.152 C129.392,99.864 129.552,99.48 129.552,99 C129.552,98.488 129.384,98.064 129.048,97.728 C128.712,97.392 128.288,97.224 127.776,97.224 C127.04,97.224 126.472,97.472 126.072,97.968 C125.672,98.464 125.472,99.064 125.472,99.768 C125.472,100.888 125.736,101.832 126.264,102.6 C126.792,103.368 127.464,103.984 128.28,104.448 C129.096,104.912 130,105.248 130.992,105.456 C131.984,105.664 132.928,105.768 133.824,105.768 Z M178.058667,105.384 C179.498667,105.384 180.970667,105.04 182.474667,104.352 C183.978667,103.664 185.418667,102.8 186.794667,101.76 C188.170667,100.72 189.442667,99.576 190.610667,98.328 C191.778667,97.08 192.746667,95.896 193.514667,94.776 C194.154667,95.032 194.842667,95.256 195.578667,95.448 C196.314667,95.64 197.194667,95.736 198.218667,95.736 C198.826667,95.736 199.466667,95.656 200.138667,95.496 C200.810667,95.336 201.482667,95.112 202.154667,94.824 C202.826667,94.536 203.474667,94.184 204.098667,93.768 C204.722667,93.352 205.274667,92.888 205.754667,92.376 L205.754667,92.376 L205.466667,92.04 C204.442667,92.968 203.306667,93.72 202.058667,94.296 C200.810667,94.872 199.546667,95.16 198.266667,95.16 C197.370667,95.16 196.562667,95.088 195.842667,94.944 C195.122667,94.8 194.442667,94.584 193.802667,94.296 C194.538667,93.272 195.274667,92.104 196.010667,90.792 C196.746667,89.48 197.410667,88.104 198.002667,86.664 C198.594667,85.224 199.082667,83.776 199.466667,82.32 C199.850667,80.864 200.042667,79.496 200.042667,78.216 C200.042667,75.784 199.594667,73.944 198.698667,72.696 C197.802667,71.448 196.378667,70.824 194.426667,70.824 C193.594667,70.824 192.818667,70.992 192.098667,71.328 C191.378667,71.664 190.778667,72.056 190.298667,72.504 C189.146667,72.696 187.858667,73.168 186.434667,73.92 C185.010667,74.672 183.562667,75.64 182.090667,76.824 C180.618667,78.008 179.186667,79.368 177.794667,80.904 C176.402667,82.44 175.162667,84.096 174.074667,85.872 C172.986667,87.648 172.114667,89.504 171.458667,91.44 C170.802667,93.376 170.474667,95.336 170.474667,97.32 C170.474667,99.784 171.106667,101.744 172.370667,103.2 C173.634667,104.656 175.530667,105.384 178.058667,105.384 Z M192.698667,93.72 C188.730667,91.256 186.746667,87.544 186.746667,82.584 C186.746667,81.624 186.858667,80.68 187.082667,79.752 C187.306667,78.824 187.594667,77.944 187.946667,77.112 C188.298667,76.28 188.698667,75.52 189.146667,74.832 C189.594667,74.144 190.042667,73.56 190.490667,73.08 C190.682667,73.016 190.874667,72.984 191.066667,72.984 L191.066667,72.984 L191.642667,72.984 C192.410667,72.984 193.042667,73.096 193.538667,73.32 C194.034667,73.544 194.410667,73.84 194.666667,74.208 C194.922667,74.576 195.098667,75 195.194667,75.48 C195.290667,75.96 195.338667,76.472 195.338667,77.016 L195.338667,77.016 L195.914667,77.016 C195.914667,76.44 195.858667,75.872 195.746667,75.312 C195.634667,74.752 195.434667,74.256 195.146667,73.824 C194.858667,73.392 194.458667,73.048 193.946667,72.792 C193.434667,72.536 192.778667,72.408 191.978667,72.408 L191.978667,72.408 L191.306667,72.408 L191.210667,72.312 C191.562667,72.056 192.018667,71.84 192.578667,71.664 C193.138667,71.488 193.706667,71.4 194.282667,71.4 C195.082667,71.4 195.714667,71.584 196.178667,71.952 C196.642667,72.32 196.986667,72.784 197.210667,73.344 C197.434667,73.904 197.578667,74.52 197.642667,75.192 C197.706667,75.864 197.738667,76.504 197.738667,77.112 C197.738667,80.024 197.282667,82.904 196.370667,85.752 C195.458667,88.6 194.234667,91.256 192.698667,93.72 Z M178.730667,104.616 C177.866667,104.616 177.106667,104.416 176.450667,104.016 C175.794667,103.616 175.250667,103.096 174.818667,102.456 C174.386667,101.816 174.066667,101.104 173.858667,100.32 C173.650667,99.536 173.546667,98.76 173.546667,97.992 C173.546667,95.4 174.002667,92.768 174.914667,90.096 C175.826667,87.424 177.026667,84.936 178.514667,82.632 C180.002667,80.328 181.698667,78.336 183.602667,76.656 C185.506667,74.976 187.466667,73.832 189.482667,73.224 L189.482667,73.224 L189.578667,73.32 C188.906667,74.056 188.346667,74.848 187.898667,75.696 C187.450667,76.544 187.082667,77.384 186.794667,78.216 C186.506667,79.048 186.298667,79.872 186.170667,80.688 C186.042667,81.504 185.978667,82.264 185.978667,82.968 C185.978667,85.336 186.522667,87.488 187.610667,89.424 C188.698667,91.36 190.298667,92.952 192.410667,94.2 C191.802667,95.256 190.970667,96.392 189.914667,97.608 C188.858667,98.824 187.698667,99.952 186.434667,100.992 C185.170667,102.032 183.866667,102.896 182.522667,103.584 C181.178667,104.272 179.914667,104.616 178.730667,104.616 Z M225.941334,105.768 C228.629334,105.768 231.021334,105.504 233.117334,104.976 C235.213334,104.448 237.141334,103.648 238.901334,102.576 C240.661334,101.504 242.285334,100.16 243.773334,98.544 C245.261334,96.928 246.725334,95.032 248.165334,92.856 L248.165334,92.856 L247.781334,92.664 C245.253334,96.568 242.245334,99.632 238.757334,101.856 C235.269334,104.08 231.141334,105.192 226.373334,105.192 C224.933334,105.192 223.597334,105.152 222.365334,105.072 C221.133334,104.992 219.813334,104.84 218.405334,104.616 L218.405334,104.616 L218.405334,104.52 C220.805334,103.688 222.933334,102.456 224.789334,100.824 C226.645334,99.192 228.333334,97.36 229.853334,95.328 C231.373334,93.296 232.789334,91.152 234.101334,88.896 C235.413334,86.64 236.717334,84.464 238.013334,82.368 C239.309334,80.272 240.645334,78.36 242.021334,76.632 C243.397334,74.904 244.917334,73.56 246.581334,72.6 C247.285334,73.08 247.805334,73.688 248.141334,74.424 C248.477334,75.16 248.645334,76.104 248.645334,77.256 C248.645334,78.504 248.453334,79.744 248.069334,80.976 C247.685334,82.208 247.173334,83.32 246.533334,84.312 C245.893334,85.304 245.181334,86.104 244.397334,86.712 C243.613334,87.32 242.805334,87.624 241.973334,87.624 C241.461334,87.624 241.045334,87.496 240.725334,87.24 C240.405334,86.984 240.245334,86.584 240.245334,86.04 C240.245334,85.784 240.301334,85.56 240.413334,85.368 C240.525334,85.176 240.661334,84.984 240.821334,84.792 C240.725334,84.568 240.549334,84.384 240.293334,84.24 C240.037334,84.096 239.797334,84.024 239.573334,84.024 C239.093334,84.024 238.701334,84.192 238.397334,84.528 C238.093334,84.864 237.941334,85.256 237.941334,85.704 C237.941334,86.44 238.237334,87.04 238.829334,87.504 C239.421334,87.968 240.277334,88.2 241.397334,88.2 C242.453334,88.2 243.565334,87.952 244.733334,87.456 C245.901334,86.96 246.965334,86.296 247.925334,85.464 C248.885334,84.632 249.677334,83.672 250.301334,82.584 C250.925334,81.496 251.237334,80.344 251.237334,79.128 C251.237334,77.592 250.933334,76.248 250.325334,75.096 C249.717334,73.944 248.709334,72.968 247.301334,72.168 C247.941334,71.784 248.669334,71.44 249.485334,71.136 C250.301334,70.832 251.077334,70.552 251.813334,70.296 L251.813334,70.296 L251.717334,70.104 C249.925334,70.552 248.229334,71.128 246.629334,71.832 C245.893334,71.512 245.093334,71.264 244.229334,71.088 C243.365334,70.912 242.325334,70.824 241.109334,70.824 C238.741334,70.824 236.413334,71.096 234.125334,71.64 C231.837334,72.184 229.685334,72.928 227.669334,73.872 C225.653334,74.816 223.797334,75.92 222.101334,77.184 C220.405334,78.448 218.949334,79.8 217.733334,81.24 C216.517334,82.68 215.565334,84.16 214.877334,85.68 C214.189334,87.2 213.845334,88.696 213.845334,90.168 C213.845334,91 213.981334,91.776 214.253334,92.496 C214.525334,93.216 214.909334,93.848 215.405334,94.392 C215.901334,94.936 216.493334,95.368 217.181334,95.688 C217.869334,96.008 218.629334,96.168 219.461334,96.168 C220.805334,96.168 222.061334,95.84 223.229334,95.184 C224.397334,94.528 225.397334,93.68 226.229334,92.64 C227.061334,91.6 227.717334,90.448 228.197334,89.184 C228.677334,87.92 228.917334,86.696 228.917334,85.512 L228.917334,85.512 L228.917334,83.688 L228.341334,83.688 L228.341334,85.512 C228.341334,86.632 228.117334,87.792 227.669334,88.992 C227.221334,90.192 226.605334,91.28 225.821334,92.256 C225.037334,93.232 224.117334,94.032 223.061334,94.656 C222.005334,95.28 220.869334,95.592 219.653334,95.592 C218.245334,95.592 217.181334,95.176 216.461334,94.344 C215.741334,93.512 215.381334,92.328 215.381334,90.792 C215.381334,88.872 215.765334,87.056 216.533334,85.344 C217.301334,83.632 218.341334,82.064 219.653334,80.64 C220.965334,79.216 222.477334,77.928 224.189334,76.776 C225.901334,75.624 227.701334,74.656 229.589334,73.872 C231.477334,73.088 233.389334,72.48 235.325334,72.048 C237.261334,71.616 239.093334,71.4 240.821334,71.4 C241.589334,71.4 242.453334,71.456 243.413334,71.568 C244.373334,71.68 245.189334,71.896 245.861334,72.216 C243.909334,73.08 242.053334,74.424 240.293334,76.248 C238.533334,78.072 236.845334,80.128 235.229334,82.416 C233.613334,84.704 232.045334,87.072 230.525334,89.52 C229.005334,91.968 227.517334,94.24 226.061334,96.336 C224.605334,98.432 223.173334,100.216 221.765334,101.688 C220.357334,103.16 218.949334,104.056 217.541334,104.376 C216.421334,104.152 215.405334,103.952 214.493334,103.776 C213.581334,103.6 212.717334,103.456 211.901334,103.344 C211.085334,103.232 210.309334,103.144 209.573334,103.08 C208.837334,103.016 208.085334,102.984 207.317334,102.984 C206.357334,102.984 205.685334,103.112 205.301334,103.368 C204.917334,103.624 204.725334,103.96 204.725334,104.376 C204.725334,104.792 205.061334,105.128 205.733334,105.384 C206.405334,105.64 207.541334,105.768 209.141334,105.768 C211.637334,105.768 213.605334,105.608 215.045334,105.288 C216.485334,104.968 217.349334,104.808 217.637334,104.808 C218.853334,105.064 220.221334,105.288 221.741334,105.48 C223.261334,105.672 224.661334,105.768 225.941334,105.768 Z M268.234668,105.384 C270.250668,105.384 272.146668,105.008 273.922668,104.256 C275.698668,103.504 277.338668,102.52 278.842668,101.304 C280.346668,100.088 281.730668,98.72 282.994668,97.2 C284.258668,95.68 285.370668,94.152 286.330668,92.616 L286.330668,92.616 L286.042668,92.472 C285.178668,93.816 284.170668,95.184 283.018668,96.576 C281.866668,97.968 280.610668,99.248 279.250668,100.416 C277.890668,101.584 276.426668,102.576 274.858668,103.392 C273.290668,104.208 271.642668,104.712 269.914668,104.904 L269.914668,104.904 L269.818668,104.808 C270.394668,104.712 270.962668,104.504 271.522668,104.184 C272.082668,103.864 272.586668,103.472 273.034668,103.008 C273.482668,102.544 273.842668,102.032 274.114668,101.472 C274.386668,100.912 274.522668,100.328 274.522668,99.72 C274.522668,98.888 274.402668,98.136 274.162668,97.464 C273.922668,96.792 273.658668,96.136 273.370668,95.496 C273.050668,94.856 272.770668,94.216 272.530668,93.576 C272.290668,92.936 272.170668,92.264 272.170668,91.56 C272.170668,90.76 272.394668,90.08 272.842668,89.52 C273.290668,88.96 273.978668,88.68 274.906668,88.68 C275.642668,88.68 276.210668,88.896 276.610668,89.328 C277.010668,89.76 277.210668,90.296 277.210668,90.936 C277.210668,91.352 277.138668,91.808 276.994668,92.304 C276.850668,92.8 276.682668,93.224 276.490668,93.576 C277.258668,93.576 277.954668,93.384 278.578668,93 C279.202668,92.616 279.514668,92.008 279.514668,91.176 C279.514668,90.248 279.114668,89.504 278.314668,88.944 C277.514668,88.384 276.474668,88.104 275.194668,88.104 C274.490668,88.104 273.818668,88.208 273.178668,88.416 C272.538668,88.624 271.970668,88.92 271.474668,89.304 C270.978668,89.688 270.586668,90.16 270.298668,90.72 C270.010668,91.28 269.866668,91.912 269.866668,92.616 C269.866668,93.16 269.978668,93.744 270.202668,94.368 C270.426668,94.992 270.666668,95.624 270.922668,96.264 C271.178668,96.904 271.410668,97.552 271.618668,98.208 C271.826668,98.864 271.930668,99.496 271.930668,100.104 C271.930668,100.68 271.850668,101.256 271.690668,101.832 C271.530668,102.408 271.282668,102.912 270.946668,103.344 C270.610668,103.776 270.194668,104.128 269.698668,104.4 C269.202668,104.672 268.618668,104.808 267.946668,104.808 C266.890668,104.808 265.938668,104.528 265.090668,103.968 C264.242668,103.408 263.818668,102.568 263.818668,101.448 C263.818668,101.064 263.882668,100.688 264.010668,100.32 C264.138668,99.952 264.378668,99.672 264.730668,99.48 C264.794668,99.768 264.930668,100.008 265.138668,100.2 C265.346668,100.392 265.626668,100.488 265.978668,100.488 C266.426668,100.488 266.762668,100.328 266.986668,100.008 C267.210668,99.688 267.322668,99.304 267.322668,98.856 C267.322668,98.376 267.170668,98.016 266.866668,97.776 C266.562668,97.536 266.170668,97.416 265.690668,97.416 C264.762668,97.416 264.026668,97.752 263.482668,98.424 C262.938668,99.096 262.666668,99.848 262.666668,100.68 C262.666668,101.48 262.818668,102.176 263.122668,102.768 C263.426668,103.36 263.826668,103.848 264.322668,104.232 C264.818668,104.616 265.402668,104.904 266.074668,105.096 C266.746668,105.288 267.466668,105.384 268.234668,105.384 Z M298.693335,105.384 C299.813335,105.384 301.013335,104.944 302.293335,104.064 C303.573335,103.184 304.853335,102.088 306.133335,100.776 C307.413335,99.464 308.637335,98.048 309.805335,96.528 C310.973335,95.008 311.989335,93.592 312.853335,92.28 L312.853335,92.28 L312.565335,92.184 C311.413335,93.912 310.197335,95.544 308.917335,97.08 C307.637335,98.616 306.389335,99.96 305.173335,101.112 C303.957335,102.264 302.829335,103.168 301.789335,103.824 C300.749335,104.48 299.893335,104.808 299.221335,104.808 C298.357335,104.808 297.925335,104.392 297.925335,103.56 C297.925335,102.984 298.181335,102.192 298.693335,101.184 C299.205335,100.176 299.885335,99.008 300.733335,97.68 C301.581335,96.352 302.549335,94.904 303.637335,93.336 C304.725335,91.768 305.861335,90.152 307.045335,88.488 L307.045335,88.488 L303.925335,88.488 L302.341335,91.32 L302.245335,91.32 C302.149335,90.904 302.013335,90.504 301.837335,90.12 C301.661335,89.736 301.413335,89.392 301.093335,89.088 C300.773335,88.784 300.373335,88.544 299.893335,88.368 C299.413335,88.192 298.853335,88.104 298.213335,88.104 C296.869335,88.104 295.445335,88.568 293.941335,89.496 C292.437335,90.424 291.045335,91.584 289.765335,92.976 C288.485335,94.368 287.429335,95.856 286.597335,97.44 C285.765335,99.024 285.349335,100.472 285.349335,101.784 C285.349335,102.712 285.589335,103.544 286.069335,104.28 C286.549335,105.016 287.381335,105.384 288.565335,105.384 C289.269335,105.384 290.005335,105.208 290.773335,104.856 C291.541335,104.504 292.285335,104.072 293.005335,103.56 C293.725335,103.048 294.397335,102.496 295.021335,101.904 C295.645335,101.312 296.165335,100.792 296.581335,100.344 L296.581335,100.344 L296.677335,100.392 C296.517335,100.84 296.365335,101.28 296.221335,101.712 C296.077335,102.144 296.005335,102.584 296.005335,103.032 C296.005335,103.672 296.221335,104.224 296.653335,104.688 C297.085335,105.152 297.765335,105.384 298.693335,105.384 Z M289.957335,104.232 C289.413335,104.232 288.989335,104.032 288.685335,103.632 C288.381335,103.232 288.229335,102.664 288.229335,101.928 C288.229335,100.488 288.589335,98.984 289.309335,97.416 C290.029335,95.848 290.917335,94.416 291.973335,93.12 C293.029335,91.824 294.149335,90.76 295.333335,89.928 C296.517335,89.096 297.589335,88.68 298.549335,88.68 C299.157335,88.68 299.669335,88.872 300.085335,89.256 C300.501335,89.64 300.709335,90.2 300.709335,90.936 C300.709335,91.864 300.517335,92.84 300.133335,93.864 C299.749335,94.888 299.253335,95.896 298.645335,96.888 C298.037335,97.88 297.341335,98.816 296.557335,99.696 C295.773335,100.576 294.981335,101.352 294.181335,102.024 C293.381335,102.696 292.613335,103.232 291.877335,103.632 C291.141335,104.032 290.501335,104.232 289.957335,104.232 Z M314.176002,105.384 C315.104002,105.384 316.136002,105.048 317.272002,104.376 C318.408002,103.704 319.760002,102.632 321.328002,101.16 C322.512002,100.04 323.744002,98.72 325.024002,97.2 C326.304002,95.68 327.520002,94.104 328.672002,92.472 L328.672002,92.472 L328.144002,92.28 C326.928002,94.008 325.680002,95.632 324.400002,97.152 C323.120002,98.672 321.864002,100 320.632002,101.136 C319.400002,102.272 318.248002,103.168 317.176002,103.824 C316.104002,104.48 315.168002,104.808 314.368002,104.808 C313.664002,104.808 313.312002,104.408 313.312002,103.608 C313.312002,103.224 313.416002,102.76 313.624002,102.216 C313.832002,101.672 314.208002,100.936 314.752002,100.008 C315.296002,99.08 316.048002,97.888 317.008002,96.432 C317.968002,94.976 319.200002,93.128 320.704002,90.888 C322.208002,88.648 324.016002,85.952 326.128002,82.8 C328.240002,79.648 330.720002,75.912 333.568002,71.592 L333.568002,71.592 L330.208002,71.592 C327.744002,75.496 325.568002,78.896 323.680002,81.792 C321.792002,84.688 320.152002,87.184 318.760002,89.28 C317.368002,91.376 316.200002,93.144 315.256002,94.584 C314.312002,96.024 313.552002,97.248 312.976002,98.256 C312.400002,99.264 311.992002,100.128 311.752002,100.848 C311.512002,101.568 311.392002,102.264 311.392002,102.936 C311.392002,103.672 311.608002,104.264 312.040002,104.712 C312.472002,105.16 313.184002,105.384 314.176002,105.384 Z M332.490669,105.384 C333.578669,105.384 334.690669,105.184 335.826669,104.784 C336.962669,104.384 338.090669,103.84 339.210669,103.152 C340.330669,102.464 341.410669,101.68 342.450669,100.8 C343.490669,99.92 344.466669,99.008 345.378669,98.064 C346.290669,97.12 347.106669,96.168 347.826669,95.208 C348.546669,94.248 349.146669,93.368 349.626669,92.568 L349.626669,92.568 L349.242669,92.328 C348.282669,93.896 347.130669,95.416 345.786669,96.888 C344.442669,98.36 343.034669,99.672 341.562669,100.824 C340.090669,101.976 338.642669,102.896 337.218669,103.584 C335.794669,104.272 334.554669,104.616 333.498669,104.616 C333.050669,104.616 332.674669,104.52 332.370669,104.328 C332.066669,104.136 331.826669,103.888 331.650669,103.584 C331.474669,103.28 331.346669,102.944 331.266669,102.576 C331.186669,102.208 331.146669,101.832 331.146669,101.448 C331.146669,100.648 331.258669,99.848 331.482669,99.048 C331.706669,98.248 331.994669,97.528 332.346669,96.888 C333.402669,96.664 334.618669,96.32 335.994669,95.856 C337.370669,95.392 338.658669,94.864 339.858669,94.272 C341.058669,93.68 342.074669,93.024 342.906669,92.304 C343.738669,91.584 344.154669,90.84 344.154669,90.072 C344.154669,89.432 343.930669,88.944 343.482669,88.608 C343.034669,88.272 342.410669,88.104 341.610669,88.104 C340.170669,88.104 338.666669,88.536 337.098669,89.4 C335.530669,90.264 334.090669,91.352 332.778669,92.664 C331.466669,93.976 330.386669,95.408 329.538669,96.96 C328.690669,98.512 328.266669,99.992 328.266669,101.4 C328.266669,102.68 328.634669,103.664 329.370669,104.352 C330.106669,105.04 331.146669,105.384 332.490669,105.384 Z M332.586669,96.36 C332.906669,95.656 333.378669,94.856 334.002669,93.96 C334.626669,93.064 335.322669,92.224 336.090669,91.44 C336.858669,90.656 337.634669,90 338.418669,89.472 C339.202669,88.944 339.930669,88.68 340.602669,88.68 C340.954669,88.68 341.250669,88.792 341.490669,89.016 C341.730669,89.24 341.850669,89.576 341.850669,90.024 C341.850669,90.856 341.498669,91.632 340.794669,92.352 C340.090669,93.072 339.250669,93.704 338.274669,94.248 C337.298669,94.792 336.282669,95.248 335.226669,95.616 C334.170669,95.984 333.290669,96.232 332.586669,96.36 Z" id="TOPsale"></path>
            </g>
        </g>
    </g>
</svg>