<svg width="16" height="16" viewBox="0 0 16 16" fill="none" xmlns="http://www.w3.org/2000/svg">
<path d="M5.57284 8.68356C5.57284 8.48639 5.41291 8.32666 5.21558 8.32666H3.96888C3.77178 8.32666 3.61182 8.48639 3.61182 8.68356L3.61182 9.93009C3.61182 10.1275 3.77178 10.2873 3.96888 10.2873H5.21558C5.41291 10.2873 5.57284 10.1275 5.57284 9.93009V8.68356Z" fill="black"/>
<path d="M8.68861 8.68356C8.68861 8.48639 8.52865 8.32666 8.3317 8.32666H7.08485C6.88774 8.32666 6.72778 8.48639 6.72778 8.68356V9.93009C6.72778 10.1275 6.88774 10.2873 7.08485 10.2873H8.3317C8.52865 10.2873 8.68861 10.1275 8.68861 9.93009V8.68356Z" fill="black"/>
<path d="M11.8043 8.68356C11.8043 8.48639 11.6443 8.32666 11.4472 8.32666H10.2005C10.0032 8.32666 9.84326 8.48639 9.84326 8.68356V9.93009C9.84326 10.1275 10.0032 10.2873 10.2005 10.2873H11.4472C11.6443 10.2873 11.8043 10.1275 11.8043 9.93009V8.68356Z" fill="black"/>
<path d="M5.57284 11.7997C5.57284 11.6022 5.41291 11.4426 5.21558 11.4426H3.96888C3.77178 11.4426 3.61182 11.6022 3.61182 11.7997L3.61182 13.046C3.61182 13.2433 3.77178 13.4031 3.96888 13.4031H5.21558C5.41291 13.4031 5.57284 13.2433 5.57284 13.046V11.7997Z" fill="black"/>
<path d="M8.68861 11.7997C8.68861 11.6022 8.52865 11.4426 8.3317 11.4426H7.08485C6.88774 11.4426 6.72778 11.6022 6.72778 11.7997V13.046C6.72778 13.2433 6.88774 13.4031 7.08485 13.4031H8.3317C8.52865 13.4031 8.68861 13.2433 8.68861 13.046V11.7997Z" fill="black"/>
<path d="M11.8043 11.7997C11.8043 11.6022 11.6443 11.4426 11.4474 11.4426H10.2005C10.0032 11.4426 9.84326 11.6022 9.84326 11.7997V13.046C9.84326 13.2433 10.0032 13.4031 10.2005 13.4031H11.4474C11.6443 13.4031 11.8043 13.2433 11.8043 13.046V11.7997Z" fill="black"/>
<path fill-rule="evenodd" clip-rule="evenodd" d="M14.0335 3.65641V1.75244C14.7855 1.77511 15.4034 2.39737 15.4034 3.16222L15.4034 14.3204C15.4034 15.0983 14.7707 15.7396 13.9926 15.7396L1.4235 15.7396C0.644278 15.7396 0.0126953 15.0996 0.0126953 14.3204L0.0126953 3.16222C0.0126953 2.39737 0.630639 1.77511 1.38265 1.75244L1.38265 3.65641C1.38265 4.51699 2.08075 5.21048 2.94117 5.21048L3.92456 5.21048C4.78494 5.21048 5.49229 4.51699 5.49229 3.65641V1.74561L9.92382 1.74561V3.65641C9.92382 4.51699 10.6312 5.21048 11.4917 5.21048L12.4749 5.21048C13.3354 5.21048 14.0335 4.51699 14.0335 3.65641ZM12.967 14.2356C13.3039 14.2356 13.5769 13.9624 13.5769 13.6257L13.5769 7.86207C13.5769 7.5252 13.3039 7.252 12.967 7.252L2.42242 7.252C2.0855 7.252 1.8125 7.5252 1.8125 7.86207L1.8125 13.6257C1.8125 13.9624 2.08554 14.2356 2.42242 14.2356L12.967 14.2356Z" fill="black"/>
<path d="M2.93761 4.18987H3.91014C4.20533 4.18987 4.44468 3.95088 4.44468 3.65569L4.44468 0.53437C4.44468 0.239149 4.20533 0 3.91014 0L2.93761 0C2.64239 0 2.40308 0.239149 2.40308 0.53437L2.40308 3.65569C2.40308 3.95088 2.64239 4.18987 2.93761 4.18987Z" fill="black"/>
<path d="M11.4792 4.18987H12.4517C12.7467 4.18987 12.9861 3.95088 12.9861 3.65569V0.53437C12.9861 0.239149 12.7467 0 12.4517 0L11.4792 0C11.184 0 10.9447 0.239149 10.9447 0.53437V3.65569C10.9447 3.95088 11.184 4.18987 11.4792 4.18987Z" fill="black"/>
</svg>
