<?xml version="1.0" encoding="utf-8"?>
<!-- Generator: Adobe Illustrator 23.0.6, SVG Export Plug-In . SVG Version: 6.00 Build 0)  -->
<svg version="1.1" id="圖層_1" xmlns="http://www.w3.org/2000/svg" xmlns:xlink="http://www.w3.org/1999/xlink" x="0px" y="0px"
	 viewBox="0 0 219.4 54.2" style="enable-background:new 0 0 219.4 54.2;" xml:space="preserve">
<style type="text/css">
	.st0{fill:#FFFFFF;}
	.st1{fill:url(#SVGID_1_);}
	.st2{fill:url(#SVGID_2_);}
	.st3{fill:url(#SVGID_3_);}
	.st4{fill:url(#SVGID_4_);}
</style>
<g>
	<g>
		<g>
			<path d="M80.9,12.3h2.8V27c-0.1,4.1-0.8,7.3-2.2,9.6c-0.8,1.4-1.9,2.4-3.1,3.2c-1.3,0.8-3.2,1.5-5.6,2.1l-1.7-2.7
				c1.8-0.2,3.4-0.6,5.1-1.4c2.9-1.6,4.5-4.8,4.7-9.6c-2.2,1.7-4.9,3.5-8.1,5.3l-1.5-2.6c4.1-2.2,7.3-4.2,9.6-6
				C80.9,24.9,80.9,12.3,80.9,12.3z M74.2,14.7c1.7,1.9,3.4,4.3,5.2,7.4L77,23.7c-1.9-3.2-3.6-5.6-5.1-7.3L74.2,14.7z M90.4,12.2v25
				c0,0.5,0.2,0.8,0.4,1.2c0.3,0.3,0.7,0.4,1.1,0.5h4.7c0.3,0,0.6-0.1,0.8-0.3c0.2-0.1,0.3-1.5,0.5-4.1l2.7,0.5
				c-0.2,3.5-0.5,5.3-0.9,5.6c-0.7,0.8-1.3,1.1-2,1.1h-7.5c-0.7,0-1.3-0.4-2-1c-0.5-0.6-0.8-1.2-0.8-1.9V12.2H90.4z M99.9,15.5
				c-1.5,2.4-3.7,4.9-6.4,7.6l-2.1-1.9c2.9-2.9,5-5.4,6.4-7.5L99.9,15.5z M93.2,24.7c2.3,1.4,4.8,3.4,7.6,6L99,32.8
				c-2.9-2.7-5.4-4.7-7.5-5.9L93.2,24.7z"/>
			<path d="M117.9,37.2h-4.4c-0.2,0-0.3-0.1-0.3-0.3v-5.2c0-0.2,0.1-0.3,0.3-0.3h23.6c0.2,0,0.4,0.1,0.4,0.3v5.2
				c0,0.2-0.1,0.3-0.4,0.3h-4.2l-0.9,2.1h8.1v2.5h-29.7v-2.5h8.4L117.9,37.2z M139.7,28.1v2.3h-28.9v-2.3H139.7z M127.8,23v-2h2.9
				v-1.6h-2.9v-2h2.9v-1.7h-3v-2h3V12h2.3v1.7h2.8v2H133v1.7h2.7v2H133V21h2.8v2H133v1.6h3.5c0.3,0,0.4-0.1,0.4-0.4V12.4h2.5v13.3
				c0,0.8-0.4,1.1-1.1,1.1h-25.9c-0.7,0-1.1-0.4-1.1-1.1V12.4h2.5v11.7c0,0.3,0.1,0.4,0.4,0.4h3.5V23h-2.9v-2h2.9v-1.7H115v-2h2.7
				v-1.6h-2.9v-2h2.9V12h2.3v1.7h2.6v2H120v1.6h2.6v2H120V21h2.7v2H120v1.6h4V12h2.5v12.5h4.2V23H127.8z M115.8,33.5
				C115.7,33.5,115.7,33.5,115.8,33.5l-0.1,1.4l0.1,0.1h19l0.1-0.1v-1.3l-0.1-0.1H115.8z M129.3,39.3l0.8-1.7l0.2-0.4h-9.7l0.9,2.1
				L129.3,39.3L129.3,39.3z"/>
			<path d="M153.4,25.3c-0.4,0.6-0.7,1.1-1.1,1.6l-2.6-1.1c2.9-4.1,4.7-8.7,5.5-13.7l2.7,0.5c-0.5,2.6-1.1,4.8-1.8,6.8v22.7h-2.8
				V25.3H153.4z M169.9,32.3V42h-2.8v-9.6c-2.7,3.2-5.4,5.6-8.1,7.1l-2-2.2c3.7-2.1,6.8-4.8,9.2-7.9h-8.5v-2.8h9.4v-3h-7.4
				c-0.2,0-0.4-0.1-0.4-0.4v-10c0-0.2,0.1-0.4,0.4-0.4h18c0.3,0,0.4,0.1,0.4,0.4v10.1c0,0.3-0.1,0.4-0.4,0.4h-7.9v3h9.7v2.8h-8.8
				c2.3,3.1,5.4,5.9,9.4,8.3l-2.2,2C175,37.7,172.2,35.2,169.9,32.3z M175.2,15.6h-13c-0.1,0-0.1,0-0.1,0.1v5.1c0,0.1,0,0.2,0.1,0.2
				h13c0.1,0,0.2-0.1,0.2-0.2v-5.1C175.4,15.6,175.3,15.6,175.2,15.6z"/>
			<path d="M192.4,34.7V42h-2.5V13c0-0.1,0-0.2,0.1-0.3c0,0,0.1-0.1,0.2-0.1h6.5l1.9,1l-1.2,7.7c-0.2,1.3-0.2,2.2,0,2.5
				c0.9,1.8,1.4,3.4,1.6,4.9c0.2,2.3-0.1,4-1.2,5.2c-0.5,0.6-1.2,1-1.9,1.1C195.1,35.2,194,35,192.4,34.7z M194.6,22.5l1.1-7.3h-3.1
				c-0.1,0-0.1,0-0.2,0.1c0,0-0.1,0.1-0.1,0.2v16.3c0.9,0.7,1.8,1,2.6,1c0.4-0.1,0.7-0.2,0.9-0.5c1.1-1.4,0.7-4.3-1.2-8.7
				C194.5,23.4,194.5,23,194.6,22.5z M202.9,37.3c-0.9,1.8-2,3.4-3.3,4.7l-2.4-1.5c2.5-2.6,4.2-5.4,5.1-8.6l2.5,0.8
				c-0.3,0.8-0.6,1.6-0.9,2.3c1.4,1.2,2.8,2.6,4.1,3.9l-2,1.9C205.2,39.8,204.1,38.6,202.9,37.3z M202.6,18.8
				c-1,0.5-2.1,1.1-3.1,1.6l-1.5-2.5c5-1.9,8.2-3.9,9.7-6l2.6,0.5c-0.1,0.2-0.2,0.4-0.3,0.5c2.8,2,6,3.5,9.4,4.3l-1.4,2.6
				c-1.3-0.5-2.5-1-3.6-1.5v2.2h-11.6v-1.7H202.6z M208.2,30.7c0,0.2-0.1,0.4-0.4,0.4h-7.4c-0.2,0-0.4-0.1-0.4-0.4v-8
				c0-0.2,0.1-0.3,0.4-0.3h2.3h5.1c0.2,0,0.4,0.1,0.4,0.3L208.2,30.7L208.2,30.7z M205.5,24.7h-2.9c-0.1,0-0.1,0-0.1,0.1v3.8
				c0,0.1,0,0.1,0.1,0.1h2.9c0.1,0,0.1-0.1,0.1-0.1v-3.8C205.6,24.7,205.6,24.7,205.5,24.7z M203.7,18.2h10.2
				c-1.9-1-3.7-2.1-5.5-3.4C207.4,15.9,205.8,17,203.7,18.2z M214.1,35.7c1.7,1.5,3.3,3,4.8,4.7l-2,1.9c-1.1-1.3-2.4-2.7-3.9-4.3
				c-0.4,1.2-1.3,2.6-2.6,4.1l-2.6-1.3c2.2-2.6,3.7-5.4,4.5-8.6l2.6,0.7C214.8,33.9,214.5,34.8,214.1,35.7z M217.7,30.7
				c0,0.2-0.1,0.4-0.4,0.4h-7.4c-0.2,0-0.4-0.1-0.4-0.4v-7.9c0-0.2,0.1-0.3,0.4-0.3h2.3h5.1c0.2,0,0.4,0.1,0.4,0.3L217.7,30.7
				L217.7,30.7z M215.1,24.8h-2.9c-0.1,0-0.1,0-0.1,0.1v3.6c0,0.1,0,0.1,0.1,0.1h2.9c0.1,0,0.1-0.1,0.1-0.1v-3.6
				C215.2,24.8,215.1,24.8,215.1,24.8z"/>
		</g>
	</g>
	<g>
		<g>
			<path class="st0" d="M0.1,27.1C0.1,12.2,12.2,0,27.1,0c15,0,27.1,12.1,27.1,27.1S42.1,54.2,27.1,54.2S0.1,42.1,0.1,27.1z"/>
		</g>
		
			<linearGradient id="SVGID_1_" gradientUnits="userSpaceOnUse" x1="-11823.0977" y1="-27761.7852" x2="-12526.2852" y2="-27761.7852" gradientTransform="matrix(-6.050000e-02 0 0 -6.050000e-02 -708.6044 -1666.0381)">
			<stop  offset="0" style="stop-color:#FFFFFF"/>
			<stop  offset="0.1917" style="stop-color:#DECCA2"/>
			<stop  offset="0.4127" style="stop-color:#B99841"/>
			<stop  offset="0.5112" style="stop-color:#AB8420"/>
			<stop  offset="0.6285" style="stop-color:#A78122"/>
			<stop  offset="0.7557" style="stop-color:#9C7626"/>
			<stop  offset="0.8871" style="stop-color:#89642C"/>
			<stop  offset="1" style="stop-color:#755330"/>
		</linearGradient>
		<path class="st1" d="M7.3,14.8c4.9-3.5,12-5.7,19.8-5.7s14.8,2.2,19.8,5.7c4.5,3.2,7.3,7.6,7.3,12.3c0-10.1-5.5-18.9-13.7-23.6
			c-3.8-2.1-8-3.4-12.6-3.5c0,0,0,0-0.1,0c-0.2,0-0.4,0-0.7,0l0,0l0,0c-0.2,0-0.4,0-0.7,0l0,0c-4.6,0.1-8.9,1.4-12.6,3.5
			c-4,2.5-6.5,6.1-6.5,10C7.2,14,7.2,14.4,7.3,14.8z"/>
		
			<linearGradient id="SVGID_2_" gradientUnits="userSpaceOnUse" x1="-12234.6895" y1="-27617.0391" x2="-12519.6943" y2="-28288.4668" gradientTransform="matrix(-6.050000e-02 0 0 -6.050000e-02 -708.6044 -1666.0381)">
			<stop  offset="0" style="stop-color:#FFFFFF"/>
			<stop  offset="7.560000e-02" style="stop-color:#EFE7D3"/>
			<stop  offset="0.1975" style="stop-color:#D7C28F"/>
			<stop  offset="0.307" style="stop-color:#C4A65B"/>
			<stop  offset="0.4" style="stop-color:#B6933A"/>
			<stop  offset="0.473" style="stop-color:#AE8826"/>
			<stop  offset="0.5169" style="stop-color:#AB8420"/>
			<stop  offset="0.7846" style="stop-color:#8A652C"/>
			<stop  offset="1" style="stop-color:#755330"/>
		</linearGradient>
		<path class="st2" d="M46.8,39.5c0.1,0.4,0.1,0.8,0.1,1.2c0,4-2.5,7.6-6.5,10c8.2-4.7,13.7-13.5,13.7-23.6c0-4.8-2.8-9.1-7.3-12.3
			c-4.9-3.5-12-5.7-19.8-5.7v18.1C37.4,27.1,45.9,32.5,46.8,39.5z"/>
		
			<linearGradient id="SVGID_3_" gradientUnits="userSpaceOnUse" x1="12330.8145" y1="29019.0859" x2="11627.6055" y2="29019.0859" gradientTransform="matrix(6.050000e-02 0 0 6.050000e-02 -698.5689 -1715.0046)">
			<stop  offset="0" style="stop-color:#FFFFFF"/>
			<stop  offset="0.1917" style="stop-color:#DECCA2"/>
			<stop  offset="0.4127" style="stop-color:#B99841"/>
			<stop  offset="0.5112" style="stop-color:#AB8420"/>
			<stop  offset="0.6285" style="stop-color:#A78122"/>
			<stop  offset="0.7557" style="stop-color:#9C7626"/>
			<stop  offset="0.8871" style="stop-color:#89642C"/>
			<stop  offset="1" style="stop-color:#755330"/>
		</linearGradient>
		<path class="st3" d="M46.8,39.5c-4.9,3.5-12,5.7-19.8,5.7S12.2,43,7.2,39.5C2.7,36.2,0,31.9,0,27.1C0,37.2,5.5,46,13.7,50.7
			c3.7,2.1,8,3.4,12.6,3.5l0,0c0.2,0,0.5,0,0.7,0l0,0l0,0c0.2,0,0.5,0,0.7,0c0,0,0,0,0.1,0c4.6-0.1,8.9-1.4,12.6-3.5
			c4-2.5,6.5-6.1,6.5-10C46.9,40.2,46.9,39.8,46.8,39.5z"/>
		
			<linearGradient id="SVGID_4_" gradientUnits="userSpaceOnUse" x1="11918.4893" y1="29164.4277" x2="11633.5137" y2="28493.0684" gradientTransform="matrix(6.050000e-02 0 0 6.050000e-02 -698.5689 -1715.0046)">
			<stop  offset="0" style="stop-color:#FFFFFF"/>
			<stop  offset="7.560000e-02" style="stop-color:#EFE7D3"/>
			<stop  offset="0.1975" style="stop-color:#D7C28F"/>
			<stop  offset="0.307" style="stop-color:#C4A65B"/>
			<stop  offset="0.4" style="stop-color:#B6933A"/>
			<stop  offset="0.473" style="stop-color:#AE8826"/>
			<stop  offset="0.5169" style="stop-color:#AB8420"/>
			<stop  offset="0.7846" style="stop-color:#8A652C"/>
			<stop  offset="1" style="stop-color:#755330"/>
		</linearGradient>
		<path class="st4" d="M7.3,14.8c0-0.4-0.1-0.8-0.1-1.2c0-4,2.5-7.6,6.5-10C5.5,8.2,0,17,0,27.1c0,4.8,2.8,9.1,7.3,12.3
			c4.9,3.5,12,5.7,19.8,5.7v-18C16.7,27.1,8.2,21.7,7.3,14.8z"/>
	</g>
</g>
</svg>
