<svg width="24" height="32" viewBox="0 0 24 32" fill="none" xmlns="http://www.w3.org/2000/svg">
<path d="M8.5412 17.8711H11.3713C13.674 17.8711 15.0451 19.0312 15.0451 20.877C15.0451 22.8984 13.3576 24.252 10.9845 24.252C8.24237 24.252 6.85371 22.5996 7.04707 20.6484H1.10571C1.03539 21 1.00024 21.2988 1.00024 21.5801C0.965083 26.1152 4.81466 29.2266 10.9845 29.2266C16.9083 29.2266 21.3028 25.9395 21.3028 21.2988C21.3028 18.6621 19.6681 16.6758 16.9259 16.0078L16.9435 15.8848C20.4239 15.4277 22.92 13.0371 22.92 9.99609C22.92 5.9707 19.1935 3 13.8146 3C8.36542 3 4.41037 5.93555 3.44358 10.6465H9.27947C9.75408 8.99414 11.2658 7.93945 13.2697 7.93945C15.4318 7.93945 16.8029 9.0293 16.8029 10.6816C16.8029 12.4395 15.1329 13.4766 12.4787 13.4766H9.47283L8.5412 17.8711Z" fill="url(#paint0_linear)"/>
<defs>
<linearGradient id="paint0_linear" x1="-9.96" y1="16.1133" x2="15.8502" y2="37.6853" gradientUnits="userSpaceOnUse">
<stop stop-color="#D57F91"/>
<stop offset="0.157315" stop-color="#D67FAB"/>
<stop offset="0.516363" stop-color="#B65095"/>
<stop offset="1" stop-color="#922E8E"/>
</linearGradient>
</defs>
</svg>
