<svg width="18" height="18" viewBox="0 0 18 18" fill="none" xmlns="http://www.w3.org/2000/svg">
<rect x="0.75" y="3.75012" width="7.2" height="1.26" rx="0.63" fill="#EF4F4F"/>
<rect x="0.75" y="12.7502" width="7.2" height="1.26" rx="0.63" fill="#EF4F4F"/>
<rect x="0.75" y="8.25024" width="7.2" height="1.26" rx="0.63" fill="#EF4F4F"/>
<path d="M10.6499 4.65002C10.6499 4.65002 16.0499 5.15325 16.0499 8.70002C16.0499 12.2468 10.6499 12.9628 10.6499 12.9628" stroke="#EF4F4F" stroke-linecap="round" stroke-linejoin="round"/>
<path d="M13.0024 10.3837L13.3771 10.7148C13.4649 10.6155 13.5097 10.4853 13.5015 10.3529C13.4933 10.2206 13.4329 10.0969 13.3336 10.0091L13.0024 10.3837ZM12.9362 10.4586L13.3109 10.7898L13.3109 10.7898L12.9362 10.4586ZM12.8526 10.2513L13.1837 9.87661C12.9768 9.69374 12.6608 9.71322 12.478 9.92012L12.8526 10.2513ZM12.7864 10.3262L13.161 10.6573L13.161 10.6573L12.7864 10.3262ZM10.5714 12.8322L10.2984 13.251C10.5062 13.3865 10.7818 13.3491 10.9461 13.1633L10.5714 12.8322ZM10.5598 12.8246L10.8328 12.4057C10.7217 12.3333 10.5864 12.308 10.4567 12.3353C10.3269 12.3627 10.2133 12.4405 10.1409 12.5516L10.5598 12.8246ZM10.5083 12.9036L10.883 13.2347C10.8991 13.2164 10.9139 13.197 10.9272 13.1766L10.5083 12.9036ZM10.4479 12.9719L10.0733 12.6407C9.98549 12.7401 9.94074 12.8703 9.9489 13.0026C9.95706 13.135 10.0175 13.2587 10.1168 13.3465L10.4479 12.9719ZM10.458 12.9808L10.8769 13.2538C11.0123 13.046 10.975 12.7704 10.7891 12.6061L10.458 12.9808ZM10.4506 12.9921L10.0317 12.7191C9.88093 12.9505 9.94624 13.2602 10.1776 13.411L10.4506 12.9921ZM10.5278 13.0425L10.859 12.6678C10.8407 12.6517 10.8213 12.6369 10.8008 12.6236L10.5278 13.0425ZM10.5978 13.1043L10.2667 13.4789C10.4736 13.6618 10.7896 13.6423 10.9724 13.4354L10.5978 13.1043ZM10.6069 13.094L10.8799 12.6751C10.6722 12.5397 10.3965 12.5771 10.2323 12.7629L10.6069 13.094ZM13.1047 14.722L12.8317 15.1409L12.8317 15.1409L13.1047 14.722ZM13.1885 14.7766L12.9155 15.1955C13.1468 15.3463 13.4566 15.2809 13.6074 15.0496L13.1885 14.7766ZM13.2977 14.609L13.7166 14.8821C13.789 14.771 13.8143 14.6356 13.787 14.5059C13.7596 14.3761 13.6818 14.2626 13.5707 14.1902L13.2977 14.609ZM13.2139 14.5544L12.9409 14.9733L12.9409 14.9733L13.2139 14.5544ZM10.7408 12.9425L10.3662 12.6114C10.2699 12.7203 10.2258 12.8657 10.2453 13.0097C10.2648 13.1537 10.346 13.2821 10.4678 13.3614L10.7408 12.9425ZM12.6278 10.0526L12.5616 10.1275L13.3109 10.7898L13.3771 10.7148L12.6278 10.0526ZM12.5215 10.6259L12.6713 10.7583L13.3336 10.0091L13.1837 9.87661L12.5215 10.6259ZM13.161 10.6573L13.2272 10.5824L12.478 9.92012L12.4117 9.99505L13.161 10.6573ZM10.9461 13.1633L13.161 10.6573L12.4117 9.99505L10.1968 12.501L10.9461 13.1633ZM10.2868 13.2435L10.2984 13.251L10.8444 12.4133L10.8328 12.4057L10.2868 13.2435ZM10.9272 13.1766L10.9787 13.0976L10.1409 12.5516L10.0894 12.6305L10.9272 13.1766ZM10.8226 13.303L10.883 13.2347L10.1337 12.5724L10.0733 12.6407L10.8226 13.303ZM10.7891 12.6061L10.7791 12.5972L10.1168 13.3465L10.1269 13.3554L10.7891 12.6061ZM10.8695 13.2651L10.8769 13.2538L10.0391 12.7077L10.0317 12.7191L10.8695 13.2651ZM10.8008 12.6236L10.7236 12.5732L10.1776 13.411L10.2548 13.4613L10.8008 12.6236ZM10.9289 12.7297L10.859 12.6678L10.1967 13.4171L10.2667 13.4789L10.9289 12.7297ZM10.2323 12.7629L10.2232 12.7732L10.9724 13.4354L10.9815 13.4251L10.2323 12.7629ZM13.3777 14.3031L10.8799 12.6751L10.3339 13.5129L12.8317 15.1409L13.3777 14.3031ZM13.4615 14.3577L13.3777 14.3031L12.8317 15.1409L12.9155 15.1955L13.4615 14.3577ZM12.8788 14.336L12.7696 14.5036L13.6074 15.0496L13.7166 14.8821L12.8788 14.336ZM12.9409 14.9733L13.0247 15.0279L13.5707 14.1902L13.4869 14.1356L12.9409 14.9733ZM10.4678 13.3614L12.9409 14.9733L13.4869 14.1356L11.0138 12.5237L10.4678 13.3614ZM12.5616 10.1275L10.3662 12.6114L11.1154 13.2737L13.3109 10.7898L12.5616 10.1275Z" fill="#EF4F4F"/>
</svg>
