<svg width="16" height="16" viewBox="0 0 16 16" fill="none" xmlns="http://www.w3.org/2000/svg">
<path d="M13.708 9.6875C13.708 9.51562 13.6299 9.35156 13.4893 9.21875L9.45801 5.19531C9.31738 5.0625 9.16113 5 8.99707 5C8.65332 5 8.3877 5.25781 8.3877 5.60938C8.3877 5.77344 8.44238 5.9375 8.55957 6.04688L9.6377 7.16406L11.8564 9.16406L10.3408 9.05469H2.96582C2.59863 9.05469 2.34082 9.32031 2.34082 9.6875C2.34082 10.0547 2.59863 10.3203 2.96582 10.3203H10.3408L11.8643 10.2109L9.6377 12.2109L8.55957 13.3281C8.44238 13.4375 8.3877 13.6016 8.3877 13.7656C8.3877 14.1172 8.65332 14.375 8.99707 14.375C9.16113 14.375 9.31738 14.3125 9.45801 14.1797L13.4893 10.1562C13.6299 10.0234 13.708 9.85938 13.708 9.6875Z" fill="white"/>
</svg>
