<svg width="32" height="32" viewBox="0 0 32 32" fill="none" xmlns="http://www.w3.org/2000/svg">
<path d="M27.8667 2.66667H4.13341C3.74443 2.66667 3.37138 2.8212 3.09632 3.09625C2.82127 3.3713 2.66675 3.74435 2.66675 4.13334V27.8667C2.66675 28.0593 2.70468 28.25 2.77839 28.4279C2.8521 28.6059 2.96013 28.7676 3.09632 28.9038C3.23252 29.04 3.3942 29.148 3.57215 29.2217C3.75009 29.2954 3.94081 29.3333 4.13341 29.3333H16.9067V19H13.4401V15H16.9067V12C16.8349 11.2957 16.9181 10.5842 17.1504 9.91539C17.3827 9.2466 17.7584 8.63673 18.2514 8.12855C18.7443 7.62037 19.3424 7.22619 20.0038 6.97366C20.6653 6.72112 21.3739 6.61634 22.0801 6.66667C23.1179 6.66029 24.1551 6.71371 25.1867 6.82667V10.4267H23.0667C21.3867 10.4267 21.0667 11.2267 21.0667 12.3867V14.96H25.0667L24.5467 18.96H21.0667V29.3333H27.8667C28.0594 29.3333 28.2501 29.2954 28.428 29.2217C28.606 29.148 28.7676 29.04 28.9038 28.9038C29.04 28.7676 29.1481 28.6059 29.2218 28.4279C29.2955 28.25 29.3334 28.0593 29.3334 27.8667V4.13334C29.3334 3.94073 29.2955 3.75001 29.2218 3.57207C29.1481 3.39413 29.04 3.23244 28.9038 3.09625C28.7676 2.96006 28.606 2.85202 28.428 2.77832C28.2501 2.70461 28.0594 2.66667 27.8667 2.66667Z" fill="#EF4F4F"/>
</svg>
