<svg xmlns="http://www.w3.org/2000/svg" xmlns:xlink="http://www.w3.org/1999/xlink" width="72" height="35" viewBox="0 0 72 35">
    <defs>
        <path id="prefix__a" d="M0 0.774L0 23.861 36.588 23.861 36.588 0.774 0 0.774z"/>
        <path id="prefix__c" d="M0.344 11.194L12.982 11.194 12.982 0.39 0.344 0.39 0.344 11.194z"/>
    </defs>
    <g fill="none" fill-rule="evenodd">
        <g transform="translate(17 2.087)">
            <mask id="prefix__b" fill="#fff">
                <use xlink:href="#prefix__a"/>
            </mask>
            <path fill="#FFF" d="M33.86 18.408c-.521.84-1.621 1.273-3.1 1.202-.498-.026-.966.273-1.156.74-.411 1.003-1.103 1.158-1.613 1.118-.563-.048-1.185-.385-1.598-.957.052.001.097.011.148.011.434 0 .885-.034 1.355-.104.652-.094 1.102-.7 1.007-1.353-.095-.652-.707-1.098-1.353-1.007-1.434.21-2.56-.011-3.343-.66-1.281-1.06-1.377-2.99-1.378-3.002-.016-.535-.387-.993-.906-1.12-.517-.128-1.06.104-1.323.569-.88 1.55-1.965 2.43-3.319 2.69-1.305.254-2.67-.104-3.797-.587-.029-.016-.059-.03-.09-.042-1.404-.62-2.418-1.417-2.437-1.432-.514-.412-1.264-.33-1.676.183-.412.513-.332 1.264.181 1.677.08.064 1 .789 2.366 1.467.093 1.407-.341 2.343-1.233 2.603-.84.246-2.028-.14-2.453-1.11-.232-.527-.808-.813-1.367-.682-1.571.373-2.882.036-3.69-.944-.755-.916-.916-2.233-.41-3.357.696-1.545 2.52-2.481 5.004-2.568.616-.022 1.116-.511 1.15-1.129.026-.51.295-.998.736-1.341.525-.41 1.23-.552 1.981-.404.325.065.667-.01.936-.208.269-.197.444-.497.48-.83.37-3.303 3.512-4.84 6.416-4.657 2.546.162 5.498 1.708 5.437 5.53-.008.484.278.925.723 1.116.443.19.96.094 1.307-.246 1.106-1.086 2.495-.955 3.3-.263.844.727.848 1.852.007 3.01-.262.363-.3.842-.097 1.24.202.4.612.651 1.059.653 1.187.004 2.175.559 2.709 1.522.485.874.5 1.923.036 2.672m2.05-3.83c-.657-1.186-1.715-2.042-2.982-2.462.632-1.896-.051-3.603-1.226-4.614-1.16-1-2.985-1.448-4.704-.809-.858-3.767-4.254-5.695-7.468-5.9-3.704-.23-7.68 1.631-8.727 5.634-.997.033-1.929.36-2.702.963-.69.536-1.192 1.248-1.454 2.038C3.694 9.76 1.48 11.154.5 13.33c-.877 1.946-.584 4.245.745 5.855 1.23 1.49 3.093 2.162 5.204 1.906 1.083 1.432 3.028 2.124 4.817 1.602 1.404-.411 2.753-1.666 2.937-3.991 1.103.287 2.308.41 3.517.178 1.28-.244 2.41-.839 3.377-1.775.329.729.824 1.49 1.567 2.113.302.252.633.458.98.637-.003.096.002.195.023.294.44 2.004 2.134 3.524 4.118 3.695.12.01.238.016.354.016 1.355 0 2.548-.684 3.293-1.866 2.67-.115 3.928-1.479 4.456-2.332.926-1.493.933-3.443.021-5.085" mask="url(#prefix__b)"/>
        </g>
        <g transform="translate(28.194 21.032)">
            <mask id="prefix__d" fill="#fff">
                <use xlink:href="#prefix__c"/>
            </mask>
            <path fill="#FFF" d="M12.403 3.524c-.566-.338-1.299-.156-1.637.409-.754 1.259-1.179 3.521-1.375 4.875H7.585c-.015-3.95.992-6.786 1.003-6.816.226-.618-.091-1.303-.71-1.53-.617-.225-1.304.09-1.53.71-.052.141-1.167 3.247-1.15 7.636H3.772c-.174-.98-.51-2.522-1.116-4.146-.23-.617-.916-.93-1.535-.7-.617.23-.931.916-.7 1.534.884 2.373 1.135 4.611 1.137 4.634.066.605.578 1.064 1.187 1.064h7.699c.612 0 1.125-.463 1.187-1.072.142-1.393.588-3.97 1.183-4.961.338-.565.155-1.298-.41-1.637" mask="url(#prefix__d)"/>
        </g>
        <path d="M0 0H72V35H0z"/>
    </g>
</svg>
