<svg xmlns="http://www.w3.org/2000/svg" width="72" height="35" viewBox="0 0 72 35">
    <g fill="none" fill-rule="evenodd">
        <path d="M0 0H72V35H0z"/>
        <path fill="#FFF" d="M49.585 8.264c-.033-.72-.638-1.275-1.362-1.243-.72.033-1.277.643-1.244 1.363.287 6.206.767 17.01.767 19.63 0 2.043-1.114 3.078-3.309 3.078H26.92c-2.197 0-3.31-1.035-3.31-3.078 0-3.132.689-18.037.897-22.465h23.585c.72 0 1.304-.583 1.304-1.304 0-.72-.583-1.304-1.304-1.304H23.262c-.696 0-1.269.547-1.303 1.242-.04.819-.959 20.1-.959 23.831 0 3.455 2.324 5.686 5.92 5.686h17.517c3.595 0 5.917-2.231 5.917-5.686 0-2.673-.481-13.521-.77-19.75"/>
        <path fill="#FFF" d="M25.184 25.383l-.165 2.1c-.028.363.096.721.342.987.247.268.594.42.958.42h18.734c.72 0 1.304-.584 1.304-1.304 0-.111-.014-.219-.04-.321l-.144-1.88c-.054-.68-.62-1.204-1.3-1.204h-18.39c-.68 0-1.246.524-1.3 1.202M41.646 22.109c.316.647 1.098.916 1.745.599.647-.317.915-1.097.599-1.744l-1.893-3.874c-.156-.317-.431-.557-.767-.667-.334-.109-.7-.079-1.012.085l-5.937 3.118c-.542.285-.813.91-.65 1.501l.287 1.04c.159.58.684.958 1.255.958.116 0 .233-.015.349-.047.693-.19 1.102-.909.91-1.603l-.008-.029 3.819-2.004 1.303 2.667zM33.634 16.514l-4.023-.397c-.561-.057-1.122.273-1.339.811l-1.64 4.084c-.27.668.055 1.428.724 1.697.16.063.323.094.486.094.517 0 1.005-.31 1.21-.819l1.276-3.175 3.051.301c.7.068 1.354-.453 1.425-1.17.07-.717-.453-1.355-1.17-1.426"/>
    </g>
</svg>
