<svg xmlns="http://www.w3.org/2000/svg" xmlns:xlink="http://www.w3.org/1999/xlink" width="72" height="35" viewBox="0 0 72 35">
    <defs>
        <path id="prefix__a" d="M0 0.326L0 8.361 7.502 8.361 7.502 0.326 0 0.326z"/>
        <path id="prefix__c" d="M7.986 8.361L7.986 0.325 0.486 0.325 0.486 8.361 7.986 8.361z"/>
    </defs>
    <g fill="none" fill-rule="evenodd">
        <path d="M0 0H72V35H0z"/>
        <g transform="translate(16 6.675)">
            <mask id="prefix__b" fill="#fff">
                <use xlink:href="#prefix__a"/>
            </mask>
            <path fill="#FFF" d="M3.67 5.425c-.322.152-.74.184-.88.187.154-.66 1.205-2.062 1.84-2.444.045.14.09.365.102.685.024.749.639 1.34 1.383 1.34l.046-.001c.766-.025 1.365-.665 1.34-1.43-.03-.933-.268-2.2-1.227-2.936-.6-.46-1.372-.61-2.175-.421C2.609.753 1.202 2.654.665 3.612.039 4.728-.146 5.692.114 6.478c.244.742.772 1.32 1.484 1.627.425.182.88.256 1.328.256.725 0 1.427-.194 1.925-.428.692-.326.989-1.151.664-1.844-.326-.692-1.152-.99-1.844-.664" mask="url(#prefix__b)"/>
        </g>
        <path fill="#FFF" d="M45.967 20.898c-1.76 1.371-4.83 3.005-9.474 3.005s-7.714-1.634-9.472-3.005c-2.587-2.017-2.647-4.796-1.608-6.524.729-1.212 2.219-2.186 4.207-1.297 2.059.921 3.844 1.455 6.873 1.455 3.03 0 4.815-.534 6.873-1.455 1.994-.889 3.48.085 4.207 1.297 1.04 1.728.98 4.507-1.606 6.524m-3.731-10.35c-1.538.687-2.936 1.212-5.743 1.212-2.807 0-4.205-.525-5.741-1.213-2.953-1.32-6.056-.359-7.714 2.4-1.701 2.828-1.464 7.22 2.279 10.137 2.1 1.637 5.744 3.59 11.176 3.59s9.077-1.953 11.177-3.59c3.743-2.918 3.98-7.309 2.278-10.138-1.657-2.756-4.756-3.72-7.712-2.399"/>
        <g transform="translate(49 6.675)">
            <mask id="prefix__d" fill="#fff">
                <use xlink:href="#prefix__c"/>
            </mask>
            <path fill="#FFF" d="M7.322 3.613C6.786 2.655 5.378.753 3.888.405c-.804-.19-1.578-.04-2.175.42C.755 1.563.516 2.83.486 3.763c-.025.765.574 1.405 1.34 1.43h.046c.744 0 1.36-.59 1.384-1.34.01-.324.058-.551.103-.692.613.369 1.654 1.75 1.831 2.425-.202.027-.574-.02-.874-.16-.692-.325-1.517-.028-1.844.664-.325.693-.028 1.518.664 1.844.498.234 1.2.428 1.925.428.448 0 .904-.074 1.327-.256.712-.307 1.24-.885 1.483-1.624.262-.786.077-1.751-.549-2.868" mask="url(#prefix__d)"/>
        </g>
    </g>
</svg>
