<svg xmlns="http://www.w3.org/2000/svg" width="85" height="85" viewBox="0 0 85 85">
    <g fill="none" fill-rule="evenodd">
        <path fill="#FFF" d="M58.097 29.5c0 15.794-12.804 28.597-28.597 28.597C13.707 58.097.903 45.294.903 29.5.903 13.707 13.707.903 29.5.903c15.793 0 28.597 12.804 28.597 28.597" transform="translate(17 15)"/>
        <path fill="#4D4D4D" d="M29.5 1.806C14.23 1.806 1.806 14.23 1.806 29.5S14.23 57.194 29.5 57.194 57.194 44.77 57.194 29.5 44.77 1.806 29.5 1.806M29.5 59C13.233 59 0 45.767 0 29.5S13.233 0 29.5 0 59 13.233 59 29.5 45.767 59 29.5 59" transform="translate(17 15)"/>
        <path fill="#FFF" d="M6.001 22.974C8.854 12.677 18.295 5.117 29.5 5.117c2.366 0 4.653.337 6.816.965" transform="translate(17 15)"/>
        <path fill="#4D4D4D" d="M6.871 23.215l-1.74-.482C8.15 11.829 18.173 4.214 29.5 4.214c2.402 0 4.78.337 7.066 1.001l-.503 1.734c-2.123-.616-4.332-.929-6.564-.929-10.518 0-19.823 7.071-22.629 17.195" transform="translate(17 15)"/>
        <path fill="#FFF" d="M5.117 29.5c0-1.117.076-2.218.22-3.296" transform="translate(17 15)"/>
        <path fill="#4D4D4D" d="M6.02 29.5H4.214c0-1.141.077-2.29.23-3.416l1.789.241c-.14 1.046-.213 2.114-.213 3.175" transform="translate(17 15)"/>
        <path fill="#E9E5D5" d="M13.88 42.591c.569.571 1.277.908 2.014 1.028-.455 1.503-.092 3.202 1.092 4.395 1.713 1.732 4.505 1.744 6.241.026 1.665-1.646 1.735-4.286.22-6.026l5.808-5.758c-.292-.398-.63-.776-1.013-1.13-1.08-.994-2.377-1.621-3.588-1.772l-4.94 4.9c-.163-.302-.355-.591-.61-.847-1.428-1.445-3.755-1.452-5.202-.021-1.441 1.432-1.45 3.762-.022 5.205" transform="translate(17 15)"/>
        <path fill="#4D4D4D" d="M16.496 37.22c-.737 0-1.433.287-1.959.807-1.084 1.078-1.091 2.841-.014 3.93.407.408.932.676 1.516.77.257.043.484.193.62.414.139.221.175.49.1.74-.375 1.24-.043 2.579.868 3.497.663.67 1.547 1.04 2.49 1.04.932 0 1.81-.362 2.475-1.02 1.31-1.295 1.386-3.399.173-4.79-.312-.36-.293-.9.045-1.236l5.224-5.178c-.128-.14-.263-.274-.403-.403-.802-.738-1.756-1.258-2.673-1.467l-4.608 4.571c-.202.2-.488.293-.767.252-.281-.041-.527-.213-.662-.463-.148-.272-.293-.475-.457-.64-.525-.532-1.224-.823-1.968-.823m3.62 13.003c-1.428 0-2.768-.56-3.772-1.575-1.157-1.167-1.698-2.784-1.505-4.383-.6-.228-1.141-.578-1.599-1.038-1.777-1.796-1.765-4.703.026-6.484.868-.857 2.015-1.33 3.23-1.33 1.23 0 2.385.483 3.25 1.358.03.03.06.06.088.091l4.184-4.15c.196-.195.472-.287.747-.255 1.424.177 2.876.889 4.089 2.004.417.384.797.807 1.128 1.258.265.361.226.861-.091 1.177l-5.256 5.21c1.286 2.07 1.007 4.816-.773 6.575-1.005.994-2.335 1.542-3.745 1.542" transform="translate(17 15)"/>
        <path fill="#FF5073" d="M24.441 33.155c1.124.388 2.22 1.05 3.187 1.946.497.46.937.964 1.316 1.497 4.399-.313 11.084-3.93 15.931-6.644 6.74-3.61 7.9-11.294 2.574-16.455-5.72-4.727-13.23-3.59-16.404 2.402-2.676 4.814-6.74 12.491-6.495 17.145l-.109.109z" transform="translate(17 15)"/>
        <path fill="#4D4D4D" d="M25.443 32.58c.996.442 1.953 1.076 2.798 1.858.404.374.78.78 1.12 1.212 4.482-.553 11.332-4.39 15.073-6.484 3.017-1.617 4.971-4.208 5.378-7.116.396-2.832-.658-5.628-2.966-7.878-2.117-1.74-4.624-2.698-7.062-2.698-3.414 0-6.309 1.768-7.942 4.85-1.77 3.184-6.363 11.45-6.399 16.256m3.5 4.92c-.291 0-.566-.14-.736-.38-.348-.49-.75-.946-1.193-1.356-.861-.798-1.853-1.405-2.868-1.756-.295-.102-.516-.349-.585-.652-.048-.21-.019-.426.076-.612-.053-4.658 3.493-11.659 6.618-17.282 1.92-3.622 5.485-5.794 9.529-5.794 2.868 0 5.794 1.113 8.24 3.135.018.015.036.03.053.047 2.712 2.627 3.996 6.071 3.524 9.45-.488 3.486-2.783 6.566-6.3 8.45-5.93 3.321-12.021 6.445-16.294 6.748-.021.002-.043.002-.064.002" transform="translate(17 15)"/>
        <path fill="#4D4D4D" d="M37.215 30.852c-.333 0-.652-.185-.81-.503-.22-.448-.037-.99.41-1.21 2.35-1.16 4.543-2.39 5.854-3.126l.071-.038c2.006-1.075 3.246-2.646 3.495-4.426.226-1.618-.414-3.28-1.803-4.682-1.443-1.15-3.092-1.78-4.648-1.78-.5 0-.903-.405-.903-.904s.404-.903.903-.903c1.98 0 4.046.785 5.818 2.21.025.02.05.04.072.063 1.824 1.821 2.657 4.04 2.35 6.247-.331 2.364-1.903 4.412-4.428 5.765l-.056.031c-1.314.736-3.533 1.98-5.925 3.162-.129.064-.265.094-.4.094" transform="translate(17 15)"/>
    </g>
</svg>
