<svg xmlns="http://www.w3.org/2000/svg" xmlns:xlink="http://www.w3.org/1999/xlink" width="72" height="35" viewBox="0 0 72 35">
    <defs>
        <path id="prefix__a" d="M0.766 29L35.349 29 35.349 0.139 0.766 0.139z"/>
    </defs>
    <g fill="none" fill-rule="evenodd">
        <path fill="#FFF" d="M19.197 16.397l2.409 1.437c.222.13.467.195.708.195.472 0 .932-.241 1.192-.676.392-.657.176-1.508-.481-1.9l-2.918-1.74c-.351-.21-.783-.252-1.167-.117-.498.172-1.443.318-1.891.087-.088-.045-.19-.114-.262-.357-.067-.225.61-.747 1.159-.971.047-.02.089-.045.133-.068.017-.01.034-.017.05-.026.066-.038.125-.081.18-.127l.035-.027c.057-.05.108-.104.156-.162l.026-.031c.045-.058.083-.118.118-.181l.027-.05c.029-.058.054-.12.075-.183l.023-.071c.016-.06.027-.12.035-.181.004-.03.009-.06.01-.091.005-.057.003-.113-.001-.17-.001-.026.003-.051 0-.077-.065-.596.072-1.44.3-1.487.25-.05.358.004.44.06.417.286.737 1.187.82 1.7.064.408.306.766.66.978l2.919 1.739c.222.133.467.196.708.196.472 0 .932-.241 1.19-.676.393-.657.178-1.508-.48-1.9l-2.408-1.436c-.224-.807-.74-2.122-1.827-2.876-.751-.521-1.645-.693-2.586-.498-1.857.387-2.435 2.099-2.511 3.515-1.212.739-2.45 2.072-1.906 3.894.275.919.85 1.624 1.666 2.037 1.18.597 2.582.427 3.399.24"/>
        <g transform="translate(23 1.86)">
            <mask id="prefix__b" fill="#fff">
                <use xlink:href="#prefix__a"/>
            </mask>
            <path fill="#FFF" d="M30.239 7.388C14.512-7.74 1.289 5.484 1.158 5.62c-.533.547-.521 1.422.026 1.956.546.535 1.423.525 1.958-.02.462-.47 11.465-11.359 25.176 1.83 3.846 3.7 5.097 7.311 3.717 10.735-1.531 3.801-5.868 6.108-7.366 6.108H13.427c-1.441 0-3.04-.474-4.385-1.303-4.087-2.515-5.571-8.012-4.616-9.787 1.044-1.694 6.749-3.177 10.985-.9 1.272.682 2.33 1.634 2.982 2.68.263.421.715.652 1.178.652.25 0 .503-.067.73-.21.65-.404.849-1.259.444-1.908-.903-1.45-2.333-2.749-4.024-3.656-5.166-2.775-12.422-1.368-14.545 1.742-.014.016-.024.034-.037.05-.033.05-.076.096-.107.147l-.008.02c-.004.006-.01.01-.013.017-.037.067-.062.143-.095.211l-.003.007c-1.635 3.39.624 10.186 5.676 13.294C9.385 28.39 11.459 29 13.427 29h11.242c2.763 0 8.008-3.056 9.937-7.844 1.267-3.146 1.538-8.089-4.367-13.768" mask="url(#prefix__b)"/>
        </g>
        <path fill="#FFF" d="M27.175 28.09c-2.99 0-5.498-1.31-6.879-3.592-1.019-1.682-1.23-3.626-.537-4.952.354-.678.092-1.515-.586-1.869-.679-.355-1.515-.093-1.87.586-1.149 2.2-.91 5.14.622 7.671 1.896 3.131 5.268 4.926 9.25 4.926.765 0 1.385-.62 1.385-1.385 0-.766-.62-1.386-1.385-1.386"/>
        <path d="M0 0H72V35H0z"/>
    </g>
</svg>
