<svg xmlns="http://www.w3.org/2000/svg" xmlns:xlink="http://www.w3.org/1999/xlink" width="85" height="85" viewBox="0 0 85 85">
    <defs>
        <path id="prefix__a" d="M0 46.852L47.644 46.852 47.644 0.119 0 0.119z"/>
    </defs>
    <g fill="none" fill-rule="evenodd">
        <g transform="translate(20 21) translate(0 .323)">
            <mask id="prefix__b" fill="#fff">
                <use xlink:href="#prefix__a"/>
            </mask>
            <path fill="#4D4D4D" d="M37.365 31.377c-.268-5.462-2.602-11.23-5.989-14.648-2.091-2.108-4.487-3.226-6.927-3.226h-.11c-.066 0-.127.004-.193.009.911-3.483 2.598-6.736 4.764-8.92 1.757-1.772 3.721-2.705 5.681-2.705h.11c1.96 0 3.924.933 5.677 2.705 3.315 3.342 5.526 9.18 5.504 14.533.027 6.414-3.298 11.042-8.517 12.252M24.392 45.084c-6.75-.053-11.269-5.105-11.234-12.58-.026-5.348 2.19-11.187 5.505-14.528 1.753-1.768 3.717-2.705 5.676-2.705h.11c1.96 0 3.924.937 5.677 2.705 3.316 3.341 5.526 9.18 5.504 14.533.036 7.47-4.483 12.522-11.238 12.575M1.762 19.117c-.027-5.345 2.184-11.183 5.5-14.525 1.757-1.772 3.721-2.705 5.68-2.705h.11c1.96 0 3.924.933 5.677 2.705 1.753 1.768 3.193 4.234 4.162 6.958-.238.728-.445 1.475-.621 2.227-1.709.446-3.36 1.445-4.858 2.952-3.434 3.461-5.782 9.335-5.997 14.857-5.866-.774-9.684-5.596-9.653-12.47M41.628 3.342C39.536 1.233 37.141.12 34.701.12h-.11c-2.44 0-4.835 1.114-6.927 3.222-1.528 1.543-2.836 3.563-3.844 5.813-1.004-2.25-2.312-4.27-3.84-5.813C17.888 1.233 15.492.12 13.053.12h-.11c-2.44 0-4.836 1.114-6.927 3.222C2.39 6.997-.026 13.34 0 19.117-.035 27.05 4.488 32.593 11.41 33.37c.313 8.044 5.439 13.423 12.978 13.481h.013c7.596-.058 12.744-5.52 12.982-13.658 6.27-1.233 10.296-6.59 10.26-14.069.027-5.786-2.39-12.128-6.015-15.784" mask="url(#prefix__b)"/>
        </g>
        <path fill="#FEC781" d="M45.882 19.448c.026 6.413-3.298 11.041-8.517 12.252-.268-5.463-2.602-11.231-5.989-14.648-2.091-2.108-4.487-3.226-6.927-3.226h-.11c-.066 0-.127.004-.194.008.912-3.483 2.599-6.736 4.765-8.92 1.757-1.772 3.721-2.704 5.681-2.704h.11c1.96 0 3.924.932 5.676 2.705 3.316 3.341 5.527 9.18 5.505 14.533M22.89 11.872c-.237.729-.444 1.476-.62 2.228-1.709.446-3.36 1.445-4.858 2.952-3.435 3.461-5.782 9.335-5.997 14.856-5.866-.773-9.684-5.596-9.653-12.469-.027-5.344 2.184-11.183 5.5-14.524 1.757-1.772 3.721-2.705 5.68-2.705h.11c1.96 0 3.924.933 5.677 2.705 1.753 1.768 3.193 4.234 4.161 6.957" transform="translate(20 21)"/>
        <path fill="#FEC781" d="M35.63 32.832c.036 7.47-4.483 12.522-11.238 12.575-6.75-.053-11.269-5.106-11.234-12.58-.026-5.348 2.19-11.187 5.505-14.528 1.753-1.768 3.717-2.705 5.676-2.705h.11c1.96 0 3.924.937 5.677 2.705 3.316 3.341 5.526 9.18 5.504 14.533" transform="translate(20 21)"/>
    </g>
</svg>
