<svg xmlns="http://www.w3.org/2000/svg" xmlns:xlink="http://www.w3.org/1999/xlink" width="85" height="85" viewBox="0 0 85 85">
    <defs>
        <path id="prefix__a" d="M56.576 5.431L0 5.431 0 0.576 56.576 0.576 56.576 5.431z"/>
    </defs>
    <g fill="none" fill-rule="evenodd">
        <path fill="#E5E8EC" d="M48.376 30.703l4.619-.001C52.991 17.342 42.506 6.45 29.361 5.884V4.21h1.514c.684-.018 1.033-.508.777-1.08-.26-.582-.857-1.23-1.356-1.374-1.323-.333-2.708-.332-4.033 0-.5.147-1.095.793-1.353 1.376-.255.571.086 1.063.774 1.078h1.518v1.674c-13.137.571-23.624 11.468-23.62 24.83l39.942-.01" transform="translate(17 27)"/>
        <path fill="#484F59" d="M2.682 31.62v-.906C2.678 17.44 12.576 6.498 25.507 5.104c-.588-.055-1.067-.33-1.344-.77-.288-.458-.316-1.032-.074-1.573.33-.748 1.098-1.632 1.923-1.874 1.5-.377 3.045-.376 4.503-.009.853.246 1.623 1.13 1.958 1.88.24.538.214 1.11-.073 1.569-.278.444-.762.722-1.342.778C43.988 6.494 53.89 17.43 53.895 30.7v.905l-5.52.002v-1.81l3.703-.001c-.46-12.445-10.29-22.471-22.756-23.009l-.861-.036V3.307l2.263-.003c-.22-.357-.543-.638-.676-.678-1.143-.287-2.386-.287-3.566.009-.108.032-.433.319-.648.67l2.268-.001v3.448l-.861.037C14.775 7.33 4.95 17.363 4.498 29.809l39.026-.01v1.81l-40.842.01z" transform="translate(17 27)"/>
        <path fill="#F7F8FC" d="M48.376 30.703c-.11-7.63-3.593-14.413-9.013-18.952" transform="translate(17 27)"/>
        <path fill="#484F59" d="M47.476 30.716c-.101-7.07-3.268-13.73-8.689-18.27l1.151-1.391c5.826 4.878 9.229 12.035 9.338 19.635l-1.8.026z" transform="translate(17 27)"/>
        <path fill="#E5E8EC" d="M54.602 30.705H1.972c-.598 0-1.072.68-1.072 1.525 0 .83.474 1.52 1.073 1.52h52.629c.593 0 1.074-.69 1.074-1.52 0-.844-.481-1.525-1.074-1.525" transform="translate(17 27)"/>
        <g transform="translate(17 27) translate(0 29.224)">
            <mask id="prefix__b" fill="#fff">
                <use xlink:href="#prefix__a"/>
            </mask>
            <path fill="#484F59" d="M54.558 2.378l-52.585.008c-.014.021-.173.234-.173.62 0 .36.153.589.216.623l52.553-.008c.07-.056.207-.278.207-.614 0-.387-.162-.6-.218-.63m.044 3.054H1.972C.868 5.431 0 4.366 0 3.007 0 1.643.867.576 1.973.576h52.629c1.107 0 1.974 1.067 1.974 2.43 0 1.36-.867 2.425-1.974 2.425" mask="url(#prefix__b)"/>
        </g>
    </g>
</svg>
