<svg xmlns="http://www.w3.org/2000/svg" width="72" height="35" viewBox="0 0 72 35">
    <g fill="none" fill-rule="evenodd">
        <path d="M0 0H72V35H0z"/>
        <path fill="#FFF" d="M56.747 17.209c.585-2.027 1.801-7.031.253-9.12-.504-.683-1.257-1.059-2.119-1.059-2.61 0-5.44 2.333-6.988 3.83C45.847 8.55 40.887 4 33.563 4 22.44 4 15.881 15.27 15.17 16.555c-.02.035-.03.073-.047.11-.017.038-.037.072-.05.11-.003.007-.003.013-.005.019-.016.05-.025.1-.035.15-.009.04-.02.08-.025.12-.006.044-.003.087-.004.131 0 .047-.005.095-.002.142.004.038.014.075.02.113.008.05.014.1.027.149.011.037.028.073.042.11.017.044.032.091.053.136.02.037.044.07.065.106.025.04.048.081.077.119.024.032.054.06.082.09.033.037.065.073.103.107.03.026.063.046.095.07.042.03.083.063.13.09.006.003.01.009.016.01.02.011.041.015.06.025.053.026.104.055.161.073l4.74 1.63c.15.05.301.075.45.075.576 0 1.113-.361 1.311-.935.25-.724-.137-1.512-.86-1.761l-3.107-1.067c2.031-3.07 7.323-9.706 15.097-9.706 8.13 0 13.054 6.903 13.101 6.97.243.35.634.569 1.06.593.412.024.838-.149 1.12-.468 1.362-1.55 4.163-3.995 5.975-4.061.436.768.046 4.079-.843 7-.005.018-.006.038-.01.056-.019.07-.035.14-.042.212-.005.047 0 .095 0 .142 0 .043-.005.085 0 .13.008.082.025.164.048.242.003.01.003.018.005.026v.002h.001c.89 2.919 1.28 6.23.84 6.997-1.797-.055-4.608-2.508-5.974-4.061-.28-.32-.697-.486-1.118-.468-.425.023-.816.24-1.06.59-.049.069-4.973 6.972-13.103 6.972-5.343 0-10.86-3.439-13.959-6.846-.514-.566-1.39-.608-1.957-.093-.566.515-.608 1.392-.093 1.957 3.252 3.575 9.396 7.753 16.01 7.753 7.323 0 12.283-4.55 14.33-6.86 1.546 1.495 4.376 3.828 6.987 3.828.862 0 1.615-.375 2.12-1.058 1.547-2.088.331-7.091-.254-9.117"/>
        <path fill="#FFF" d="M26.605 16.568c-.849 0-1.538-.694-1.538-1.547 0-.852.69-1.545 1.538-1.545.848 0 1.537.693 1.537 1.545 0 .853-.69 1.547-1.537 1.547m4.308-1.547c0-2.38-1.933-4.316-4.308-4.316s-4.31 1.936-4.31 4.316 1.934 4.318 4.31 4.318c2.375 0 4.308-1.937 4.308-4.318M31.883 23.581c-.597.48-.692 1.352-.213 1.948.273.341.675.52 1.08.52.305 0 .612-.1.867-.305 2.15-1.726 3.457-4.43 3.68-7.616.254-3.649-.97-7.287-3.273-9.735-.524-.556-1.4-.584-1.958-.059-.558.526-.584 1.402-.06 1.96 1.757 1.865 2.725 4.793 2.526 7.64-.168 2.406-1.108 4.412-2.65 5.647M39.45 19.724c-.718-.257-1.513.115-1.773.834-.259.721.114 1.514.835 1.773.702.253 1.385.377 2.023.377 1.216 0 2.27-.45 2.99-1.318.98-1.18 1.111-2.868.328-4.2-.867-1.475-2.605-2.128-4.649-1.745-.753.14-1.249.864-1.108 1.616.14.752.863 1.246 1.616 1.108.862-.162 1.5-.006 1.752.425.187.32.157.751-.072 1.026-.326.394-1.034.431-1.942.104"/>
    </g>
</svg>
