<svg xmlns="http://www.w3.org/2000/svg" width="15" height="15" viewBox="0 0 15 15">
    <path fill="#FFF" fill-rule="evenodd" d="M7.5.5c3.866 0 7 3.134 7 7s-3.134 7-7 7-7-3.134-7-7 3.134-7 7-7zm.887 8.94H6.505v1.66h1.882V9.44zM7.67 4.207c-.863 0-1.504.201-1.922.603-.417.403-.657.934-.719 1.593l1.795.222c.04-.36.131-.613.275-.758.143-.145.324-.217.543-.217.204 0 .355.047.456.14.1.095.15.227.15.396 0 .17-.125.356-.375.56-.468.388-.77.66-.904.814-.134.154-.235.324-.303.51-.067.187-.101.43-.101.729v.176h1.757c0-.24.04-.436.122-.585.082-.15.279-.348.59-.595.447-.351.743-.649.888-.892.145-.244.217-.496.217-.759 0-.632-.28-1.137-.841-1.516-.413-.28-.956-.421-1.628-.421z"/>
</svg>
