<?xml version="1.0" standalone="no"?><!DOCTYPE svg PUBLIC "-//W3C//DTD SVG 1.1//EN" "http://www.w3.org/Graphics/SVG/1.1/DTD/svg11.dtd"><svg t="1589429767211" class="icon" viewBox="0 0 1024 1024" version="1.1" xmlns="http://www.w3.org/2000/svg" p-id="18485" xmlns:xlink="http://www.w3.org/1999/xlink" width="200" height="200"><defs><style type="text/css"></style></defs><path d="M928 128 96 128C43.2 128 0 171.2 0 224l0 576c0 52.8 43.2 96 96 96l832 0c52.8 0 96-43.2 96-96L1024 224C1024 171.2 980.8 128 928 128zM96 192l832 0c17.346 0 32 14.654 32 32l0 96L64 320l0-96C64 206.654 78.654 192 96 192zM928 832 96 832c-17.346 0-32-14.654-32-32L64 512l896 0 0 288C960 817.346 945.346 832 928 832zM128 640 192 640 192 768 128 768zM256 640 320 640 320 768 256 768zM384 640 448 640 448 768 384 768z" p-id="18486"></path></svg>