<svg xmlns="http://www.w3.org/2000/svg" xmlns:xlink="http://www.w3.org/1999/xlink" width="40" height="40" viewBox="0 0 40 40">
    <defs>
        <filter id="prefix__a" width="175%" height="175%" x="-37.5%" y="-37.5%" filterUnits="objectBoundingBox">
            <feOffset in="SourceAlpha" result="shadowOffsetOuter1"/>
            <feGaussianBlur in="shadowOffsetOuter1" result="shadowBlurOuter1" stdDeviation="5"/>
            <feColorMatrix in="shadowBlurOuter1" values="0 0 0 0 0 0 0 0 0 0 0 0 0 0 0 0 0 0 0.5 0"/>
        </filter>
        <circle id="prefix__b" cx="20" cy="20" r="20"/>
    </defs>
    <g fill="none" fill-rule="evenodd">
        <g opacity=".5" transform="matrix(-1 0 0 1 40 0)">
            <use fill="#000" filter="url(#prefix__a)" xlink:href="#prefix__b"/>
            <use fill="#FFF" xlink:href="#prefix__b"/>
        </g>
        <g>
            <path d="M0 0H18V18H0z" transform="matrix(-1 0 0 1 40 0) rotate(-90 20 9)"/>
            <g stroke="#FFF" stroke-linecap="round" stroke-linejoin="round" stroke-width="2.2">
                <path d="M0 0L6 6" transform="matrix(-1 0 0 1 40 0) rotate(-90 20 9) translate(3 7)"/>
                <path d="M6 0L12 6" transform="matrix(-1 0 0 1 40 0) rotate(-90 20 9) translate(3 7) matrix(-1 0 0 1 18 0)"/>
            </g>
        </g>
    </g>
</svg>
