<?xml version="1.0" encoding="utf-8"?>
<!-- Generator: Adobe Illustrator 23.0.6, SVG Export Plug-In . SVG Version: 6.00 Build 0)  -->
<svg version="1.1" id="圖層_1" xmlns="http://www.w3.org/2000/svg" xmlns:xlink="http://www.w3.org/1999/xlink" x="0px" y="0px"
	 viewBox="0 0 172.3 54.6" style="enable-background:new 0 0 172.3 54.6;" xml:space="preserve">
<style type="text/css">
	.st0{fill:#FFFFFF;}
	.st1{fill:url(#SVGID_1_);}
	.st2{fill:url(#SVGID_2_);}
	.st3{fill:url(#SVGID_3_);}
	.st4{fill:url(#SVGID_4_);}
</style>
<g>
	<g>
		<g>
			<path class="st0" d="M0.1,27.3C0.1,12.2,12.3,0,27.4,0s27.3,12.2,27.3,27.3S42.5,54.6,27.4,54.6C12.3,54.6,0.1,42.3,0.1,27.3z"/>
		</g>
		
			<linearGradient id="SVGID_1_" gradientUnits="userSpaceOnUse" x1="-13977.7734" y1="-28910.9336" x2="-14686.6123" y2="-28910.9336" gradientTransform="matrix(-6.050000e-02 0 0 -6.050000e-02 -838.8708 -1735.5115)">
			<stop  offset="0" style="stop-color:#FFFFFF"/>
			<stop  offset="0.1917" style="stop-color:#DECCA2"/>
			<stop  offset="0.4127" style="stop-color:#B99841"/>
			<stop  offset="0.5112" style="stop-color:#AB8420"/>
			<stop  offset="0.6285" style="stop-color:#A78122"/>
			<stop  offset="0.7557" style="stop-color:#9C7626"/>
			<stop  offset="0.8871" style="stop-color:#89642C"/>
			<stop  offset="1" style="stop-color:#755330"/>
		</linearGradient>
		<path class="st1" d="M7.4,14.8c5-3.6,12.1-5.8,19.9-5.8s15,2.2,19.9,5.8c4.6,3.2,7.4,7.6,7.4,12.4C54.6,17,49,8.1,40.8,3.4
			C37,1.4,32.7,0.1,28.1,0c0,0,0,0-0.1,0c-0.2,0-0.4,0-0.7,0l0,0l0,0c-0.2,0-0.5,0-0.7,0l0,0c-4.6,0.1-9,1.4-12.7,3.5
			C9.9,6,7.3,9.6,7.3,13.6C7.3,14,7.3,14.4,7.4,14.8z"/>
		
			<linearGradient id="SVGID_2_" gradientUnits="userSpaceOnUse" x1="-14392.4082" y1="-28765.082" x2="-14679.7031" y2="-29441.9062" gradientTransform="matrix(-6.050000e-02 0 0 -6.050000e-02 -838.8708 -1735.5115)">
			<stop  offset="0" style="stop-color:#FFFFFF"/>
			<stop  offset="7.560000e-02" style="stop-color:#EFE7D3"/>
			<stop  offset="0.1975" style="stop-color:#D7C28F"/>
			<stop  offset="0.307" style="stop-color:#C4A65B"/>
			<stop  offset="0.4" style="stop-color:#B6933A"/>
			<stop  offset="0.473" style="stop-color:#AE8826"/>
			<stop  offset="0.5169" style="stop-color:#AB8420"/>
			<stop  offset="0.7846" style="stop-color:#8A652C"/>
			<stop  offset="1" style="stop-color:#755330"/>
		</linearGradient>
		<path class="st2" d="M47.2,39.7c0.1,0.4,0.1,0.8,0.1,1.2c0,4-2.5,7.6-6.6,10.1c8.3-4.7,13.8-13.6,13.8-23.8
			c0-4.8-2.8-9.2-7.4-12.4C42.1,11.2,35,9,27.2,9v18.2C37.8,27.3,46.3,32.7,47.2,39.7z"/>
		
			<linearGradient id="SVGID_3_" gradientUnits="userSpaceOnUse" x1="14245.2344" y1="30027.127" x2="13536.373" y2="30027.127" gradientTransform="matrix(6.050000e-02 0 0 6.050000e-02 -813.9724 -1775.6912)">
			<stop  offset="0" style="stop-color:#FFFFFF"/>
			<stop  offset="0.1917" style="stop-color:#DECCA2"/>
			<stop  offset="0.4127" style="stop-color:#B99841"/>
			<stop  offset="0.5112" style="stop-color:#AB8420"/>
			<stop  offset="0.6285" style="stop-color:#A78122"/>
			<stop  offset="0.7557" style="stop-color:#9C7626"/>
			<stop  offset="0.8871" style="stop-color:#89642C"/>
			<stop  offset="1" style="stop-color:#755330"/>
		</linearGradient>
		<path class="st3" d="M47.2,39.7c-5,3.5-12.1,5.8-19.9,5.8c-7.9,0-15-2.2-19.9-5.8C2.8,36.4,0,32.1,0,27.3
			c0,10.2,5.6,19.1,13.8,23.8c3.8,2.1,8.1,3.4,12.7,3.5l0,0c0.2,0,0.5,0,0.7,0l0,0l0,0c0.2,0,0.5,0,0.7,0H28c4.6-0.1,9-1.4,12.7-3.5
			c4-2.5,6.6-6.1,6.6-10.1C47.3,40.5,47.3,40.1,47.2,39.7z"/>
		
			<linearGradient id="SVGID_4_" gradientUnits="userSpaceOnUse" x1="13828.6855" y1="30173.4375" x2="13541.4199" y2="29496.6816" gradientTransform="matrix(6.050000e-02 0 0 6.050000e-02 -813.9724 -1775.6912)">
			<stop  offset="0" style="stop-color:#FFFFFF"/>
			<stop  offset="7.560000e-02" style="stop-color:#EFE7D3"/>
			<stop  offset="0.1975" style="stop-color:#D7C28F"/>
			<stop  offset="0.307" style="stop-color:#C4A65B"/>
			<stop  offset="0.4" style="stop-color:#B6933A"/>
			<stop  offset="0.473" style="stop-color:#AE8826"/>
			<stop  offset="0.5169" style="stop-color:#AB8420"/>
			<stop  offset="0.7846" style="stop-color:#8A652C"/>
			<stop  offset="1" style="stop-color:#755330"/>
		</linearGradient>
		<path class="st4" d="M7.4,14.8c0-0.4-0.1-0.8-0.1-1.2c0-4,2.5-7.6,6.6-10.1C5.6,8.2,0,17.1,0,27.3c0,4.8,2.8,9.2,7.4,12.4
			c5,3.5,12.1,5.8,19.9,5.8V27.3C16.9,27.3,8.3,21.8,7.4,14.8z"/>
	</g>
	<g>
		<g>
			<path d="M77.6,8.6h1.9v10.1c-0.1,2.8-0.6,5-1.5,6.6c-0.6,0.9-1.3,1.7-2.1,2.2c-0.9,0.6-2.2,1-3.8,1.4l-1.2-1.8
				c1.2-0.1,2.4-0.4,3.5-1c2-1.1,3.1-3.3,3.2-6.6c-1.6,1.1-3.4,2.4-5.6,3.6l-1-1.8c2.8-1.5,5-2.9,6.6-4.1V8.6L77.6,8.6z M73,10.2
				c1.2,1.3,2.4,3,3.5,5.1l-1.6,1c-1.3-2.2-2.5-3.8-3.5-5L73,10.2z M84.1,8.5v17.1c0,0.3,0.1,0.6,0.3,0.8c0.2,0.2,0.5,0.3,0.8,0.3
				h3.2c0.2,0,0.4-0.1,0.6-0.2c0.1-0.1,0.2-1,0.3-2.8l1.9,0.3c-0.2,2.4-0.4,3.6-0.6,3.8c-0.5,0.5-0.9,0.8-1.3,0.8h-5.1
				c-0.5,0-0.9-0.2-1.4-0.7c-0.4-0.4-0.6-0.8-0.6-1.3V8.5H84.1z M90.6,10.7c-1,1.6-2.5,3.3-4.4,5.2l-1.4-1.3c2-2,3.4-3.7,4.3-5.1
				L90.6,10.7z M86,17c1.6,0.9,3.3,2.3,5.2,4.1L90,22.6c-2-1.9-3.7-3.2-5.1-4L86,17z"/>
			<path d="M102.9,25.6h-3c-0.1,0-0.2-0.1-0.2-0.2v-3.5c0-0.2,0.1-0.2,0.2-0.2H116c0.2,0,0.2,0.1,0.2,0.2v3.5c0,0.2-0.1,0.2-0.2,0.2
				h-2.9l-0.6,1.4h5.5v1.7H97.7V27h5.7L102.9,25.6z M117.8,19.4v1.5H98v-1.5H117.8z M109.6,15.9v-1.4h2v-1.1h-2V12h2v-1.1h-2V9.5h2
				V8.3h1.6v1.2h1.9v1.4h-1.9V12h1.8v1.4h-1.8v1.1h1.9v1.4h-1.9v1h2.4c0.2,0,0.3-0.1,0.3-0.3v-8h1.7v9.1c0,0.5-0.3,0.8-0.8,0.8H99.1
				c-0.5,0-0.7-0.3-0.7-0.8V8.6h1.7v8c0,0.2,0.1,0.3,0.3,0.3h2.4v-1.1h-2v-1.4h2v-1.1h-1.9v-1.4h1.9v-1h-2V9.5h2V8.3h1.6v1.2h1.7
				v1.4h-1.7V12h1.7v1.4h-1.7v1.1h1.8v1.4h-1.8v1h2.7V8.3h1.7v8.6h2.9v-1.1L109.6,15.9L109.6,15.9z M101.4,23
				C101.4,23,101.3,23.1,101.4,23l-0.1,1l0.1,0.1h13l0.1-0.1v-0.9l-0.1-0.1H101.4z M110.7,27l0.5-1.2l0.1-0.3h-6.6l0.6,1.4h5.4V27z"
				/>
			<path d="M127.1,17.4c-0.2,0.4-0.5,0.8-0.7,1.1l-1.8-0.8c2-2.8,3.2-5.9,3.7-9.3l1.9,0.3c-0.4,1.8-0.8,3.3-1.2,4.6v15.6h-1.9V17.4
				L127.1,17.4z M138.4,22.2v6.7h-1.9v-6.6c-1.9,2.2-3.7,3.8-5.5,4.8l-1.4-1.5c2.6-1.5,4.6-3.3,6.3-5.4h-5.8v-1.9h6.4v-2h-5.1
				c-0.2,0-0.3-0.1-0.3-0.3V9.1c0-0.2,0.1-0.3,0.3-0.3h12.3c0.2,0,0.3,0.1,0.3,0.3V16c0,0.2-0.1,0.3-0.3,0.3h-5.4v2h6.6v1.9h-6
				c1.6,2.2,3.7,4,6.5,5.7l-1.5,1.3C141.8,25.9,140,24.2,138.4,22.2z M142,10.8h-8.9c-0.1,0-0.1,0-0.1,0.1v3.5c0,0.1,0,0.1,0.1,0.1
				h8.9c0.1,0,0.1,0,0.1-0.1v-3.5C142.1,10.8,142.1,10.8,142,10.8z"/>
			<path d="M153.8,23.8v5H152V9c0-0.1,0-0.1,0.1-0.2c0,0,0.1,0,0.2,0h4.4l1.3,0.7l-0.8,5.3c-0.2,0.9-0.1,1.5,0,1.7
				c0.6,1.2,1,2.3,1.1,3.3c0.2,1.6-0.1,2.8-0.8,3.6c-0.4,0.4-0.8,0.7-1.3,0.7C155.6,24.2,154.8,24.1,153.8,23.8z M155.2,15.5l0.8-5
				h-2.1c-0.1,0-0.1,0-0.1,0s0,0,0,0.1v11.2c0.6,0.5,1.2,0.7,1.8,0.7c0.3-0.1,0.5-0.2,0.6-0.3c0.7-1,0.5-2.9-0.8-5.9
				C155.2,16.1,155.2,15.9,155.2,15.5z M160.9,25.7c-0.6,1.3-1.4,2.3-2.3,3.2l-1.6-1c1.7-1.8,2.9-3.7,3.5-5.8l1.7,0.6
				c-0.2,0.5-0.4,1.1-0.6,1.5c1,0.9,1.9,1.8,2.8,2.7l-1.4,1.3C162.5,27.3,161.8,26.5,160.9,25.7z M160.8,13
				c-0.7,0.4-1.4,0.7-2.1,1.1l-1-1.7c3.4-1.3,5.6-2.6,6.6-4.1l1.8,0.4c-0.1,0.1-0.2,0.2-0.2,0.4c1.9,1.4,4.1,2.4,6.4,2.9l-1,1.8
				c-0.9-0.4-1.7-0.7-2.5-1v1.5h-7.9L160.8,13L160.8,13z M164.5,21.1c0,0.2-0.1,0.3-0.3,0.3h-5.1c-0.2,0-0.2-0.1-0.2-0.3v-5.5
				c0-0.2,0.1-0.2,0.2-0.2h1.5h3.5c0.2,0,0.3,0.1,0.3,0.2L164.5,21.1L164.5,21.1z M162.7,17h-2c-0.1,0-0.1,0-0.1,0.1v2.6
				c0,0,0,0.1,0.1,0.1h2c0.1,0,0.1,0,0.1-0.1L162.7,17C162.8,17,162.8,17,162.7,17z M161.5,12.6h7c-1.3-0.6-2.6-1.4-3.8-2.3
				C164,11,162.9,11.8,161.5,12.6z M168.6,24.5c1.1,1,2.2,2.1,3.3,3.2l-1.4,1.3c-0.7-0.9-1.6-1.9-2.6-2.9c-0.3,0.9-0.9,1.8-1.7,2.8
				l-1.7-0.9c1.5-1.8,2.5-3.7,3-5.9l1.7,0.5C169,23.3,168.8,23.9,168.6,24.5z M171.1,21.1c0,0.2-0.1,0.3-0.3,0.3h-5
				c-0.2,0-0.2-0.1-0.2-0.3v-5.4c0-0.2,0.1-0.2,0.2-0.2h1.5h3.5c0.2,0,0.3,0.1,0.3,0.2V21.1L171.1,21.1z M169.3,17.1h-2
				c-0.1,0-0.1,0-0.1,0.1v2.5c0,0,0,0.1,0.1,0.1h2c0.1,0,0.1,0,0.1-0.1L169.3,17.1L169.3,17.1z"/>
		</g>
		<g>
			<path d="M77.2,43.3c-0.2,0.1-0.4,0.2-0.8,0.3s-0.8,0.2-1.3,0.2c-0.9,0-1.7-0.3-2.2-1C72.3,42.1,72,41,72,39.4
				c0-1.1,0.2-2.1,0.7-2.9c0.4-0.8,1.2-1.2,2.4-1.3c1.7,0,2.6,0.8,2.6,2.4h-1.3c0-0.1,0-0.3,0-0.5s-0.1-0.3-0.2-0.5
				s-0.2-0.3-0.4-0.4c-0.2-0.1-0.4-0.2-0.7-0.2c-0.4,0-0.7,0.1-0.9,0.3c-0.2,0.2-0.4,0.5-0.5,0.8s-0.2,0.6-0.2,1
				c-0.1,0.3-0.1,0.7-0.1,1c0,1.1,0.2,1.9,0.5,2.6c0.3,0.7,0.9,1,1.7,1c0.5,0,0.9-0.1,1.2-0.3c0.3-0.2,0.5-0.3,0.6-0.4v1.3H77.2z"/>
			<path d="M78.8,35.4h1v3.8l0,0c0.1-0.1,0.1-0.3,0.2-0.4c0.1-0.2,0.2-0.3,0.3-0.4s0.3-0.3,0.5-0.4c0.2-0.1,0.4-0.1,0.7-0.1
				c0.3,0,0.6,0.1,0.8,0.2c0.2,0.1,0.4,0.3,0.4,0.5c0.1,0.2,0.2,0.4,0.2,0.6c0,0.2,0.1,0.4,0.1,0.6v4h-1v-3.1c0-0.5,0-1-0.1-1.2
				c-0.1-0.3-0.3-0.4-0.7-0.4c-0.2,0-0.4,0.1-0.6,0.2c-0.2,0.1-0.3,0.3-0.5,0.5c-0.3,0.5-0.4,1-0.4,1.6v2.4h-1L78.8,35.4L78.8,35.4z
				"/>
			<path d="M88.2,42.4L88.2,42.4c0,0.1-0.1,0.3-0.2,0.4c-0.1,0.1-0.2,0.3-0.3,0.4c-0.1,0.1-0.3,0.2-0.5,0.3s-0.4,0.2-0.7,0.2
				c-0.3,0-0.6-0.1-0.8-0.2c-0.2-0.1-0.3-0.3-0.4-0.5s-0.2-0.4-0.2-0.6C85,42.3,85,42.1,85,41.9v-4h1V41c0,0.5,0,0.9,0.1,1.2
				c0.1,0.1,0.1,0.2,0.2,0.3s0.2,0.1,0.4,0.1c0.2,0,0.4-0.1,0.6-0.2c0.2-0.1,0.3-0.3,0.4-0.5c0.3-0.5,0.4-1,0.4-1.6v-2.4h1v5.7h-1
				L88.2,42.4L88.2,42.4z"/>
			<path d="M91.2,38h1v1.2l0,0c0.1-0.1,0.1-0.3,0.2-0.4c0.1-0.2,0.2-0.3,0.3-0.4s0.3-0.3,0.5-0.4c0.2-0.1,0.4-0.1,0.7-0.1
				c0.3,0,0.6,0.1,0.8,0.2c0.2,0.1,0.4,0.3,0.4,0.5c0.1,0.2,0.2,0.4,0.2,0.6c0,0.2,0.1,0.4,0.1,0.6v4h-1v-3.1c0-0.5,0-1-0.1-1.2
				c0-0.4-0.3-0.6-0.6-0.6c-0.2,0-0.4,0.1-0.6,0.2c-0.2,0.1-0.3,0.3-0.5,0.5c-0.3,0.5-0.4,1-0.4,1.6v2.4h-1V38L91.2,38z"/>
			<path d="M101.4,43.9c0,1.6-0.9,2.4-2.6,2.3c-0.4,0-0.8,0-1.1-0.1c-0.3,0-0.5-0.1-0.6-0.1v-1.1c0.2,0.1,0.4,0.2,0.7,0.3
				c0.3,0.1,0.6,0.2,0.9,0.2c0.4,0,0.7-0.1,0.9-0.2c0.2-0.1,0.4-0.3,0.5-0.5s0.2-0.4,0.2-0.6c0-0.1,0-0.2,0-0.3s0-0.2,0-0.2v-0.9
				l0,0c0,0.1-0.1,0.2-0.1,0.3c-0.1,0.1-0.2,0.2-0.3,0.3c-0.2,0.2-0.6,0.4-1.1,0.4c-0.7,0-1.2-0.3-1.5-0.9c-0.2-0.3-0.2-0.6-0.3-0.9
				s-0.1-0.7-0.1-1c0-0.8,0.2-1.5,0.5-2.1s0.8-0.9,1.5-0.9c0.2,0,0.4,0,0.6,0.1s0.3,0.2,0.4,0.2c0.2,0.2,0.4,0.4,0.4,0.6l0,0V38h1
				C101.4,38,101.4,43.9,101.4,43.9z M98.1,40.8c0,0.2,0,0.4,0.1,0.6c0,0.2,0.1,0.5,0.1,0.7c0.1,0.2,0.2,0.4,0.3,0.5
				c0.1,0.2,0.3,0.2,0.6,0.2c0.2,0,0.4-0.1,0.6-0.2c0.2-0.1,0.3-0.3,0.4-0.5c0.2-0.5,0.3-0.9,0.3-1.4s-0.1-0.9-0.3-1.3
				c-0.1-0.2-0.2-0.4-0.4-0.5c-0.2-0.1-0.4-0.2-0.6-0.2s-0.4,0.1-0.5,0.2s-0.3,0.3-0.3,0.5c-0.1,0.2-0.1,0.4-0.2,0.7
				C98.1,40.3,98.1,40.6,98.1,40.8z"/>
			<g>
				<path d="M105.7,35.4h1.2v3.7l0,0l2.7-3.7h1.4l-2.9,3.9l3.2,4.3h-1.4l-2.9-4l0,0v4h-1.2L105.7,35.4L105.7,35.4z"/>
				<path d="M115.2,42.4L115.2,42.4c-0.1,0.1-0.1,0.3-0.2,0.4c-0.1,0.1-0.2,0.3-0.3,0.4c-0.1,0.1-0.3,0.2-0.5,0.3s-0.4,0.2-0.7,0.2
					c-0.3,0-0.6-0.1-0.8-0.2c-0.2-0.1-0.3-0.3-0.4-0.5s-0.2-0.4-0.2-0.6c-0.1-0.2-0.1-0.4-0.1-0.6v-4h1v3.1c0,0.5,0,0.9,0.1,1.2
					c0.1,0.1,0.1,0.2,0.2,0.3s0.2,0.1,0.4,0.1c0.2,0,0.4-0.1,0.6-0.2c0.2-0.1,0.3-0.3,0.4-0.5c0.3-0.5,0.4-1,0.4-1.6v-2.4h1v5.7h-1
					L115.2,42.4L115.2,42.4z"/>
				<path d="M120.2,43.8c-0.8,0-1.4-0.3-1.9-0.8c-0.4-0.5-0.6-1.2-0.6-2.2c0-2,0.8-3,2.4-3s2.4,1,2.4,3c0,0.9-0.2,1.6-0.6,2.2
					C121.7,43.5,121.1,43.8,120.2,43.8z M119,40.8c0,0.2,0,0.5,0.1,0.7c0,0.2,0.1,0.5,0.2,0.7s0.2,0.4,0.4,0.5
					c0.2,0.1,0.4,0.2,0.7,0.2c0.3,0,0.5-0.1,0.7-0.2c0.2-0.1,0.3-0.3,0.4-0.5s0.2-0.5,0.2-0.7s0-0.5,0-0.7s0-0.5,0-0.8
					c0-0.2-0.1-0.5-0.2-0.7s-0.2-0.4-0.4-0.5c-0.2-0.1-0.4-0.2-0.7-0.2c-0.3,0-0.5,0.1-0.7,0.2c-0.2,0.1-0.3,0.3-0.4,0.5
					s-0.1,0.4-0.2,0.7S119,40.6,119,40.8z"/>
			</g>
			<g>
				<path d="M126.9,35.4h1.2v8.3h-1.2V35.4z"/>
				<path d="M129.9,38h1v1.2l0,0c0.1-0.1,0.1-0.3,0.2-0.4c0.1-0.2,0.2-0.3,0.3-0.4c0.1-0.1,0.3-0.3,0.5-0.4c0.2-0.1,0.4-0.1,0.7-0.1
					s0.6,0.1,0.8,0.2c0.2,0.1,0.4,0.3,0.4,0.5c0.1,0.2,0.2,0.4,0.2,0.6c0,0.2,0.1,0.4,0.1,0.6v4h-1v-3.1c0-0.5,0-1-0.1-1.2
					c-0.1-0.3-0.3-0.4-0.7-0.4c-0.2,0-0.4,0.1-0.6,0.2c-0.2,0.1-0.3,0.3-0.5,0.5c-0.3,0.5-0.4,1-0.4,1.6v2.4h-1L129.9,38L129.9,38z"
					/>
				<path d="M137.9,40.4c0.1,0.1,0.3,0.2,0.4,0.3c0.1,0.1,0.3,0.2,0.4,0.3c0.1,0.1,0.2,0.3,0.3,0.5s0.1,0.4,0.1,0.6
					c0,0.6-0.2,1-0.6,1.3c-0.4,0.3-0.9,0.4-1.5,0.4c-0.4,0-0.7,0-0.9-0.1c-0.2,0-0.4-0.1-0.6-0.1v-0.9c0.1,0,0.2,0.1,0.5,0.2
					c0.3,0.1,0.6,0.2,0.9,0.2c0.3,0,0.5,0,0.8-0.2c0.2-0.1,0.4-0.3,0.4-0.6c0-0.2-0.1-0.4-0.3-0.5s-0.4-0.3-0.6-0.4l-0.5-0.3
					c-0.1-0.1-0.2-0.2-0.4-0.3c-0.1-0.1-0.2-0.2-0.4-0.3c-0.2-0.2-0.4-0.5-0.4-1s0.2-0.9,0.6-1.2c0.4-0.3,0.8-0.4,1.4-0.4
					c0.3,0,0.5,0,0.7,0.1c0.2,0,0.4,0.1,0.5,0.1v1c-0.1,0-0.2-0.1-0.4-0.2c-0.2-0.1-0.5-0.1-0.8-0.1c-0.2,0-0.4,0.1-0.6,0.2
					c-0.2,0.1-0.3,0.3-0.3,0.4c0,0.2,0.1,0.4,0.3,0.5s0.3,0.2,0.5,0.4L137.9,40.4z"/>
				<path d="M143.7,42.4L143.7,42.4c-0.1,0.1-0.1,0.3-0.2,0.4c-0.1,0.1-0.2,0.3-0.3,0.4c-0.1,0.1-0.3,0.2-0.5,0.3s-0.4,0.2-0.7,0.2
					s-0.6-0.1-0.8-0.2c-0.2-0.1-0.3-0.3-0.4-0.5c-0.1-0.2-0.2-0.4-0.2-0.6c-0.1-0.2-0.1-0.4-0.1-0.6v-4h1v3.1c0,0.5,0,0.9,0.1,1.2
					c0.1,0.1,0.1,0.2,0.2,0.3c0.1,0.1,0.2,0.1,0.4,0.1s0.4-0.1,0.6-0.2c0.2-0.1,0.3-0.3,0.4-0.5c0.3-0.5,0.4-1,0.4-1.6v-2.4h1v5.7
					h-1L143.7,42.4L143.7,42.4z"/>
				<path d="M146.6,38h1v1.2l0,0c0.1-0.1,0.1-0.3,0.2-0.4s0.2-0.3,0.3-0.4c0.1-0.1,0.3-0.2,0.5-0.3s0.4-0.1,0.7-0.1v1.2
					c-0.5,0-0.9,0.1-1.2,0.5c-0.3,0.3-0.5,0.9-0.5,1.8v2.4h-1V38L146.6,38z"/>
				<path d="M153,43L153,43c-0.1,0.1-0.1,0.2-0.2,0.2c-0.1,0.1-0.2,0.2-0.3,0.3c-0.2,0.2-0.6,0.3-1,0.3c-0.5,0-0.9-0.2-1.2-0.4
					c-0.3-0.3-0.4-0.6-0.4-1.1c0-0.4,0.1-0.7,0.3-0.9s0.4-0.4,0.7-0.6s0.6-0.2,1-0.3c0.4,0,0.7-0.1,1.1-0.1v-1
					c-0.1-0.3-0.1-0.5-0.3-0.6s-0.3-0.2-0.6-0.2s-0.5,0.1-0.7,0.2c-0.1,0.2-0.2,0.4-0.2,0.6h-1.1c0-0.5,0.1-0.9,0.5-1.2
					c0.3-0.3,0.9-0.5,1.6-0.5c0.4,0,0.8,0.1,1.1,0.2c0.2,0.2,0.4,0.3,0.5,0.5s0.2,0.4,0.2,0.6c0,0.2,0,0.4,0,0.5v3.9h-1L153,43
					L153,43z M152.8,41.1c-0.4,0-0.8,0.1-1.1,0.3s-0.5,0.5-0.5,0.8c0,0.2,0.1,0.4,0.2,0.5c0.1,0.1,0.2,0.2,0.4,0.2s0.4,0,0.5-0.2
					c0.1-0.1,0.3-0.2,0.4-0.4c0.2-0.3,0.3-0.7,0.4-1V41L152.8,41.1L152.8,41.1z"/>
				<path d="M155.8,38h1v1.2l0,0c0.1-0.1,0.1-0.3,0.2-0.4c0.1-0.2,0.2-0.3,0.3-0.4c0.1-0.1,0.3-0.3,0.5-0.4c0.2-0.1,0.4-0.1,0.7-0.1
					s0.6,0.1,0.8,0.2c0.2,0.1,0.4,0.3,0.4,0.5c0.1,0.2,0.2,0.4,0.2,0.6c0,0.2,0.1,0.4,0.1,0.6v4h-1v-3.1c0-0.5,0-1-0.1-1.2
					c-0.1-0.3-0.3-0.4-0.7-0.4c-0.2,0-0.4,0.1-0.6,0.2c-0.2,0.1-0.3,0.3-0.5,0.5c-0.3,0.5-0.4,1-0.4,1.6v2.4h-1L155.8,38L155.8,38z"
					/>
				<path d="M165.8,43.6c-0.4,0.1-0.9,0.2-1.5,0.2c-0.5,0-0.9-0.1-1.3-0.3c-0.4-0.2-0.6-0.4-0.8-0.8c-0.2-0.3-0.4-0.7-0.4-1
					c-0.1-0.4-0.1-0.7-0.1-1.1c0-0.8,0.2-1.5,0.6-2c0.4-0.5,1-0.8,1.8-0.8c0.4,0,0.7,0,1,0.2c0.2,0.1,0.4,0.3,0.6,0.5
					c0.1,0.2,0.2,0.4,0.3,0.6c0,0.1,0.1,0.2,0.1,0.4c0,0.1,0,0.2,0,0.4h-1.2c0-0.2,0-0.5-0.1-0.8c-0.1-0.1-0.1-0.2-0.3-0.3
					c-0.1-0.1-0.3-0.1-0.5-0.1c-0.3,0-0.6,0.2-0.8,0.5s-0.3,0.7-0.3,1.3c0,0.3,0,0.6,0.1,0.9c0.1,0.3,0.2,0.6,0.4,0.8
					s0.4,0.5,0.7,0.6c0.3,0.2,0.6,0.2,1.1,0.2c0.3,0,0.6,0,0.9-0.1L165.8,43.6L165.8,43.6z"/>
				<path d="M170.8,43.6c-0.2,0-0.4,0.1-0.6,0.1c-0.2,0-0.5,0.1-0.8,0.1c-1.8,0-2.7-1.1-2.7-3.3c0-0.6,0.1-1.1,0.3-1.5
					s0.4-0.6,0.6-0.8s0.5-0.3,0.7-0.4c0.2,0,0.5-0.1,0.6-0.1c0.7,0,1.2,0.2,1.5,0.6c0.3,0.4,0.5,1,0.5,1.7v0.3h-3.2
					c0,0.6,0.1,1.1,0.5,1.7c0.2,0.3,0.4,0.5,0.6,0.6c0.2,0.2,0.6,0.3,0.9,0.3c0.2,0,0.4,0,0.6-0.1c0.2,0,0.3-0.1,0.4-0.1L170.8,43.6
					L170.8,43.6z M169.9,39.7c0-0.2-0.1-0.4-0.2-0.7c-0.1-0.1-0.2-0.2-0.3-0.3s-0.3-0.1-0.5-0.1s-0.4,0-0.5,0.1s-0.3,0.2-0.4,0.3
					c-0.2,0.2-0.3,0.5-0.2,0.6h2.1V39.7z"/>
			</g>
		</g>
	</g>
</g>
</svg>
