<svg width="32" height="32" viewBox="0 0 32 32" fill="none" xmlns="http://www.w3.org/2000/svg">
<path fill-rule="evenodd" clip-rule="evenodd" d="M30.9663 14.4894C30.9663 7.87071 24.2538 2.48606 16.0001 2.48606C7.75006 2.48606 1.03381 7.87071 1.03381 14.4894C1.03381 20.4225 6.35881 25.3921 13.5513 26.3297C14.0388 26.4335 14.7026 26.6484 14.8713 27.0598C15.0213 27.4341 14.9688 28.0196 14.9201 28.3976L14.7063 29.665L14.7001 29.7011C14.6299 30.1039 14.4549 31.1086 16.0038 30.4618C17.6013 29.7984 24.6213 25.4477 27.7638 21.8752C29.9276 19.522 30.9663 17.1354 30.9663 14.4894ZM12.959 11.2911H11.909C11.7478 11.2911 11.6165 11.4208 11.6165 11.5802V18.0247C11.6165 18.1841 11.7478 18.3138 11.909 18.3138H12.959C13.1203 18.3138 13.2515 18.1841 13.2515 18.0247V11.5765C13.2515 11.4208 13.1203 11.2911 12.959 11.2911ZM19.1353 11.2911H20.1853C20.3465 11.2911 20.4778 11.4208 20.4815 11.5765V18.0284C20.4815 18.1878 20.3503 18.3175 20.189 18.3175H19.139C19.1128 18.3175 19.0865 18.3138 19.064 18.3064H19.0603C19.0595 18.3056 19.0586 18.305 19.0576 18.3045C19.0558 18.3036 19.0535 18.303 19.0511 18.3023C19.0481 18.3015 19.0448 18.3006 19.0415 18.2989C19.0415 18.2989 19.0378 18.2952 19.034 18.2952L19.0304 18.2936L19.0269 18.2922C19.0251 18.2916 19.0237 18.291 19.0223 18.2903C19.0212 18.2897 19.0201 18.2889 19.019 18.2878C19.0115 18.2841 19.0078 18.2841 19.004 18.2804C19.0003 18.2804 19.0003 18.2767 18.9965 18.2767C18.9928 18.2749 18.99 18.273 18.9871 18.2712C18.9843 18.2693 18.9815 18.2674 18.9778 18.2656C18.9778 18.2619 18.974 18.2619 18.974 18.2619C18.944 18.2434 18.9178 18.2211 18.899 18.1915L15.9065 14.1965V18.0247C15.9065 18.1841 15.7753 18.3138 15.614 18.3138H14.564C14.4028 18.3138 14.2715 18.1841 14.2715 18.0247V11.5802C14.2715 11.4208 14.4028 11.2911 14.564 11.2911H15.614H15.6253H15.6403C15.644 11.2948 15.6515 11.2948 15.6553 11.2948H15.6665C15.6681 11.2948 15.6696 11.2955 15.6714 11.2962C15.674 11.2973 15.6771 11.2985 15.6815 11.2985C15.6853 11.3022 15.689 11.3022 15.6928 11.3022C15.6965 11.3041 15.6993 11.305 15.7021 11.3059L15.7021 11.3059C15.705 11.3069 15.7078 11.3078 15.7115 11.3097C15.7134 11.3097 15.7153 11.3106 15.7171 11.3115C15.719 11.3124 15.7209 11.3134 15.7228 11.3134C15.7238 11.3143 15.725 11.3151 15.7264 11.3157L15.7303 11.3171C15.7331 11.318 15.7359 11.3189 15.7378 11.3208C15.7378 11.3208 15.7415 11.3245 15.7453 11.3245C15.749 11.3245 15.7565 11.3282 15.7603 11.3319C15.7603 11.3319 15.764 11.3319 15.7678 11.3356C15.7696 11.3374 15.7725 11.3393 15.7753 11.3411L15.7753 11.3412C15.7781 11.343 15.7809 11.3449 15.7828 11.3467L15.7903 11.3541L15.793 11.3564L15.7978 11.3597C15.8006 11.3615 15.8034 11.3634 15.8053 11.3652C15.8053 11.3652 15.8053 11.3689 15.809 11.3689L15.8278 11.3875L15.8315 11.3912C15.8353 11.3967 15.839 11.4014 15.8428 11.406L15.8472 11.4115C15.8494 11.4144 15.8517 11.4174 15.854 11.4208L18.8428 15.4084V11.5802C18.8428 11.4208 18.974 11.2911 19.1353 11.2911ZM10.4278 16.6943H7.57405V11.5765C7.57405 11.4172 7.4428 11.2874 7.28155 11.2874H6.23155C6.0703 11.2874 5.93905 11.4172 5.93905 11.5765V18.021C5.93905 18.0989 5.96905 18.1693 6.02155 18.2212L6.0253 18.2249L6.02905 18.2286C6.08155 18.2767 6.1528 18.3101 6.23155 18.3101H10.4241C10.5853 18.3101 10.7166 18.1804 10.7166 18.021V16.9834C10.7203 16.824 10.5891 16.6943 10.4278 16.6943ZM26.2753 12.6142C26.2753 12.7735 26.1441 12.9032 25.9828 12.9032V12.8995H23.1291V13.989H25.9828C26.1441 13.989 26.2753 14.1187 26.2753 14.2781V15.3157C26.2753 15.4751 26.1441 15.6048 25.9828 15.6048H23.1291V16.6943H25.9828C26.1441 16.6943 26.2753 16.824 26.2753 16.9834V18.021C26.2753 18.1804 26.1441 18.3101 25.9828 18.3101H21.7903C21.7116 18.3101 21.6403 18.2767 21.5878 18.2286L21.5841 18.2249L21.5803 18.2212C21.5278 18.1693 21.4978 18.0989 21.4978 18.021V11.5765C21.4978 11.4987 21.5316 11.4283 21.5803 11.3764C21.5803 11.3764 21.5841 11.3764 21.5841 11.3727L21.5878 11.369C21.6403 11.3171 21.7116 11.2874 21.7903 11.2874H25.9828C26.1441 11.2874 26.2753 11.4171 26.2753 11.5765V12.6142Z" fill="#EF4F4F"/>
</svg>
