<svg width="64" height="21" viewBox="0 0 64 21" fill="none" xmlns="http://www.w3.org/2000/svg">
<path fill-rule="evenodd" clip-rule="evenodd" d="M58.6025 20.0949H63.0382C62.71 18.5063 62.3906 17.0064 62.0269 15.4888C61.4503 12.5955 60.8559 9.69338 60.2526 6.80013C59.8327 4.77071 59.4039 2.74425 58.9663 0.72075C58.9308 0.569875 58.7445 0.339125 58.6292 0.339125C57.1624 0.303625 55.6839 0.303625 54.1935 0.339125C53.605 0.381941 53.0764 0.714575 52.7829 1.22663C52.562 1.55924 52.3748 1.91303 52.224 2.28275C49.9234 7.78525 47.6286 13.2937 45.3398 18.808L44.8164 20.0949H49.9441C50.0417 20.0949 50.2191 19.9263 50.2191 19.8109C50.4941 19.0565 50.7602 18.3021 50.9998 17.5478C51.0495 17.2679 51.3133 17.0788 51.5941 17.1217H57.263C57.6711 17.1129 57.7864 17.2815 57.8485 17.6276C57.9816 18.3554 58.1324 19.0742 58.3009 19.7931C58.3364 19.9174 58.4961 20.0949 58.6025 20.0949ZM55.2492 5.82387H55.3822L56.9347 13.0836H52.641L55.2492 5.82387Z" fill="white"/>
<path d="M0.00685258 0.897703C-0.0375044 0.445078 0.131052 0.294203 0.583493 0.303078C3.17394 0.303078 5.77326 0.303078 8.37257 0.303078C9.04128 0.21823 9.71507 0.416014 10.2319 0.84887C10.7488 1.28173 11.0619 1.91049 11.0961 2.58395C11.7792 6.2582 12.4889 9.93245 13.2075 13.7221C13.2857 13.6068 13.3539 13.4851 13.4115 13.3582C15.0616 9.18695 16.7028 5.01866 18.3351 0.853328C18.4233 0.475928 18.7858 0.229028 19.1691 0.285328C20.553 0.285328 21.9369 0.285328 23.3209 0.285328H23.8975L22.7975 2.94783C20.4732 8.50949 18.1488 14.0741 15.8245 19.6417C15.7501 19.944 15.4581 20.14 15.1503 20.0943C13.6599 20.0943 12.1695 20.0943 10.7146 20.0943C10.5899 20.1174 10.4612 20.086 10.3612 20.0079C10.2611 19.9299 10.1992 19.8127 10.1912 19.6861C8.86937 14.5386 7.52979 9.40883 6.20795 4.26133C6.05759 3.41139 5.47117 2.70336 4.66433 2.39758C3.26265 1.8917 1.84323 1.44795 0.432679 0.986453C0.272994 0.959828 0.139923 0.933203 0.00685258 0.897703Z" fill="white"/>
<path d="M31.412 15.1067C32.0063 15.3463 32.5475 15.5948 33.1064 15.7723C34.7068 16.3999 36.4651 16.5025 38.1276 16.0652C38.5183 15.9325 38.8776 15.7211 39.1833 15.444C39.5077 15.1929 39.7012 14.8086 39.7098 14.3984C39.7185 13.9882 39.5412 13.5961 39.2276 13.3317C38.7569 12.9176 38.2457 12.5519 37.7018 12.2401C36.8146 11.6987 35.8654 11.2283 34.996 10.6515C33.6684 9.91081 32.7845 8.56965 32.6273 7.05708C32.3936 4.83166 33.4694 2.67222 35.3863 1.51908C36.799 0.626219 38.4191 0.11552 40.0882 0.0369577C41.8864 -0.0930824 43.6928 0.120771 45.411 0.667083C45.8191 0.791333 45.9699 0.942208 45.8457 1.40371C45.553 2.57521 45.3223 3.77333 45.0739 4.95371C44.2666 4.72296 43.5125 4.45671 42.7407 4.28808C41.6041 3.99022 40.4078 4.00863 39.2809 4.34133C39.1333 4.38583 38.9906 4.4453 38.8551 4.51883C37.6485 5.14896 37.5332 6.20508 38.6333 7.01271C39.2543 7.47421 39.9728 7.82033 40.6382 8.21971C41.3036 8.61908 41.9867 8.96521 42.6076 9.40896C43.9536 10.314 44.8299 11.7687 45.0011 13.382C45.1723 14.9953 44.6208 16.6017 43.4948 17.7692C42.1977 19.1263 40.4763 19.9999 38.6155 20.2453C36.0381 20.6618 33.3971 20.4144 30.9418 19.5265C30.5869 19.4111 30.5071 19.2691 30.5958 18.8963C30.8531 17.8225 31.0571 16.7397 31.2878 15.657C31.3055 15.4528 31.3587 15.302 31.412 15.1067Z" fill="white"/>
<path d="M31.163 0.312472C29.7613 6.95097 28.3774 13.4918 26.9846 20.0682H21.9102C22.061 19.3493 22.194 18.6482 22.3449 17.956C23.5277 12.2937 24.7313 6.63443 25.9555 0.978097C26.1241 0.170472 26.0442 0.321347 26.7717 0.312472H31.163Z" fill="white"/>
</svg>
