<?xml version="1.0" encoding="UTF-8"?>
<svg width="100px" height="103px" viewBox="0 0 100 103" version="1.1" xmlns="http://www.w3.org/2000/svg" xmlns:xlink="http://www.w3.org/1999/xlink">
    <title>Page 1</title>
    <defs>
        <polygon id="path-1" points="0 0.215084667 92.8460352 0.215084667 92.8460352 44.6017699 0 44.6017699"></polygon>
        <polygon id="path-3" points="0 102 100 102 100 0 0 0"></polygon>
    </defs>
    <g id="Symbols" stroke="none" stroke-width="1" fill="none" fill-rule="evenodd">
        <g id="我的專區/icon/投資屬性" transform="translate(-10.000000, -9.000000)">
            <g id="Page-1" transform="translate(10.000000, 9.000000)">
                <g id="Group-3" transform="translate(0.000000, 58.000000)">
                    <mask id="mask-2" fill="white">
                        <use xlink:href="#path-1"></use>
                    </mask>
                    <g id="Clip-2"></g>
                    <path d="M89.0653399,27.2264515 C88.7076476,27.9365294 88.1711091,28.4693097 87.4557245,28.8241268 L59.9136404,39.2977763 C53.4749553,41.7832709 46.142263,41.6057514 39.7038014,39.1204787 L25.0384168,33.0845944 L25.0384168,16.2202436 L29.5095707,16.2202436 C35.4114938,16.2202436 41.3134168,17.6406213 46.6788014,20.3034136 C48.467263,21.191011 50.4345707,21.545828 52.4018784,21.545828 L66.1732558,21.545828 C67.6038014,21.545828 68.8559481,22.7884644 68.8559481,24.2086203 C68.8559481,25.4512566 67.9617173,26.5165954 66.7095707,26.8714125 L44.7114938,26.8714125 L44.7114938,30.4218021 L65.9941861,30.4218021 L66.1732558,30.4218021 L66.3518784,30.4218021 C67.7826476,30.4218021 69.2134168,30.0669851 70.4653399,29.5342047 L85.3095707,23.3210229 C86.0249553,22.9662058 86.7405635,22.9662058 87.4557245,23.3210229 C88.1711091,23.6760618 88.7076476,24.2086203 89.0653399,24.9189201 C89.4232558,25.628998 89.4232558,26.5165954 89.0653399,27.2264515 L89.0653399,27.2264515 Z M53.4749553,3.7938798 C65.4576476,3.7938798 75.1155635,10.8946591 75.1155635,19.7706332 C75.1155635,21.191011 74.7576476,22.6109449 74.3999553,24.0313227 L72.4328712,24.9189201 L72.4328712,24.2086203 C72.4328712,20.8357501 69.5711091,17.9954384 66.1732558,17.9954384 L52.2230322,17.9954384 C50.792263,17.9954384 49.3614938,17.6406213 48.1095707,17.107841 C43.6384168,14.9778291 38.9884168,13.5574513 34.1595707,13.0248929 C37.7364938,7.52178893 45.2480322,3.7938798 53.4749553,3.7938798 L53.4749553,3.7938798 Z M10.7307245,35.7473866 L21.4614938,35.7473866 L21.4614938,14.4450487 L10.7307245,14.4450487 L10.7307245,35.7473866 Z M92.4634168,23.6760618 C91.7480322,22.0786084 90.4961091,20.6582306 88.8864938,20.1256722 C87.2768784,19.4158161 85.4884168,19.4158161 83.8788014,20.1256722 L78.3345707,22.4334254 C78.6924865,21.3685304 78.6924865,20.6582306 78.6924865,19.7706332 C78.6924865,17.8543104 78.3307702,15.9464198 77.6462365,14.1554701 C76.950525,12.3356735 75.9304313,10.6470194 74.687674,9.144317 C73.3760611,7.55840232 71.8200995,6.17863215 70.1194962,5.01610144 C68.3010779,3.77324316 66.315662,2.77647127 64.2448471,2.02046018 C62.0282726,1.21119324 59.7117678,0.677303395 57.3666476,0.406586184 C55.7489841,0.219968828 54.1407101,0.230619997 52.5145514,0.215530841 C51.2760418,0.204435874 49.9583928,0.402148197 48.7364264,0.598307225 C47.5216139,0.793356756 46.3179793,1.05985788 45.1358063,1.39936389 C42.87765,2.0479757 40.6928207,2.96442002 38.6749889,4.16400792 C36.7805611,5.29059094 35.0314457,6.66947352 33.5499288,8.29799287 C32.3594841,9.60675525 31.3454264,11.0761728 30.5826476,12.6698539 L25.0384168,12.6698539 C25.0384168,11.6049589 24.3230322,10.8946591 23.2499553,10.8946591 L8.94226298,10.8946591 C7.86918606,10.8946591 7.15380144,11.6049589 7.15380144,12.6698539 L-4.47115385e-05,12.6698539 L-4.47115385e-05,16.2202436 L7.15380144,16.2202436 L7.15380144,33.9721918 L-4.47115385e-05,33.9721918 L-4.47115385e-05,37.5225814 L7.15380144,37.5225814 C7.15380144,38.5876983 7.86918606,39.2977763 8.94226298,39.2977763 L23.2499553,39.2977763 C24.3230322,39.2977763 25.0384168,38.5876983 25.0384168,37.5225814 L25.0384168,36.8125035 L38.4518784,42.3156074 C45.7845707,45.3336605 53.8326476,45.3336605 61.1653399,42.4933488 L88.7076476,32.196997 C90.3174865,31.6644385 91.7480322,30.4218021 92.2845707,28.8241268 C93.0001788,27.2264515 93.0001788,25.4512566 92.4634168,23.6760618 L92.4634168,23.6760618 Z" id="Fill-1" fill="#333333" mask="url(#mask-2)"></path>
                </g>
                <mask id="mask-4" fill="white">
                    <use xlink:href="#path-3"></use>
                </mask>
                <g id="Clip-5"></g>
                <path d="M49.341316,51.1333875 C42.176645,51.1333875 36.0866746,45.8352148 35.1910907,38.7709845 L36.8031417,38.7709845 C43.9678127,38.7709845 50.0577831,44.0691572 50.9533669,51.1333875 L49.341316,51.1333875 Z M69.0441612,38.7709845 L70.6562122,38.7709845 C69.7606283,45.8352148 63.670658,51.1333875 56.505987,51.1333875 L54.893936,51.1333875 C55.7895199,44.0691572 61.8794902,38.7709845 69.0441612,38.7709845 L69.0441612,38.7709845 Z M78,77.6242512 C78,67.3811172 67.7903438,58.9040409 54.7148192,58.1976178 L54.7148192,54.6655027 L56.505987,54.6655027 C66.3574096,54.6655027 74.4176645,46.7182436 74.4176645,37.0049269 C74.4176645,35.9452924 73.7011974,35.2388693 72.6264967,35.2388693 L69.0441612,35.2388693 C63.3124244,35.2388693 58.118038,37.8879557 54.7148192,42.3030996 L54.7148192,32.589783 L67.2397836,23.9458141 C66.5618266,22.999428 66.5063004,21.6342655 67.0709661,20.6174579 C66.9111043,20.4172311 66.7557205,20.2139137 66.6157856,20 L52.9236515,29.5874851 L39.9070115,20.4130367 C39.2556982,21.3243224 38.6162513,22.2492951 37.9510563,23.1488807 L51.3116005,32.589783 L51.3116005,42.3030996 C47.9083818,37.8879557 42.7139953,35.2388693 36.9822585,35.2388693 L33.399923,35.2388693 C32.3252223,35.2388693 31.6087552,35.9452924 31.6087552,37.0049269 C31.6087552,46.7182436 39.6690101,54.6655027 49.5204327,54.6655027 L51.3116005,54.6655027 L51.3116005,58.1976178 C41.6392946,58.7274351 33.2208062,63.4957906 29.8175875,70.5600209 L29.6606364,70.5600209 C29.3485254,71.2821177 28.8975989,71.9443893 28.3488299,72.520124 C28.3071853,73.0636282 28.1862814,73.5905757 28,74.092136 L28.7428868,74.092136 C29.9846139,74.092136 31.226117,74.1574802 32.4624706,74.2813249 C32.4660529,73.0627452 32.8681701,71.9134832 33.5369473,70.9300099 C33.4912725,70.9247118 33.4455978,70.9183098 33.399923,70.9132324 C36.9822585,65.4384539 44.505163,61.729733 52.7445347,61.729733 C64.7453586,61.729733 74.4176645,68.7939633 74.4176645,77.6242512 C74.4176645,79.0370972 74.0594309,80.4499433 73.7011974,81.8627894 L73.5408879,81.9345355 C73.6087284,82.2850979 73.6528359,82.6431661 73.6696281,83.0074154 C73.7179896,84.0727897 73.4573747,85.0909219 72.9775656,86 L76.9658245,84.3418927 C76.9425393,83.4767452 77.1191933,82.6433868 77.4530221,81.8771386 C77.4608585,81.3146492 77.5488496,80.7662884 77.7131893,80.2437561 L77.6417664,80.2733375 C78,79.213703 78,78.50728 78,77.6242512 L78,77.6242512 Z" id="Fill-6" fill="#333333" mask="url(#mask-4)"></path>
                <path d="M86.818298,19.775 C86.4635997,18.55 85.3997265,17.325 84.3356316,16.8 L80.9659978,15.05 C80.2563795,14.7 79.9019029,13.825 80.2563795,13.125 C80.2563795,12.6 80.7886487,12.25 81.4978236,12.25 L82.029871,12.25 C82.7394893,12.25 83.4488859,12.95 83.4488859,13.825 L83.4488859,14 L86.9958688,14 L86.9958688,13.825 C86.9958688,11.725 85.5768539,9.8 83.4488859,9.1 L83.4488859,7 L79.9019029,7 L79.9019029,8.925 C77.2416657,9.8 75.8226509,12.6 76.5322691,15.225 C76.8867457,16.45 77.9508406,17.675 79.0151572,18.2 L82.3845693,19.95 C83.0939659,20.3 83.4488859,21.175 83.0939659,21.875 C82.9166167,22.4 82.3845693,22.75 81.6753944,22.75 L81.1431253,22.75 C80.2563795,22.75 79.5469829,22.05 79.5469829,21.175 L79.5469829,21 L76,21 L76,21.175 C76.35492,23.45 77.7734915,25.375 79.9019029,26.075 L79.9019029,28 L83.4488859,28 L83.4488859,26.075 C86.1091231,25.2 87.5276946,22.4 86.818298,19.775" id="Fill-7" fill="#D70C18" mask="url(#mask-4)"></path>
                <path d="M30,14 L30,13.825 C30,11.55 28.5806452,9.625 26.4516129,8.925 L26.4516129,7 L22.9032258,7 L22.9032258,8.925 C20.2419355,9.8 18.8225806,12.6 19.5322581,15.225 C19.8870968,16.45 20.9516129,17.675 22.016129,18.2 L25.3870968,19.95 C26.0967742,20.3 26.4516129,21.175 26.0967742,21.875 C25.9193548,22.4 25.3870968,22.75 24.6774194,22.75 L24.1451613,22.75 C23.2580645,22.75 22.5483871,22.05 22.5483871,21.175 L22.5483871,21 L19,21 L19,21.175 C19,23.275 20.4193548,25.2 22.5483871,25.9 L22.5483871,28 L26.0967742,28 L26.0967742,26.075 C28.7580645,25.2 30.1774194,22.4 29.4677419,19.775 C29.1129032,18.55 28.0483871,17.325 26.983871,16.8 L23.6129032,15.05 C22.9032258,14.7 22.5483871,13.825 22.9032258,13.125 C23.2580645,12.6 23.7903226,12.25 24.5,12.25 L25.0322581,12.25 C25.7419355,12.25 26.4516129,12.95 26.4516129,13.825 L26.4516129,14 L30,14 Z" id="Fill-10" fill="#D70C18" mask="url(#mask-4)"></path>
                <path d="M82,3.5679332 C74.0420466,3.5679332 67.567889,10.042171 67.567889,18 C67.567889,25.958052 74.0420466,32.4320668 82,32.4320668 C89.9579534,32.4320668 96.432111,25.958052 96.432111,18 C96.432111,10.042171 89.9579534,3.5679332 82,3.5679332 M82,36 C72.0748018,36 64,27.9253212 64,18 C64,8.07467882 72.0748018,0 82,0 C91.9251982,0 100,8.07467882 100,18 C100,27.9253212 91.9251982,36 82,36" id="Fill-13" fill="#D70C18" mask="url(#mask-4)"></path>
                <path d="M24,3.5679332 C16.041948,3.5679332 9.5679332,10.042171 9.5679332,18 C9.5679332,25.958052 16.041948,32.4320668 24,32.4320668 C31.958052,32.4320668 38.4320668,25.958052 38.4320668,18 C38.4320668,10.042171 31.958052,3.5679332 24,3.5679332 M24,36 C14.0746788,36 6,27.9253212 6,18 C6,8.07467882 14.0746788,0 24,0 C33.9253212,0 42,8.07467882 42,18 C42,27.9253212 33.9253212,36 24,36" id="Fill-14" fill="#D70C18" mask="url(#mask-4)"></path>
            </g>
        </g>
    </g>
</svg>