<?xml version="1.0" encoding="utf-8"?>
<!-- Generator: Adobe Illustrator 23.0.6, SVG Export Plug-In . SVG Version: 6.00 Build 0)  -->
<svg version="1.1" id="圖層_1" xmlns="http://www.w3.org/2000/svg" xmlns:xlink="http://www.w3.org/1999/xlink" x="0px" y="0px"
	 viewBox="0 0 38 38" style="enable-background:new 0 0 38 38;" xml:space="preserve">
<style type="text/css">
	.st0{fill:none;}
	.st1{fill:#00A94F;}
</style>
<path class="st0" d="M0,0h38v38H0V0z"/>
<g>
	<path class="st1" d="M20.2,31.1c-0.4,0-0.7,0.4-0.7,0.8c0,0.4,0.4,0.7,0.8,0.7c1.9-0.2,3.5-0.9,4.6-2.1c1.5-1.5,2.2-3.5,2-5.9
		c-0.1-2.3-1-4.8-2.5-7.2c-1.2-1.8-1.7-2-2.2-2c-0.3,0-0.6,0.2-0.7,0.6c-0.1,0.2-0.1,0.4,0,0.7c0.1,0.6,0.2,2.2-0.3,3.3
		c-0.1,0.2-0.2,0.4-0.4,0.5c-0.6-4.6-2.7-5.7-4.5-6.6c-0.2-0.1-0.3-0.2-0.5-0.3c-0.3-0.1-0.6-0.1-0.8,0.1c-0.2,0.2-0.3,0.5-0.3,0.8
		c0.8,3-0.2,4.8-1.3,6.8c-0.2,0.3-0.4,0.7-0.5,1c-1.2,2.4-0.9,5.4,0.9,7.6c0.2,0.3,0.7,0.4,1,0.1c0,0,0,0,0,0
		c0.3-0.3,0.4-0.7,0.1-1.1c-1.4-1.7-1.6-4.1-0.7-6c0.2-0.3,0.3-0.6,0.5-1c0.9-1.7,2-3.6,1.7-6.3c1.3,0.8,2.5,1.9,2.9,5.1
		c0.1,0.7,0.5,1.2,1.1,1.3c0.8,0.1,1.7-0.5,2.1-1.4c0.4-0.9,0.5-1.9,0.5-2.7c0.1,0.1,0.1,0.2,0.2,0.3c1.4,2.2,2.2,4.4,2.3,6.4
		c0.1,2-0.4,3.6-1.6,4.8C23,30.4,21.8,30.9,20.2,31.1z"/>
	<path class="st1" d="M17.1,30.6c-0.4-0.2-0.8,0-1,0.4c0,0,0,0,0,0c-0.2,0.4,0,0.8,0.4,1l0,0c0.4,0.2,0.8,0,1-0.4c0,0,0,0,0,0
		C17.7,31.2,17.5,30.8,17.1,30.6C17.1,30.6,17.1,30.6,17.1,30.6z"/>
</g>
<g>
	<path class="st1" d="M32.7,20c-0.1-0.4-0.4-0.7-0.8-0.6c0,0,0,0,0,0c-0.4,0.1-0.7,0.4-0.6,0.9c0.6,3.8,1.1,12.9-6.3,15.5
		c-3.8,1.3-9,1-12.4-0.9C7.1,32,6,25.4,9.6,17.7c1.1-2.4,1.8-4.2,1.5-8.1c-0.1-1-0.6-2-1-2.7C10,6.7,9.8,6.4,9.7,6.1
		c0.3,0,0.8,0.1,1.4,0.4c0.9,0.5,2.6,1.7,3.3,4.9c0.1,0.3,0.3,0.5,0.5,0.6c0.3,0.1,0.5,0,0.7-0.2c1.3-1.4,2-3.3,1.9-5.8
		c0-1.6-0.3-3.1-0.6-4.4c0.6,0.2,1.5,0.6,2.3,1.5C20.9,5,21.8,8,22.1,12c0,0.2,0.1,0.4,0.3,0.5c0.1,0.1,0.5,0.4,1.1,0
		c0.9-0.6,2.3-2.9,2-6.1c0.2,0.3,0.5,0.6,0.9,1.1c1.2,1.6,2.3,3.7,3.2,6.2c0.1,0.4,0.6,0.6,0.9,0.4c0,0,0,0,0,0
		c0.4-0.1,0.6-0.6,0.4-1c-1-2.6-2.1-4.8-3.5-6.6c-0.6-0.7-1.1-1.3-1.5-1.7c-0.4-0.4-1-1-1.7-0.7c-0.5,0.2-0.6,0.7-0.5,1.4
		c0.4,2.1,0,3.6-0.4,4.6c-0.4-3.5-1.5-6.2-3-8C18.6,0.3,16.7,0,16,0c-0.2,0-0.5,0.1-0.6,0.3c-0.1,0.2-0.2,0.4-0.1,0.7
		c0.7,2.6,1.4,6.1,0.1,8.7c-1.3-3.7-4-4.9-5.5-5C9,4.6,8.4,4.9,8.2,5.5C8,6.2,8.4,6.9,8.8,7.7c0.4,0.7,0.8,1.4,0.8,2.1
		c0.3,3.5-0.3,5.1-1.3,7.3c-2.1,4.4-2.8,8.5-2,11.9c0.7,3.2,2.6,5.6,5.5,7.2c1.9,1,4.2,1.6,6.8,1.8c0.4,0,0.9,0,1.3,0
		c2,0,4-0.3,5.6-0.9c3.2-1.1,5.4-3.4,6.6-6.9C33,27.4,33.3,23.9,32.7,20z"/>
	<path class="st1" d="M30.6,17.1L30.6,17.1c0.1,0.3,0.4,0.4,0.7,0.4c0.1,0,0.2,0,0.3-0.1c0.4-0.2,0.5-0.6,0.3-1l0,0
		c-0.2-0.4-0.6-0.5-1-0.3c0,0,0,0,0,0C30.6,16.3,30.5,16.8,30.6,17.1L30.6,17.1z"/>
</g>
</svg>
