<?xml version="1.0" encoding="UTF-8"?>
<svg width="16px" height="18px" viewBox="0 0 16 18" version="1.1" xmlns="http://www.w3.org/2000/svg" xmlns:xlink="http://www.w3.org/1999/xlink">
    <!-- Generator: Sketch 63 (92445) - https://sketch.com -->
    <title>pdf-file-format-symbol</title>
    <desc>Created with Sketch.</desc>
    <g id="Symbols" stroke="none" stroke-width="1" fill="none" fill-rule="evenodd">
        <g id="icon/icon-pdf" transform="translate(-4.000000, -3.000000)" fill="#D73436">
            <g id="pdf-file-format-symbol" transform="translate(4.000000, 3.000000)">
                <path d="M4.17039391,8.96421027 C4.17039391,8.4970257 3.83665756,8.2184138 3.24890591,8.2184138 C3.00908751,8.2184138 2.84615079,8.24071125 2.76096939,8.26407048 L2.76096939,9.76203412 C2.86165817,9.78454392 2.98615406,9.7919764 3.15586161,9.7919764 C3.78292776,9.7919764 4.17039391,9.48342223 4.17039391,8.96421027 Z" id="Fill-1"></path>
                <path d="M7.81004219,8.23327877 C7.54641668,8.23327877 7.37649071,8.25642564 7.27580193,8.27893544 L7.27580193,11.5987066 C7.37649071,11.6218535 7.53964585,11.6218535 7.68620154,11.6218535 C8.75446365,11.6284365 9.45142222,11.0569848 9.45142222,9.84506556 C9.45928512,8.79071491 8.82435608,8.23327877 7.81004219,8.23327877 Z" id="Fill-2"></path>
                <path d="M14.7846514,6.28320787 L14.3572155,6.28320787 L14.3572155,4.27558832 C14.3572155,4.26327163 14.354813,4.24989317 14.3530657,4.23757648 C14.352192,4.15794275 14.3266376,4.08000787 14.2702868,4.01778737 L10.8337634,0.201101725 C10.8328898,0.200252299 10.8320161,0.199402872 10.8311425,0.198553446 C10.8106116,0.176256 10.7868045,0.15799333 10.7619053,0.14227894 C10.7542608,0.137182381 10.7466163,0.133147605 10.7389718,0.128900472 C10.7166936,0.117220858 10.6937602,0.107240096 10.669953,0.100657041 C10.6629638,0.098958188 10.6579403,0.0966222651 10.6511695,0.094923412 C10.6253966,0.0891897831 10.5980949,0.0849426506 10.5707932,0.0849426506 L2.12604035,0.0849426506 C1.74053991,0.0849426506 1.42646081,0.39031148 1.42646081,0.764271499 L1.42646081,6.28320787 L0.999024917,6.28320787 C0.447093136,6.28320787 0,6.71768952 0,7.25452707 L0,12.30458 C0,12.8412052 0.447093136,13.2758992 0.999024917,13.2758992 L1.42646081,13.2758992 L1.42646081,16.7332775 C1.42646081,17.1082993 1.74053991,17.4136681 2.12604035,17.4136681 L13.657636,17.4136681 C14.0433549,17.4136681 14.3572155,17.1082993 14.3572155,16.7332775 L14.3572155,13.2767486 L14.7846514,13.2767486 C15.3368016,13.2767486 15.7838948,12.8412052 15.7838948,12.3054294 L15.7838948,7.25452707 C15.7838948,6.71768952 15.3368016,6.28320787 14.7846514,6.28320787 Z M2.12604035,0.764271499 L10.2211126,0.764271499 L10.2211126,4.24161126 C10.2211126,4.42912216 10.3781522,4.58095715 10.5707932,4.58095715 L13.657636,4.58095715 L13.657636,6.28320787 L2.12604035,6.28320787 L2.12604035,0.764271499 Z M10.7057729,9.80684137 C10.7057729,10.7781606 10.3414586,11.447721 9.83801472,11.8624535 C9.28848549,12.3062789 8.4523973,12.5169366 7.43043893,12.5169366 C6.81953541,12.5169366 6.38511028,12.4795619 6.09090683,12.4421871 L6.09090683,7.45860179 C6.5242399,7.39043532 7.08993175,7.35327291 7.68620154,7.35327291 C8.67692673,7.35327291 9.31928185,7.52570649 9.82272575,7.8947823 C10.3652657,8.28636792 10.7057729,8.91112112 10.7057729,9.80684137 Z M1.5920185,12.4646969 L1.5920185,7.45860179 C1.95545913,7.39808015 2.46654753,7.35327291 3.18665797,7.35327291 C3.91441289,7.35327291 4.43401942,7.48833172 4.78217109,7.75972349 C5.11481537,8.01518851 5.33912639,8.43735348 5.33912639,8.93426799 C5.33912639,9.4311825 5.16941883,9.85249804 4.85883435,10.1387548 C4.45607922,10.5069812 3.86068309,10.6728317 3.1635061,10.6728317 C3.00821386,10.6728317 2.86930265,10.6653992 2.76096939,10.6505342 L2.76096939,12.4646969 L1.5920185,12.4646969 Z M2.12604035,16.5500137 L13.657636,16.5500137 L13.657636,13.2767486 L2.12604035,13.2767486 L2.12604035,16.5500137 Z M14.670421,8.33117517 L12.6653819,8.33117517 L12.6653819,9.49085471 L14.5389359,9.49085471 L14.5389359,10.4241621 L12.6653819,10.4241621 L12.6653819,12.4646969 L11.4811421,12.4646969 L11.4811421,7.39043532 L14.670421,7.39043532 L14.670421,8.33117517 Z" id="Fill-3"></path>
            </g>
        </g>
    </g>
</svg>