<?xml version="1.0" encoding="UTF-8"?>
<svg width="28px" height="28px" viewBox="0 0 28 28" version="1.1" xmlns="http://www.w3.org/2000/svg" xmlns:xlink="http://www.w3.org/1999/xlink">
    <!-- Generator: Sketch 63 (92445) - https://sketch.com -->
    <title>Group 3 Copy 2</title>
    <desc>Created with Sketch.</desc>
    <g id="Symbols" stroke="none" stroke-width="1" fill="none" fill-rule="evenodd">
        <g id="qbar-off" transform="translate(-961.000000, -11.000000)" fill="#C0E754">
            <g id="Group-9">
                <g id="Group-3-Copy-2" transform="translate(961.000000, 11.000000)">
                    <path d="M6.05107417,0 C6.81012682,0 7.53467708,0.583213822 7.53467708,1.4751879 L7.53467708,1.4751879 L7.534,13.095 L11.4294522,16.6028084 L13.1376067,18.1408376 L20.9390287,25.1652695 C21.6273895,25.7850723 21.5274016,26.7164489 21.0656695,27.2292544 C20.5808507,27.7677002 19.6881145,27.9388554 18.9997537,27.3190526 L18.9997537,27.3190526 L7.534,16.996 L7.53467708,26.3475421 C7.53467708,27.2193357 6.86229826,27.7568469 6.20789748,27.8170669 L6.08557656,27.82273 C5.3610263,27.82273 4.63647604,27.2738229 4.63647604,26.3475421 L4.63647604,26.3475421 L4.636,14.387 L0.515992429,10.6761992 C-0.0815429578,10.1381759 -0.156987963,9.33574657 0.273439435,8.75162504 L0.366265075,8.63785453 C0.874170437,8.07376848 1.79240153,7.92556892 2.45526745,8.52241608 L2.45526745,8.52241608 L4.636,10.486 L4.63647604,1.4751879 C4.63647604,0.66797154 5.18660417,0.0734804307 5.91291712,0.00633343634 Z" id="Combined-Shape"></path>
                    <circle id="Oval-4" cx="18.8560913" cy="8.4225676" r="8.4225676"></circle>
                </g>
            </g>
        </g>
    </g>
</svg>