<?xml version="1.0" encoding="UTF-8"?>
<svg width="27px" height="28px" viewBox="0 0 27 28" version="1.1" xmlns="http://www.w3.org/2000/svg" xmlns:xlink="http://www.w3.org/1999/xlink">
    <!-- Generator: Sketch 63 (92445) - https://sketch.com -->
    <title>Group 3 Copy 3</title>
    <desc>Created with Sketch.</desc>
    <g id="Symbols" stroke="none" stroke-width="1" fill="none" fill-rule="evenodd">
        <g id="qbar-open" transform="translate(-962.000000, -11.000000)" fill="#D8D8D8">
            <g id="Group-3-Copy-3" transform="translate(962.000000, 11.000000)">
                <path d="M6.61565971,0.0891823349 C7.37471236,0.0891823349 8.09926262,0.672396157 8.09926262,1.56437024 L8.09926262,1.56437024 L8.09926262,26.4367244 C8.09926262,27.3630052 7.34020997,27.9119123 6.6501621,27.9119123 C5.92561184,27.9119123 5.20106158,27.3630052 5.20106158,26.4367244 L5.20106158,26.4367244 L5.20106158,1.56437024 C5.20106158,0.706702852 5.82210466,0.0891823349 6.61565971,0.0891823349 Z M2.05107417,0 C2.81012682,0 3.53467708,0.583213822 3.53467708,1.4751879 L3.53467708,1.4751879 L3.53467708,26.3475421 C3.53467708,27.2738229 2.77562443,27.82273 2.08557656,27.82273 C1.3610263,27.82273 0.636476044,27.2738229 0.636476044,26.3475421 L0.636476044,26.3475421 L0.636476044,1.4751879 C0.636476044,0.617520517 1.25751912,0 2.05107417,0 Z" id="Combined-Shape"></path>
                <circle id="Oval-4" cx="18.4225676" cy="8.4225676" r="8.4225676"></circle>
            </g>
        </g>
    </g>
</svg>