<?xml version="1.0" encoding="UTF-8"?>
<svg width="20px" height="20px" viewBox="0 0 20 20" version="1.1" xmlns="http://www.w3.org/2000/svg" xmlns:xlink="http://www.w3.org/1999/xlink">
    <!-- Generator: Sketch 63 (92445) - https://sketch.com -->
    <title>plus (1)</title>
    <desc>Created with Sketch.</desc>
    <g id="Symbols" stroke="none" stroke-width="1" fill="none" fill-rule="evenodd">
        <g id="icon/close-20" fill="#27327B">
            <path d="M10.0014205,0 C4.45467201,0 0,4.45467201 0,10.0014205 C0,15.545328 4.45467201,20 10.0014205,20 C15.545328,20 20,15.545328 20,10.0014205 C20,4.45467201 15.545328,0 10.0014205,0 Z M16,10.4990885 C16,10.7997292 15.7999896,10.9997396 15.4993489,10.9997396 L4.50065108,10.9997396 C4.20001042,10.9997396 4,10.7997292 4,10.4990885 L4,9.50091151 C4,9.20027085 4.20001042,9.00026043 4.50065108,9.00026043 L15.4993489,9.00026043 C15.7999896,9.00026043 16,9.20027085 16,9.50091151 L16,10.4990885 Z" id="plus-(1)"></path>
        </g>
    </g>
</svg>