<?xml version="1.0" standalone="no"?><!DOCTYPE svg PUBLIC "-//W3C//DTD SVG 1.1//EN" "http://www.w3.org/Graphics/SVG/1.1/DTD/svg11.dtd"><svg t="1606096414166" class="icon" viewBox="0 0 1430 1024" version="1.1" xmlns="http://www.w3.org/2000/svg" p-id="5145" xmlns:xlink="http://www.w3.org/1999/xlink" width="279.296875" height="200"><defs><style type="text/css"></style></defs><path d="M1226.216877 195.477235c-69.732744 45.29809-98.65156 77.519612-139.975663 75.640023-41.297251-1.852738-112.372559-45.915669-141.667292-58.535765-46.184182-19.843087-112.050343-34.71869-152.434651-8.377596-32.114117 23.387455-4.591567 62.509753 7.330396 77.170546s69.625339 58.535765 86.675895 80.070483c9.74701 12.351583 10.606251 30.207677-9.156283 33.02706-38.236206 10.847912-66.05412 2.497168-91.213759-2.899937-25.18649-5.370254-51.366477-24.595762-91.938743-21.937486-50.936856 3.356409-33.590937 47.607299-33.590937 47.607299s42.156492 126.415772 155.57625 155.039224c99.054329 24.97168 553.673156-205.197394 603.616515-289.215013C1467.717186 201.921539 1324.573074 131.544364 1226.216877 195.477235L1226.216877 195.477235zM1304.917945 308.037752c-52.333122 38.477868-189.999576 111.244805-345.763784 175.446188-51.769246 21.319907-97.013633 35.604782-128.375915 26.824417-34.664988-9.693308-71.182713-31.711348-83.292635-59.90518-5.262849-12.27103-3.061045-19.332913 13.747849-12.27103 21.131948 8.860919 39.256555 11.116425 63.556952 14.123767 28.301237 3.490665 55.206208 0 55.206208 0 45.781413-6.847073 52.27942-17.99035 62.912522-30.798405 12.405286-14.983008 14.741346-35.846443 6.900776-63.395845-8.619257-30.315082-48.251729-58.508914-48.251729-58.508914s-61.784769-36.83994-37.403817-50.534087c20.702328-11.626599 66.993915 16.620935 96.288649 34.530731 19.064401 11.626599 76.928884 37.269561 105.740295 41.216697 53.004404 7.249842 99.564504-16.970002 163.228861-67.31613C1273.985284 222.194247 1413.880393 227.967269 1304.917945 308.037752L1304.917945 308.037752z" p-id="5146" fill="#45a19a"></path><path d="M1176.407774 542.180813c-16.594084 0-30.019718 13.479337-30.019718 30.100272-29.455842 220.932237-222.221098 391.518346-450.725393 391.518346-170.666662 0-319.181028-95.080342-395.707144-235.297666 203.022441-43.794419 317.757911-105.525485 333.895523-126.120408 9.236836-9.371093 9.209985-63.986573-58.401509-30.127123-89.146211 44.680511-203.344656 81.171385-300.519397 102.115374-19.359765-50.37298-30.019718-105.122716-30.019718-162.342769 0-249.501987 201.840985-451.772592 450.725393-451.772592 101.282985 0 205.33165 36.356618 281.562401 98.544155 0 0 13.210824 11.250681 26.904971 10.901615 16.701489-0.42962 27.73736-12.244178 27.73736-28.945667 0-7.545206-2.765681-14.419131-7.330396-19.708831 0.187959-0.161108-1.611076-1.825886-2.550871-2.604573-0.724984-0.671282-1.47682-1.288861-2.255507-1.879589-88.233268-72.713235-200.954893-116.561356-324.067959-116.561356-282.126278 0-510.845383 229.229279-510.845383 512.026839 0 60.952379 10.659954 119.407591 30.153974 173.620302-21.883784 3.463814-42.183343 5.853577-60.173693 7.088735-69.491083 4.725823-120.696452-3.222152-60.11999-90.354518 37.45752-53.863645 48.573945-75.854833 30.073421-90.354518-19.708831-10.606251-35.9807 7.276694-35.9807 7.276694s-70.726241 84.232429-84.232429 143.278369c-5.907279 28.811411-26.958674 99.645057 120.213129 90.354518 39.444513-2.470317 77.358504-6.954479 113.500312-12.808055 83.695404 168.2769 257.074044 283.87161 457.411358 283.87161 255.328712 0 470.836993-186.132993 508.724133-431.446182 2.094399-13.237675 2.094399-13.237675 2.094399-20.32641C1206.454344 555.66015 1193.02871 542.180813 1176.407774 542.180813L1176.407774 542.180813z" p-id="5147" fill="#45a19a"></path></svg>