<?xml version="1.0" standalone="no"?><!DOCTYPE svg PUBLIC "-//W3C//DTD SVG 1.1//EN" "http://www.w3.org/Graphics/SVG/1.1/DTD/svg11.dtd"><svg t="1606116860809" class="icon" viewBox="0 0 1024 1024" version="1.1" xmlns="http://www.w3.org/2000/svg" p-id="11039" xmlns:xlink="http://www.w3.org/1999/xlink" width="200" height="200"><defs><style type="text/css"></style></defs><path d="M32 592h960V704H32zM336 464v32c0 17.6-14.4 32-32 32h-160c-17.6 0-32-14.4-32-32v-32c0-17.6 14.4-32 32-32h160c17.6 0 32 14.4 32 32z" fill="#254e9a" p-id="11040"></path><path d="M992 480a32 32 0 0 0-32 32v64H64v-256a32 32 0 0 0-64 0v512a32 32 0 0 0 64 0v-96h896v96a32 32 0 0 0 64 0V512a32 32 0 0 0-32-32z m-32 192H64v-64h896v64z" fill="#254e9a" p-id="11041"></path><path d="M304 544c26.464 0 48-21.536 48-48v-32c0-26.464-21.536-48-48-48h-160c-26.464 0-48 21.536-48 48v32c0 26.464 21.536 48 48 48h160zM128 496v-32a16 16 0 0 1 16-16h160a16 16 0 0 1 16 16v32a16 16 0 0 1-16 16h-160a16 16 0 0 1-16-16zM704 128a32 32 0 0 0-32 32v128h-128a32 32 0 0 0 0 64h128v128a32 32 0 0 0 64 0v-128h128a32 32 0 0 0 0-64h-128V160a32 32 0 0 0-32-32z" fill="#254e9a" p-id="11042"></path></svg>