<?xml version="1.0" encoding="UTF-8"?>
<svg width="16px" height="16px" viewBox="0 0 16 16" version="1.1" xmlns="http://www.w3.org/2000/svg" xmlns:xlink="http://www.w3.org/1999/xlink">
    <title>Group 8</title>
    <g id="Symbols" stroke="none" stroke-width="1" fill="none" fill-rule="evenodd">
        <g id="icon/icon-down" transform="translate(-4.000000, -4.000000)">
            <g id="Group-8" transform="translate(4.000000, 4.000000)">
                <circle id="Oval-8" fill="#737373" cx="8" cy="8" r="8"></circle>
                <path d="M10.3006208,7.84593878 L6.79334065,11.3533555 C6.56975649,11.5763934 6.2079517,11.5763934 5.98505045,11.3533555 C5.76255894,11.1303177 5.76255894,10.7685129 5.98505045,10.5456117 L9.08845868,7.44206685 L5.98559677,4.33906836 C5.76255894,4.11603052 5.76255894,3.75436232 5.98559677,3.53132448 C6.20849803,3.30774032 6.57030282,3.30774032 6.79334065,3.53132448 L10.3006208,7.03874124 C10.412208,7.15019186 10.4676602,7.29592448 10.4676602,7.44206685 C10.4676602,7.58820921 10.412208,7.73503448 10.3006208,7.84593878 Z" id="Fill-1" fill="#FFFFFF" transform="translate(8.142921, 7.442135) scale(1, -1) rotate(90.000000) translate(-8.142921, -7.442135) "></path>
            </g>
        </g>
    </g>
</svg>