<?xml version="1.0" encoding="UTF-8"?>
<svg width="26px" height="26px" viewBox="0 0 26 26" version="1.1" xmlns="http://www.w3.org/2000/svg" xmlns:xlink="http://www.w3.org/1999/xlink">
    <title>calendar-4</title>
    <defs>
        <filter id="filter-1">
            <feColorMatrix in="SourceGraphic" type="matrix" values="0 0 0 0 1.000000 0 0 0 0 1.000000 0 0 0 0 1.000000 0 0 0 1.000000 0"></feColorMatrix>
        </filter>
        <polygon id="path-2" points="0.00396825397 0 25.9259259 0 25.9259259 25.9125964 0.00396825397 25.9125964"></polygon>
    </defs>
    <g id="Page-1" stroke="none" stroke-width="1" fill="none" fill-rule="evenodd">
        <g filter="url(#filter-1)" id="calendar-4">
            <g>
                <g id="Fill-1-Clipped">
                    <mask id="mask-3" fill="white">
                        <use xlink:href="#path-2"></use>
                    </mask>
                    <g id="path-1"></g>
                    <path d="M23.6509259,0 L2.275,0 C1.02123016,0 0,1.0207051 0,2.27383033 L0,23.6387661 C0,24.8918913 1.02123016,25.9125964 2.275,25.9125964 L23.6509259,25.9125964 C24.9046958,25.9125964 25.9259259,24.8918913 25.9259259,23.6387661 L25.9259259,2.27383033 C25.9259259,1.0207051 24.9046958,0 23.6509259,0 Z M23.7671296,23.6387661 L2.1587963,23.6387661 L2.1587963,10.1905252 L23.7619709,10.1905252 L23.7619709,23.6387661 L23.7671296,23.6387661 Z M23.7725529,8.0276827 L2.16395503,8.0276827 L2.16395503,2.27383033 L23.7671296,2.27383033 L23.7671296,8.0276827 L23.7725529,8.0276827 Z" id="Fill-1" fill="#4A4A4A" fill-rule="nonzero" mask="url(#mask-3)"></path>
                </g>
                <path d="M5.94179894,13.9029012 L7.17982804,13.9029012 C7.77791005,13.9029012 8.25919312,13.4216012 8.25919312,12.8240911 C8.25919312,12.226581 7.77791005,11.7452809 7.17982804,11.7452809 L5.94179894,11.7452809 C5.34398148,11.7452809 4.86243386,12.226581 4.86243386,12.8240911 C4.86243386,13.4164451 5.34398148,13.9029012 5.94179894,13.9029012 Z" id="Fill-4" fill="#4A4A4A" fill-rule="nonzero"></path>
                <path d="M12.3439815,13.9029012 L13.5819444,13.9029012 C14.1797619,13.9029012 14.6613757,13.4216012 14.6613757,12.8240911 C14.6613757,12.226581 14.1797619,11.7452809 13.5819444,11.7452809 L12.3439815,11.7452809 C11.746164,11.7452809 11.2645503,12.226581 11.2645503,12.8240911 C11.2645503,13.4164451 11.746164,13.9029012 12.3439815,13.9029012 Z" id="Fill-5" fill="#4A4A4A" fill-rule="nonzero"></path>
                <path d="M18.7460979,13.9029012 L19.984127,13.9029012 C20.5819444,13.9029012 21.0634921,13.4216012 21.0634921,12.8240911 C21.0634921,12.226581 20.5819444,11.7452809 19.984127,11.7452809 L18.7460979,11.7452809 C18.1480159,11.7452809 17.6667328,12.226581 17.6667328,12.8240911 C17.6667328,13.4164451 18.1480159,13.9029012 18.7460979,13.9029012 Z" id="Fill-6" fill="#4A4A4A" fill-rule="nonzero"></path>
                <path d="M5.94179894,18.0488505 L7.17982804,18.0488505 C7.77791005,18.0488505 8.25919312,17.5678149 8.25919312,16.9700404 C8.25919312,16.3725303 7.77791005,15.8911642 7.17982804,15.8911642 L5.94179894,15.8911642 C5.34398148,15.8911642 4.86243386,16.3725303 4.86243386,16.9700404 C4.86243386,17.5678149 5.34398148,18.0488505 5.94179894,18.0488505 Z" id="Fill-7" fill="#4A4A4A" fill-rule="nonzero"></path>
                <path d="M12.3439815,18.0488505 L13.5819444,18.0488505 C14.1797619,18.0488505 14.6613757,17.5678149 14.6613757,16.9700404 C14.6613757,16.3725303 14.1797619,15.8911642 13.5819444,15.8911642 L12.3439815,15.8911642 C11.746164,15.8911642 11.2645503,16.3725303 11.2645503,16.9700404 C11.2645503,17.5678149 11.746164,18.0488505 12.3439815,18.0488505 Z" id="Fill-8" fill="#4A4A4A" fill-rule="nonzero"></path>
                <path d="M18.7460979,18.0488505 L19.984127,18.0488505 C20.5819444,18.0488505 21.0634921,17.5678149 21.0634921,16.9700404 C21.0634921,16.3725303 20.5819444,15.8911642 19.984127,15.8911642 L18.7460979,15.8911642 C18.1480159,15.8911642 17.6667328,16.3725303 17.6667328,16.9700404 C17.6667328,17.5678149 18.1480159,18.0488505 18.7460979,18.0488505 Z" id="Fill-9" fill="#4A4A4A" fill-rule="nonzero"></path>
                <path d="M5.94179894,22.2002203 L7.17982804,22.2002203 C7.77791005,22.2002203 8.25919312,21.7189203 8.25919312,21.1214102 C8.25919312,20.523834 7.77791005,20.042534 7.17982804,20.042534 L5.94179894,20.042534 C5.34398148,20.042534 4.86243386,20.523834 4.86243386,21.1214102 C4.86243386,21.7189203 5.34398148,22.2002203 5.94179894,22.2002203 Z" id="Fill-10" fill="#4A4A4A" fill-rule="nonzero"></path>
                <path d="M12.3439815,22.2002203 L13.5819444,22.2002203 C14.1797619,22.2002203 14.6613757,21.7189203 14.6613757,21.1214102 C14.6613757,20.523834 14.1797619,20.042534 13.5819444,20.042534 L12.3439815,20.042534 C11.746164,20.042534 11.2645503,20.523834 11.2645503,21.1214102 C11.2645503,21.7189203 11.746164,22.2002203 12.3439815,22.2002203 Z" id="Fill-11" fill="#4A4A4A" fill-rule="nonzero"></path>
                <path d="M18.7460979,22.2002203 L19.984127,22.2002203 C20.5819444,22.2002203 21.0634921,21.7189203 21.0634921,21.1214102 C21.0634921,20.523834 20.5819444,20.042534 19.984127,20.042534 L18.7460979,20.042534 C18.1480159,20.042534 17.6667328,20.523834 17.6667328,21.1214102 C17.6667328,21.7189203 18.1480159,22.2002203 18.7460979,22.2002203 Z" id="Fill-12" fill="#4A4A4A" fill-rule="nonzero"></path>
            </g>
        </g>
    </g>
</svg>