<svg xmlns="http://www.w3.org/2000/svg" width="45" height="45" viewBox="0 0 45 45">
    <g fill="none" fill-rule="evenodd">
        <circle cx="29.64" cy="14.82" r="14.82" fill="#EEDDBE"/>
        <path fill="#2F3E48" fill-rule="nonzero" d="M7.134 22.947l.058.652c.656 7.265 6.403 13.013 13.668 13.668l.653.06v5.75l-.768-.054c-3.634-.256-7.018-1.463-9.91-3.365l-3.367 3.368H4.17c-.297.832-1.086 1.434-2.02 1.434C.965 44.46 0 43.494 0 42.308c0-1.186.965-2.15 2.151-2.15.934 0 1.723.6 2.02 1.433h2.703l2.773-2.772c-4.642-3.537-7.777-8.967-8.21-15.105l-.055-.767h5.752zm35.944 0l-.055.767c-.726 10.282-9.027 18.583-19.309 19.31l-.767.054v-5.752l.652-.059c7.265-.655 13.013-6.403 13.668-13.668l.06-.652h5.75zM2.15 41.59c-.395 0-.717.322-.717.717 0 .396.322.718.717.718.395 0 .717-.322.717-.718 0-.395-.322-.717-.717-.717zm39.372-17.21h-2.899c-.965 7.428-6.815 13.278-14.243 14.243v2.9c8.962-.995 16.148-8.18 17.142-17.143zm-35.687 0h-2.9c.995 8.962 8.18 16.148 17.143 17.142v-2.899C12.65 37.659 6.8 31.809 5.836 24.381zM24.094 9.228l4.08 1.02-2.245 6.736 2.515 2.2c1.975 1.729 3.108 4.225 3.108 6.85 0 5.02-4.083 9.103-9.103 9.103h-.439c-5.02 0-9.102-4.083-9.102-9.102 0-2.625 1.133-5.122 3.108-6.85l2.5-2.188-2.26-6.025 4.043-1.01 1.853 1.854 1.942-2.588zm.735 8.7H19.63l-2.67 2.336c-1.664 1.456-2.618 3.56-2.618 5.77 0 4.23 3.44 7.67 7.668 7.67h.44c4.228 0 7.668-3.44 7.668-7.67 0-2.21-.955-4.314-2.619-5.77l-2.67-2.337zm-1.882 2.868v1.434h2.151v2.151h-1.434v-.717h-2.151c-.395 0-.717.322-.717.717 0 .395.322.717.717.717h1.434c1.186 0 2.151.965 2.151 2.151 0 1.187-.965 2.152-2.151 2.152v1.434h-1.434V29.4H19.36v-2.152h1.435v.718h2.15c.396 0 .718-.322.718-.718 0-.395-.322-.717-.717-.717h-1.434c-1.186 0-2.152-.965-2.152-2.15 0-1.187.966-2.152 2.152-2.152v-1.434h1.434zM21.513 1.382v5.752l-.653.058c-7.265.656-13.012 6.404-13.668 13.668l-.058.653H1.382l.054-.768c.727-10.281 9.028-18.582 19.31-19.309l.767-.054zM42.308 0c1.186 0 2.152.965 2.152 2.151s-.966 2.152-2.152 2.152c-.933 0-1.722-.602-2.019-1.435h-2.703l-2.773 2.773c4.642 3.536 7.777 8.967 8.21 15.104l.055.768h-5.752l-.059-.653C36.612 13.595 30.864 7.848 23.6 7.192l-.652-.058V1.382l.767.054c3.634.257 7.018 1.463 9.91 3.366l3.368-3.368h3.297C40.586.602 41.375 0 42.31 0zM3.288 18.044c-.15.668-.275 1.344-.352 2.035h2.9c.065-.5.155-.991.264-1.475zM24.38 2.936v2.9C31.81 6.8 37.66 12.65 38.624 20.079h2.9c-.995-8.963-8.18-16.148-17.143-17.143zM4.338 14.755c-.26.619-.498 1.25-.694 1.898l2.832.563c.147-.465.317-.92.503-1.367zm20.33-3.905L22.309 14l-2.45-2.45-1.694.424 1.694 4.52h4.723l1.743-5.23-1.655-.414zm-18.727.882c-.36.556-.697 1.128-1 1.72l2.65 1.099c.222-.424.463-.835.72-1.235zm2.092-2.685c-.448.482-.872.984-1.27 1.51l2.373 1.586c.289-.374.593-.735.911-1.082zm2.524-2.284c-.525.398-1.028.822-1.51 1.27l2.014 2.014c.348-.319.708-.622 1.082-.91zm2.896-1.822c-.593.302-1.164.64-1.72 1l1.583 2.37c.4-.257.811-.498 1.235-.72zm3.2-1.297c-.649.197-1.28.433-1.898.694l1.094 2.641c.446-.186.902-.355 1.367-.503zm3.426-.708c-.691.077-1.367.203-2.035.351l.56 2.813c.484-.109.975-.2 1.475-.264zm22.23-1.502c-.396 0-.718.322-.718.717 0 .395.322.717.717.717.396 0 .718-.322.718-.717 0-.395-.322-.717-.718-.717z"/>
    </g>
</svg>
