<?xml version="1.0" encoding="UTF-8"?>
<svg width="17px" height="17px" viewBox="0 0 17 17" version="1.1" xmlns="http://www.w3.org/2000/svg" xmlns:xlink="http://www.w3.org/1999/xlink">
    <title>search (5)</title>
    <g id="Page-1" stroke="none" stroke-width="1" fill="none" fill-rule="evenodd">
        <g id="表單" transform="translate(-270.000000, -34027.000000)" fill="#00965E">
            <g id="Group-3" transform="translate(246.000000, 33967.000000)">
                <g id="Group" transform="translate(14.000000, 48.000000)">
                    <path d="M26.7139112,26.8402707 L23.6435591,23.8584364 C24.5441954,22.6803048 25.083893,21.2248423 25.083893,19.6447698 C25.083893,15.7575229 21.8593926,12.5956996 17.8989021,12.5956996 C13.9362734,12.5956996 10.7139112,15.7575229 10.7139112,19.6447698 C10.7139112,23.530758 13.9362734,26.69384 17.8989021,26.69384 C19.509014,26.69384 20.9925408,26.1643521 22.1938169,25.2811729 L25.2624584,28.2646855 L26.7139112,26.8402707 Z M12.4612589,19.4530297 C12.4612589,16.6164123 14.812056,14.3100322 17.703302,14.3100322 C20.5931683,14.3100322 22.945345,16.6164123 22.945345,19.4530297 C22.945345,22.2882937 20.5931683,24.5960273 17.703302,24.5960273 C14.812056,24.5960273 12.4612589,22.2882937 12.4612589,19.4530297 Z" id="search-(5)"></path>
                </g>
            </g>
        </g>
    </g>
</svg>