<?xml version="1.0" encoding="UTF-8"?>
<svg width="50px" height="51px" viewBox="0 0 50 51" version="1.1" xmlns="http://www.w3.org/2000/svg" xmlns:xlink="http://www.w3.org/1999/xlink">
    <title>Shape</title>
    <g id="Page-1" stroke="none" stroke-width="1" fill="none" fill-rule="evenodd">
        <g id="search" fill="#B4B4B4" fill-rule="nonzero">
            <path d="M20.4946881,41.0929024 C24.7430716,41.0872089 28.8833229,39.7530972 32.3357821,37.2773508 L44.8911619,49.8338608 C45.4606754,50.4001049 46.2332066,50.7147343 47.0362794,50.7077443 C48.7587025,50.7077443 50.0030515,49.3829114 50.0030515,47.687613 C50.0030515,46.8930832 49.738585,46.1516727 49.1554024,45.5696203 L36.6791365,33.0650994 C39.301198,29.6213834 40.8642631,25.3571429 40.8642631,20.7210669 C40.8642631,9.51627491 31.6994801,0.351491854 20.4946881,0.351491854 C9.26277121,0.351491854 0.125113046,9.51627485 0.125113046,20.7210669 C0.125113046,31.925859 9.26277127,41.0929024 20.4946881,41.0929024 Z M20.4946881,36.6952983 C11.7266049,36.6952983 4.52158679,29.4642857 4.52158679,20.7221971 C4.52158679,11.9812387 11.7266049,4.74909581 20.4946881,4.74909581 C29.2356464,4.74909581 36.4677893,11.9812387 36.4677893,20.7221971 C36.4677893,29.4642857 29.2356464,36.6952983 20.4946881,36.6952983 Z" id="Shape"></path>
        </g>
    </g>
</svg>