<svg xmlns="http://www.w3.org/2000/svg" xmlns:xlink="http://www.w3.org/1999/xlink" width="170" height="39" viewBox="0 0 170 39">
    <defs>
        <path id="prefix__a" d="M0.199 0.142L20.646 0.142 20.646 20.151 0.199 20.151z"/>
        <path id="prefix__c" d="M0.278 0.084L12.71 0.084 12.71 13.844 0.278 13.844z"/>
        <path id="prefix__e" d="M0 0.163L55.388 0.163 55.388 20.852 0 20.852z"/>
    </defs>
    <g fill="none" fill-rule="evenodd">
        <path fill="#ffffff" d="M65.556 1.156c-.003-.68.201-.902.858-.843.549.05 1.106.031 1.658.002.48-.026.643.174.615.637-.028.457-.007.916-.007 1.375 0 10.758-.007 21.517.013 32.275.002.677-.193.907-.853.84-.5-.05-1.012-.048-1.512 0-.618.059-.771-.19-.768-.78.021-4.27.013-8.54.013-12.81V17.8c-.002-5.548.01-11.096-.017-16.644z"/>
        <path fill="#ffffff" d="M143.987 28.589H144c0 .36.015.72-.004 1.079-.026.49.212.625.659.573.625-.071 1.091-.367 1.328-.95.248-.61.244-1.236-.159-1.783-.37-.502-.942-.58-1.494-.462-.558.12-.238.633-.311.969-.04.184-.024.382-.032.574m.002 4.292h.033c0 .41.024.822-.006 1.23-.034.471.2.574.608.562.908-.025 1.521-.627 1.612-1.616.098-1.059-.37-1.8-1.258-1.988-.808-.172-.972-.042-.988.799-.007.337-.001.675-.001 1.013m2.484-2.423c.106.235.332.21.497.293.915.458 1.396 1.24 1.342 2.203-.062 1.12-.61 1.934-1.614 2.252-1.478.467-3.008.178-4.515.237-.314.012-.286-.25-.277-.475.112-2.748.122-5.498-.008-8.246-.021-.446.163-.525.544-.52 1.13.018 2.26-.013 3.39.02 1.217.035 2 .59 2.21 1.495.253 1.102-.152 1.922-1.264 2.564l-.305.177M116.235 35.45c-.795 0-1.48.001-2.165 0-.285-.002-.408-.225-.546-.42-.711-1-1.417-2.005-2.135-3-.148-.205-.244-.466-.586-.609 0 1.16-.036 2.278.015 3.392.024.529-.137.649-.632.648-1.396-.004-1.397.016-1.362-1.394.057-2.362.09-4.724-.047-7.082-.04-.66.175-.813.799-.79 1.241.045 1.235.01 1.203 1.265-.017.683-.003 1.367-.003 2.05l.183.067c.69-.783 1.458-1.512 2.05-2.363.64-.918 1.414-1.215 2.486-.934.012.298-.263.455-.438.655-.778.885-1.558 1.77-2.362 2.63-.342.366-.357.645-.041 1.05 1.122 1.444 2.208 2.915 3.306 4.378.08.108.14.23.275.457M134.511 31.236c-.02-.545.004-.91-.139-1.254-.124-.301-.29-.562-.666-.571-.363-.01-.603.189-.713.505-.254.724-.29 1.462-.01 2.19.132.342.394.576.766.552.343-.022.56-.271.63-.607.07-.328.108-.662.132-.815m.916 5.488c0-.908-.49-1.287-1.685-1.3-1.02-.01-1.47.403-1.465 1.347.005.858.612 1.423 1.554 1.445.92.02 1.595-.61 1.596-1.492m-3.102-3.664c-.677-.306-1.16-.71-1.347-1.397-.327-1.197.2-2.24 1.357-2.666.744-.274 1.51-.222 2.28-.176.551.032 1.105.013 1.657.02.278.004.63-.085.614.378-.014.425-.345.299-.59.315-.071.005-.142.013-.233.022-.007.068-.04.143-.019.193.861 1.936-.057 3.411-2.178 3.495-.12.005-.24.002-.36.004-.303.004-.602.022-.627.425-.025.392.223.584.56.628.571.076 1.153.073 1.72.166 1.304.212 1.871.95 1.802 2.262-.04.742-.406 1.28-1.036 1.63-1.224.677-2.537.747-3.844.374-1.372-.39-1.722-1.992-.691-2.988.245-.236.32-.356.113-.693-.38-.62-.137-1.15.822-1.992M88.42 29.76c.598-.614 1.152-.958 1.872-.984 1.194-.044 1.934.53 2.075 1.723.076.643.044 1.299.047 1.948.003.603.007 1.206-.027 1.807-.022.387.287.955-.129 1.123-.457.182-1.04.087-1.563.048-.324-.024-.2-.32-.179-.52.119-1.154.092-2.311.083-3.467-.002-.234-.064-.474-.133-.701-.143-.47-.483-.722-.966-.714-.45.007-.763.25-.926.68-.22.575-.232 1.177-.217 1.779.02.819.045 1.638.089 2.455.02.358-.074.504-.468.524-1.529.08-1.535.097-1.5-1.412.063-2.675.105-5.35-.047-8.022-.035-.618.166-.77.756-.754 1.277.035 1.265.004 1.237 1.314-.022 1.003-.004 2.007-.004 3.172M165.642 32.52c0 .885-.024 1.644.01 2.4.02.424-.132.529-.531.54-1.471.042-1.487.055-1.428-1.42.108-2.7.095-5.397-.035-8.094-.024-.511.126-.67.635-.67 1.362-.004 1.346-.026 1.327 1.306-.02 1.411-.004 2.823-.004 4.347.644-.397 1.033-.921 1.43-1.4.563-.675 1.22-.742 2.115-.55-.589.66-1.105 1.275-1.662 1.85-.32.328-.362.575-.095.982.66 1.005 1.247 2.058 1.883 3.08.275.442.167.513-.327.582-1.134.16-1.856-.244-2.283-1.307-.227-.565-.56-1.088-1.035-1.646M84.259 27.98c-.44-.489-.928-.947-1.64-1.04-.36-.048-.72-.092-1.073 0-.435.114-.816.331-.942.802-.135.504.082.9.472 1.2.675.523 1.493.768 2.248 1.134 1.028.499 1.933 1.124 2.041 2.404.146 1.724-1.19 3.032-3.197 3.163-.968.063-1.842-.23-2.7-.644-.548-.264-.794-.587-.459-1.178.124-.22.086-.525.384-.707.553 1.093 1.447 1.631 2.656 1.647.668.009 1.195-.241 1.42-.889.232-.67-.091-1.173-.641-1.537-.625-.415-1.339-.651-2.013-.966-1.498-.7-2.123-1.614-2.01-2.93.112-1.292 1.083-2.216 2.573-2.39.913-.106 1.811-.022 2.703.258.618.193.853.468.52 1.075-.103.186-.083.434-.342.598M158.143 29.838c.67-.61 1.125-.984 1.768-1.05 1.343-.136 2.298.564 2.367 1.911.074 1.444.026 2.894.032 4.34 0 .21-.038.403-.297.409-.48.01-.962.017-1.442-.002-.372-.015-.284-.302-.28-.54.026-1.132.044-2.266.069-3.4.006-.292-.02-.579-.135-.85-.165-.39-.458-.633-.881-.64-.424-.008-.73.222-.9.61-.167.382-.217.79-.21 1.204.015 1.036.023 2.074.063 3.11.013.364-.072.506-.467.523-1.497.063-1.5.078-1.457-1.42.042-1.471.066-2.944-.057-4.41-.044-.531.08-.784.648-.697.188.03.385.016.577.003.476-.032.862.025.602.899M125.675 29.747c.699-.655 1.292-.986 2.036-.974 1.213.02 1.99.683 2.059 1.953.078 1.441.026 2.89.036 4.335 0 .22-.046.386-.304.388-.48.004-.96.011-1.44-.003-.392-.01-.275-.309-.269-.534.028-1.083.068-2.167.083-3.25.004-.286-.035-.58-.107-.856-.13-.498-.475-.784-.994-.783-.497.002-.792.31-.931.765-.304.99-.149 2.01-.166 3.017-.005.216.03.433.038.649.039 1.107.2.986-.965.998-.94.011-.922.005-.893-.975.05-1.638.087-3.278-.042-4.913-.038-.477.088-.681.577-.623.189.022.385.018.575-.002.46-.05.817.02.707.808M99.399 29.715c.364-.266.55-.412.746-.544 1.448-.983 3.108-.24 3.304 1.493.053.477.033.963.03 1.445-.002.699-.034 1.398-.029 2.096.009 1.242-.346 1.516-1.59 1.25-.424-.09-.294-.376-.27-.614.11-1.131.088-2.265.075-3.398-.002-.236-.056-.478-.125-.705-.133-.435-.44-.687-.897-.714-.492-.028-.822.224-1.008.668-.19.453-.23.936-.223 1.419.011.891.022 1.785.08 2.674.03.476-.047.692-.601.682-1.367-.024-1.349.005-1.317-1.361.034-1.519.075-3.04-.051-4.556-.042-.496.121-.659.59-.61.238.023.483.024.72-.001.445-.048.712.08.566.776M120.61 32.224c0-.808.003-1.46-.258-2.078-.174-.413-.456-.694-.913-.704-.486-.01-.841.252-.979.71-.424 1.404-.376 2.808.113 4.188.128.36.392.623.8.637.445.016.702-.269.874-.641.333-.72.351-1.494.363-2.112m2.06-.185c.015 2.137-1.272 3.57-3.218 3.584-1.979.015-3.31-1.38-3.322-3.48-.012-2.082 1.255-3.379 3.295-3.377 1.977.003 3.232 1.269 3.245 3.273M152.88 32.974c-.192-.197.324-.78-.308-.775-.86.007-1.49.855-1.375 1.707.052.392.215.693.643.76.42.063.684-.156.866-.507.186-.357.164-.747.174-1.185zm1.745-.49v1.52c-.001.406.056.754.526.914.35.118.298.311-.007.476-.678.368-1.437.32-1.98-.248-.362-.379-.52-.081-.757.088-.705.506-1.82.517-2.514.029-.55-.388-.783-1.123-.606-1.878.154-.656.606-1.03 1.198-1.24.52-.184 1.062-.305 1.59-.465.403-.123.808-.27.752-.81-.056-.541-.372-.89-.896-1.002-.574-.123-1.083.088-1.572.379-.147.088-.309.441-.5.1-.13-.235-.23-.52.05-.79.84-.812 2.893-1.039 3.876-.402.575.373.82.937.848 1.594.026.578.006 1.157.006 1.735h-.014z"/>
        <g transform="translate(101.885 .147)">
            <mask id="prefix__b" fill="#fff">
                <use xlink:href="#prefix__a"/>
            </mask>
            <path fill="#ffffff" d="M20.149 18.06c-1.395.018-2.79.015-4.184.008-.754-.004-.986-.234-.989-.999-.009-2.002.016-4.005-.016-6.008-.009-.525.213-.59.638-.583 1.082.02 2.164.019 3.246.007 1.516-.016 1.222.201 1.29-1.315.027-.622-.195-.762-.781-.754-2.26.032-4.521-.018-6.78.027-.667.013-.792-.206-.783-.819.036-2.268.003-4.536.025-6.804.005-.485-.107-.706-.635-.668C10.606.194 10.023.2 9.45.15c-.58-.051-.73.156-.722.726.03 2.316.002 4.633.023 6.949.004.474-.136.619-.613.614-2.164-.023-4.328-.007-6.492-.01C.26 8.427.293 8.425.266 9.796c-.012.607.215.72.756.705 1.274-.036 2.55.007 3.823-.022.463-.01.647.125.65.601.014 2.791-.865 5.204-2.933 7.13-.736.685-1.593 1.209-2.363 1.933 1.294 0 2.589-.001 3.883.001.233.001.406-.114.583-.247 1.282-.957 2.256-2.154 2.869-3.644.68-1.656.942-3.387.923-5.163-.005-.476.138-.637.611-.614.72.034 1.446.052 2.163 0 .621-.045.763.194.754.78-.03 2.17-.022 4.343-.007 6.514.012 1.66.746 2.378 2.385 2.38 1.323.002 2.645 0 3.968 0 1.637 0 1.618-.008 2.23-1.533.206-.512.026-.562-.412-.556" mask="url(#prefix__b)"/>
        </g>
        <path fill="#ffffff" d="M116.864 7.444c.36 0 .72-.006 1.079.001.29.007.497-.093.646-.36.918-1.648 1.575-3.4 2.094-5.21.093-.322-.009-.446-.335-.44-.527.009-1.061.053-1.581-.009-.66-.078-.922.212-1.09.814-.373 1.347-.923 2.63-1.597 3.856-.737 1.341-.736 1.341.784 1.348M105.388 6.094c.428.98.93 1.689 1.952 1.353.5 0 .814-.02 1.124.004.6.046.654-.137.35-.632-.682-1.109-1.194-2.305-1.722-3.493-.277-.625-.258-1.538-.868-1.815-.58-.263-1.368-.048-2.063-.08-.48-.023-.589.122-.42.58.506 1.379 1.06 2.736 1.647 4.083"/>
        <g transform="translate(157.012 6.519)">
            <mask id="prefix__d" fill="#fff">
                <use xlink:href="#prefix__c"/>
            </mask>
            <path fill="#ffffff" d="M12.044.085c-1.826.024-3.652.01-5.478.01H1.592C.282.095.312.095.28 1.383c-.015.605.174.783.775.771 1.921-.036 3.844-.01 5.766-.016.361 0 .65-.009.647.51-.019 2.773-.011 5.546-.011 8.318 0 .547-.263.781-.806.766-.697-.02-1.394-.004-2.09-.004-1.654 0-1.634-.01-.996 1.5.188.444.408.628.9.615 1.32-.034 2.642-.007 3.963-.019 1.39-.013 2.072-.71 2.074-2.108.003-2.942.019-5.883-.013-8.825-.007-.612.176-.775.766-.763 1.464.028 1.438.001 1.456-1.415.006-.534-.187-.635-.666-.628" mask="url(#prefix__d)"/>
        </g>
        <path fill="#ffffff" d="M156.497 5.56c-.48-.001-.964.037-1.44-.008-.524-.05-.818.15-1.093.6-1.413 2.303-3.039 4.45-4.847 6.458-.099.11-.31.18-.179.438 1.309-.105 2.812.52 3.715-1.177l.14.18c.012.163.035.326.034.489-.016 1.952-.043 3.904-.053 5.856-.009 1.969-.001 1.941 1.945 1.965.613.007.696-.228.692-.754-.02-3.158.032-6.318-.03-9.475-.025-1.249.123-2.378.94-3.364.182-.22.302-.492.44-.745.156-.288.088-.462-.264-.463M158.56 2.933c1.632-.023 3.265-.009 4.898-.01h4.321c1.33-.002 1.297-.005 1.34-1.33.022-.625-.195-.755-.775-.75-3.001.027-6.002.013-9.004.013-1.443 0-1.422 0-1.408 1.47.005.482.165.614.628.607M151.982 6.21c.24 0 .404-.115.547-.295 1.288-1.624 2.474-3.32 3.54-5.099.206-.344.186-.528-.277-.513-.528.017-1.058.028-1.585 0-.406-.023-.645.109-.865.474-.446.741-.945 1.452-1.46 2.15-.782 1.058-1.595 2.095-2.502 3.281.979 0 1.79-.002 2.602.002M93.968 32.19c0-.89.03-1.782-.011-2.67-.02-.446.1-.581.548-.588 1.472-.024 1.481-.041 1.445 1.437-.038 1.517-.057 3.033.057 4.547.032.42-.103.534-.513.545-1.528.042-1.52.056-1.465-1.466.02-.6.003-1.203.003-1.806h-.064zM98.49 8.313c-.014-.143-.002-.29-.004-.434-.01-.953-.01-.953-.93-.953-1.442 0-2.884-.017-4.327.007-.461.007-.649-.118-.618-.61.04-.648.035-1.303.003-1.952-.028-.548.197-.773.73-.842 1.24-.161 2.464-.407 3.676-.714 1.253-.317 1.23-.316 1.206-1.62-.01-.514-.173-.595-.65-.503-1.933.372-3.872.717-5.814 1.046-1.435.244-1.85.704-1.85 2.162-.002 2.774-.012 5.548.001 8.323.012 2.652-.202 5.256-1.467 7.659-.2.38-.02.463.323.457.577-.01 1.156-.035 1.73.001.461.03.696-.156.866-.571.481-1.169.771-2.384.952-3.629.319-2.204.314-4.423.31-6.643 0-.217-.127-.571.203-.608.52-.057 1.096-.132 1.564.038.358.13.162.695.164 1.062.013 3.208.021 6.417-.003 9.626-.004.568.15.796.73.736.43-.045.868-.045 1.297-.01.506.04.664-.147.656-.655-.027-1.688-.01-3.377-.011-5.066-.001-1.665.02-3.33-.013-4.994-.012-.568.091-.879.735-.772.4.066.581-.133.54-.541M85.168 5.767c-.095.355-.034.918-.4 1.011-.538.137-1.136.043-1.71.032-.128-.002-.2-.122-.228-.245-.153-.68-.307-1.358-.45-2.04-.065-.31.144-.363.384-.364.383-.002.766 0 1.149 0 1.672 0 1.684.004 1.255 1.606m2.425 6.463c1.507-.061 1.289.327 1.325-1.418.008-.417-.149-.552-.548-.543-.865.018-1.732-.016-2.597.01-.574.016-.46-.38-.44-.689.019-.31-.199-.785.438-.767.601.017 1.203.015 1.804.003 1.524-.032 1.315.301 1.333-1.406 0-.049-.005-.097-.002-.145.02-.308-.131-.42-.43-.437-.423-.024-1.055.201-1.212-.13-.154-.322.147-.863.25-1.308.055-.235.135-.466.167-.704.05-.365.197-.584.604-.536.357.043.461-.155.449-.478-.012-.314-.022-.63.003-.94.035-.417-.14-.552-.542-.54-.745.022-1.494-.037-2.235.02-.601.048-.847-.203-1.016-.745-.356-1.14-.382-1.132-1.559-1.131-1.42 0-1.43.003-1.07 1.38.088.338.056.496-.335.484-.529-.017-1.058-.004-1.587-.003-1.405.002-1.533.16-1.321 1.575.033.22.095.406.335.372.621-.089.702.325.787.777.086.45.175.902.315 1.337.142.444.049.589-.437.587-1.2-.004-1.2.018-1.195 1.223 0 .072.008.146-.002.217-.057.409.117.554.525.542.841-.024 1.685.025 2.524-.023.57-.032.75.145.739.724-.011.535-.098.808-.712.746-.548-.057-1.105-.011-1.658-.012-1.522 0-1.507-.001-1.428 1.515.02.358.14.45.47.444.84-.016 1.686.037 2.523-.018.647-.043.812.179.802.811-.038 2.22-.001 4.44-.024 6.66-.006.505.145.696.654.657.454-.035.915-.027 1.37.008.491.038.683-.128.668-.646-.031-1.133-.01-2.268-.01-3.402h.003c0-.603-.015-1.207.004-1.81.022-.718-.301-1.651.127-2.1.463-.487 1.407-.13 2.14-.16"/>
        <path fill="#ffffff" d="M80.469 13.048c-.594-.012-.772.213-.861.755-.264 1.588-.635 3.154-1.089 4.699-.351 1.195-.365 1.191.889 1.194 1.506-.032 1.16.241 1.578-1.237.354-1.249.607-2.522.82-3.802.267-1.607.263-1.578-1.337-1.61M88.72 17.643c-.258-1.174-.427-2.364-.536-3.56-.107-1.17.04-1.005-1.118-1.019-.12 0-.241.017-.359-.002-.674-.109-.881.147-.764.829.15.874.172 1.77.314 2.647.325 2.013-.08 1.602 2.01 1.662.423.012.545-.135.452-.557M139.768 6.35h.865v.003c.601 0 1.202.01 1.803-.004.354-.008.501.107.521.495.083 1.604.035 1.67-1.566 1.672-.865.001-1.731-.017-2.596.004-.397.01-.54-.112-.558-.529-.065-1.64-.08-1.639 1.531-1.64m0-4.098c.767 0 1.535.003 2.303-.007.59-.007.908.244.877.863-.002.048 0 .096 0 .144-.013 1.338.127 1.157-1.137 1.172-.407.005-.815 0-1.223 0-.624 0-1.248-.011-1.871.004-.336.008-.497-.117-.467-.46.004-.048 0-.097-.001-.145-.047-1.558-.034-1.57 1.519-1.571m1.156 16.235c-.553.005-1.106.007-1.66.005-.853-.003-1.013-.153-1.015-1.007-.006-2.123.02-4.246-.014-6.368-.01-.579.209-.677.715-.668 1.466.027 2.932.01 4.399.006 1.506-.005 2.213-.697 2.222-2.21.012-1.93.009-3.86-.003-5.79-.01-1.4-.756-2.141-2.145-2.146-1.755-.007-3.51 0-5.265-.001-1.795-.002-2.475.669-2.482 2.485-.008 2.533-.002 5.066-.002 7.6 0 2.58-.004 5.162.002 7.743.004 1.42.773 2.184 2.19 2.199.385.003.79-.082 1.15.01 1.259.319 1.684-.577 2.167-1.412.175-.302.09-.448-.26-.446M134.433 16.812c-.671.185-1.35.349-2.025.521-.34.087-.55.037-.547-.397.013-1.617.01-3.234 0-4.85-.002-.345.138-.475.472-.468.577.013 1.154.004 1.731.005.249 0 .46-.008.534-.338.285-1.256.014-1.619-1.25-1.617-.192 0-.388-.024-.576.004-.699.107-.975-.108-.936-.884.032-.638.152-.952.84-.847.235.036.48.008.72.004 1.36-.024 1.17.221 1.216-1.244.017-.535-.143-.728-.688-.713-1.153.033-2.308.01-3.462.01-1.155.001-2.31.02-3.463-.007-.48-.011-.691.109-.674.64.053 1.547-.179 1.285 1.295 1.312.24.005.486.03.72-.007.726-.115.947.157.92.9-.023.637-.145.945-.832.837-.258-.041-.528-.005-.793-.005-1.375.002-1.36.001-1.305 1.422.016.41.152.556.554.539.552-.024 1.109.026 1.659-.015.525-.039.72.115.702.677-.04 1.278-.01 2.558-.012 3.837-.002 1.87-.003 1.865-1.821 2.154-1.472.233-1.259-.078-1.302 1.52-.018.665.254.69.773.6 2.248-.396 4.484-.842 6.704-1.375 1.47-.351 1.456-.338 1.381-1.825-.021-.425-.173-.49-.535-.39"/>
        <path fill="#ffffff" d="M146.007 19.746c-.751-.91-1.438-1.864-2.09-2.848-.257-.39-.28-.698-.012-1.108.526-.804 1.01-1.639 1.468-2.485.953-1.758.941-1.75-1.05-1.735-.457.003-.686.164-.87.572-.284.632-.639 1.233-1.051 2.013-.214-.449-.355-.721-.477-1.002-.682-1.578-.681-1.558-2.39-1.584-.622-.01-.81.103-.563.761.865 2.31 1.963 4.49 3.29 6.569.664 1.038 1.408 1.719 2.723 1.444.23-.048.48.014.718-.005.2-.015.475.112.58-.133.088-.206-.16-.32-.276-.459M128.843 3.653c.064-.182.158-.358.19-.546.141-.806.676-.9 1.38-.913.729-.013 1.145.23 1.285.947.028.14.088.275.136.412.643 1.85.643 1.85 2.58 1.787h.072c.443.036.55-.128.385-.552-.448-1.144-.87-2.3-1.301-3.45-.247-.66-.722-1.01-1.422-1.024-.601-.013-1.203-.003-1.804-.003v.002c-.601 0-1.203-.012-1.803.004-.606.015-1.087.294-1.313.857-.495 1.23-.943 2.478-1.416 3.717-.118.31-.032.418.304.454 1.984.217 2.069.172 2.727-1.692M127.42 16.844c1.11.002 1.102.004.906-1.006-.139-.71-.264-1.424-.375-2.139-.203-1.31-.196-1.286-1.524-1.284-.555 0-.648.21-.556.698.171.9.34 1.803.44 2.713.085.783.343 1.254 1.11 1.018M133.387 12.421c-.327.022-.464.134-.516.452-.162.971-.335 1.94-.529 2.905-.067.337-.01.51.364.492.191-.01.384-.002.575-.001 1.003.003 1.006.004 1.193-.97.09-.472.177-.945.251-1.42.246-1.572.243-1.564-1.338-1.458"/>
        <path fill="#ffffff" d="M26.226 34.223c-.6-.026-1.202-.024-1.802-.004-.49.017-.695-.182-.686-.681.018-1.012.02-2.026-.006-3.038-.011-.435.126-.615.571-.594.552.027 1.106-.008 1.658.015.438.019.71-.02.701-.598-.008-.536-.199-.642-.677-.63-1.129.03-2.26-.017-3.388.021-.554.02-.694-.18-.677-.708.036-1.133-.007-2.267.017-3.4.01-.446-.145-.621-.582-.573-.166.019-.338.021-.504-.001-.523-.073-.722.108-.701.67.043 1.132-.008 2.267.021 3.4.013.476-.139.624-.613.611-1.201-.03-2.404.012-3.604-.02-.528-.015-.569.247-.58.665-.012.461.18.582.602.564.6-.026 1.202.011 1.802-.013.413-.017.541.147.532.55-.03 1.358-.455 2.55-1.393 3.545-.464.491-1.003.888-1.586 1.23l.038.184c.448 0 .903-.053 1.341.01.848.124 1.415-.285 1.934-.87.892-1.002 1.232-2.217 1.356-3.511.11-1.149.095-1.119 1.27-1.145.588-.013.737.2.717.755-.038 1.108-.024 2.219-.01 3.328.009.642.178 1.299.909 1.363 1.12.1 2.256.085 3.382.038.51-.022.571-.592.592-.949.023-.372-.407-.203-.634-.214"/>
        <path fill="#ffffff" d="M17.084 27.142c.261.752.704 1.103 1.55.996.515-.065.709-.08.392-.638-.378-.665-.71-1.366-.965-2.087-.196-.554-.426-.9-.98-.74-.936 0-.944.004-.654.794.206.563.46 1.109.657 1.675M23.746 28.118c.326-.068.76.157 1.031-.344.461-.851.792-1.748 1.067-2.67.033-.112.092-.23.005-.341-.227-.292-1.535-.03-1.666.342-.274.77-.546 1.539-.949 2.254-.428.758-.427.758.512.76M46.005 29.27c-.084-.444-.402-.052-.616-.056-.067 0-.152.006-.197-.03-.272-.216-.016-1.647.328-1.73.28-.068.357-.222.333-.46-.023-.224.118-.618-.146-.64-.855-.067-.52-.685-.596-1.086 0-.298.002-.563 0-.829-.003-.188-.083-.305-.276-.366-.835-.263-1.253.035-1.25.904 0 .145-.011.29.004.434.062.574-.004 1.016-.766.888-.408-.068-.466.202-.455.537.01.331-.002.679.472.606.708-.108.81.278.75.846-.025.239-.03.485 0 .723.09.708-.066 1.206-.886 1.325-.703.103-.507.725-.426 1.1.119.545.505.108.736.035.383-.12.593-.138.577.36-.022.627-.009 1.255 0 1.882.005.41-.145.633-.594.613-.186-.009-.507-.103-.49.236.016.296.039.657.358.817 1.035.52 2.24-.228 2.249-1.39.007-.94.015-1.881-.004-2.821-.008-.382.072-.657.476-.767.65-.177.495-.726.419-1.132M53.144 34.315c-.262.025-.528.002-.792.002-1.857.002-1.845.003-1.762-1.847.018-.38.135-.509.505-.496.6.021 1.202-.013 1.802.011.402.016.485-.18.48-.528-.005-.337.007-.626-.466-.623-2.019.012-4.037.018-6.056.002-.485-.004-.456.274-.464.606-.007.335.032.56.455.541.551-.025 1.105.002 1.658-.003.561-.004.484.442.41.718-.142.537.483 1.269-.386 1.616-.084.033-.19.005-.287.005-.553 0-1.105.01-1.658 0-.382-.008-.688-.03-.701.533-.014.615.33.573.735.57 1.057-.01 2.114-.003 3.172-.003 1.105 0 2.21-.01 3.315.004.386.005.642-.033.634-.53-.009-.44-.155-.619-.594-.578M46.86 28.02c.567.011.786-.148.732-.735-.04-.442-.11-.964.624-.953 1.154.019 2.308.019 3.461.001.446-.007.607.2.605.608-.002.193.016.387.003.579-.037.534.325.486.67.48.358-.007.736.079.728-.508-.021-1.622.182-2.425-2.116-2.285-.024.001-.049-.003-.072 0-.582.096-.972-.098-1.093-.715-.06-.307-.255-.409-.567-.43-1.145-.08-1.17-.062-.875 1.147h-1.077c-1.386 0-1.65.259-1.662 1.63-.001.169.017.34-.003.506-.062.499.133.664.643.674"/>
        <path fill="#ffffff" d="M52.9 30.278c.618.031.628-.493.652-.847.026-.393-.394-.25-.614-.249-1.467.013-1.185.01-1.225-1.257-.002-.072-.008-.146.002-.217.078-.51-.147-.635-.642-.665-.706-.042-.964.195-.87.892.048.356-.001.724.034 1.082.083.848.454 1.197 1.294 1.247.239.013.48.002.72.002v.01c.216 0 .433-.009.648.002M48.126 27.574c-.131.878-.55 1.624-1.185 2.248-.108.106-.322.195-.214.396.076.14.257.074.393.083.12.007.239 0 .46 0 .645.166 1.061-.258 1.402-.835.309-.523.506-1.089.593-1.683.037-.254.266-.715-.271-.698-.419.013-1.05-.362-1.178.489M32.477 27.092c-.367 0-.52-.118-.234-.45.34-.395.544-1.022 1.05-1.133.784-.172 1.648-.212 2.41.024.543.168.837.822 1.153 1.322.146.232-.136.239-.29.24-.67.006-1.34.003-2.009.003v-.007h-2.08m7.068 7.15c-1.177.032-2.355-.003-3.532.02-.453.01-.656-.12-.635-.61.032-.722.038-1.448 0-2.17-.028-.503.197-.6.633-.593 1.057.02 2.116-.02 3.172.015.485.016.55-.198.553-.602.002-.41-.078-.614-.555-.598-1.032.034-2.069-.029-3.1.025-.616.033-.7-.227-.705-.753-.005-.544.119-.785.717-.75.529.032 1.21.278 1.374-.773.7 1.337 1.734.932 2.713.864-1.09-1.164-2.046-2.394-2.978-3.646-.21-.282-.548-.39-.898-.392-1.226-.005-2.451-.003-3.677.002-.325.002-.638.102-.835.363-.953 1.263-1.953 2.486-3.217 3.76 1.167-.039 2.216.391 2.957-.828.038.67.418.71.865.67.19-.017.387.018.576-.006.58-.076.602.279.593.71-.01.43.034.806-.614.776-1.055-.049-2.115.003-3.172-.022-.43-.01-.596.117-.589.571.007.451.118.65.614.633 1.056-.034 2.114.005 3.171-.017.426-.009.61.113.59.571-.03.722-.027 1.447-.001 2.17.016.466-.144.638-.622.628-1.177-.027-2.355.007-3.532-.015-.447-.008-.577.166-.585.594-.01.44.13.59.573.588 3.389-.015 6.778-.02 10.166-.001.476.002.548-.183.547-.596-.002-.424-.104-.6-.567-.588"/>
        <path fill="#ffffff" d="M32.014 33.871c1.032.002 1.03.003.653-.838-.118-.262-.226-.529-.333-.795-.387-.963-.479-1.004-1.527-.916-.359.03-.398.169-.286.456.181.468.393.928.527 1.41.156.564.467.808.966.683M36.69 32.237c-.044.3-.209.586-.337.87-.34.76-.344.759.607.763.576.174.884-.17 1.047-.765.115-.417.263-.826.413-1.232.16-.434-.017-.513-.43-.557-.74-.08-1.182.13-1.3.92M13.247 28.115c-.012-.405-.356-.307-.603-.316-.336-.013-.673-.003-1.01-.004-.337 0-.676-.026-1.01.005-.481.044-.735-.1-.664-.633.025-.19.025-.388 0-.578-.065-.491.156-.672.628-.744.735-.112 1.457-.305 2.186-.454.565-.116.352-.559.339-.873-.016-.383-.336-.25-.554-.212-1.067.18-2.13.388-3.198.555-.674.105-.947.487-.936 1.142.011.675.017 1.351 0 2.027-.055 2.373.296 4.794-.811 7.046-.103.21.017.283.224.328 1 .218 1.353.022 1.645-.958.476-1.595.476-3.24.475-4.881 0-.42.04-.676.57-.672.509.004.516.268.514.642-.009 1.713.016 3.427-.014 5.14-.01.556.127.777.72.748.518-.025.843-.038.823-.723-.05-1.712-.023-3.427-.014-5.14.002-.237-.126-.593.278-.631.595-.057.422-.491.412-.814M4.989 27.773c-.91.043-.736-.73-.781-1.169-.071-.7.576-.174.836-.392.263.172.746-.221.798.35.065.705-.316 1.185-.853 1.21m2.29 3.057c.452-.01.567-.171.576-.597.01-.472-.195-.58-.607-.55-.335.025-.673-.005-1.01.006-.29.01-.45-.073-.442-.405.007-.31.13-.432.437-.416.336.017.673-.001 1.01.007.33.008.628.023.607-.465-.015-.368-.002-.694-.515-.646-.163.015-.44-.002-.39-.192.117-.456-.044-1.068.536-1.31.472-.198.25-.571.251-.862 0-.363-.333-.263-.553-.274-.336-.015-.674-.011-1.01-.003-.24.005-.474-.058-.507-.305-.11-.844-.715-.743-1.295-.739-.36.002-.503.145-.361.486.202.488-.011.59-.452.553-.261-.023-.527 0-.792.008-.206.006-.483-.065-.495.256-.01.274-.159.728.106.793.642.16.5.685.65 1.074.137.361.03.56-.388.519-.522-.051-.486.307-.497.661-.013.43.245.454.563.443.337-.01.674.002 1.01-.002.304-.004.571-.015.565.433-.005.423-.265.382-.531.382-.313 0-.626.01-.938-.003-.393-.018-.679-.011-.684.547-.004.579.28.624.715.598.312-.019.626.009.937-.008.37-.02.515.128.5.507-.024.602-.006 1.206-.006 1.809h-.003c0 .58.033 1.16-.009 1.737-.042.576.31.568.686.528.352-.037.88.221.86-.506-.024-.844-.006-1.689-.008-2.533-.004-1.483-.006-1.5 1.484-1.53"/>
        <path fill="#ffffff" d="M3.575 31.297c-.4-.008-.923-.235-1.042.506-.135.85-.33 1.697-.59 2.516-.189.59-.093.817.549.714.515.114.78-.099.871-.638.135-.803.344-1.593.484-2.395.045-.258.269-.693-.272-.703M7.67 33.524c-.148-.552-.193-1.139-.221-1.714-.032-.66-.483-.51-.872-.525-.506-.02-.442.33-.41.64.057.55.15 1.096.199 1.646.042.472.235.721.731.614.566.101.728-.078.572-.661"/>
        <g transform="translate(0 .147)">
            <mask id="prefix__f" fill="#fff">
                <use xlink:href="#prefix__e"/>
            </mask>
            <path fill="#ffffff" d="M28.618 19.334c2.363-.07 4.703-.332 7.007-.847 2.903-.65 5.698-1.58 8.154-3.343 3.655-2.626 3.57-6.884-.198-9.352-.868-.568-1.789-1.042-2.749-1.43C34.034 1.62 27.06.964 19.906 2.657c-3.007.712-5.929 1.672-8.504 3.46-2.948 2.046-3.213 5.91-.578 8.347 1.053.975 2.277 1.695 3.58 2.272 4.53 2.007 9.322 2.592 14.214 2.598M28.225.164c5.78.158 12.16.735 18.366 2.565 2.427.715 4.783 1.607 6.838 3.16 2.404 1.815 2.786 6.29.073 8.28-1.707 1.252-3.57 2.195-5.543 2.901-7.382 2.64-14.973 4.19-22.835 3.688-6.997-.446-13.797-1.925-20.233-4.826-1.075-.485-2.082-1.093-3.027-1.813-2.617-1.993-2.363-6.104.041-8.11 1.752-1.462 3.84-2.28 5.97-2.98C12.45 1.528 17.174.824 21.954.436c1.869-.152 3.74-.246 6.272-.272" mask="url(#prefix__f)"/>
        </g>
        <path fill="#ffffff" d="M23.542 8.641c.673 0 1.347-.02 2.02.007.498.02.677-.165.665-.672-.03-1.278.006-2.558-.026-3.837-.012-.513.168-.685.668-.659.672.035 1.348.04 2.02.005.511-.026.668.163.654.667-.036 1.279-.006 2.558-.042 3.837-.014.514.177.667.67.66 1.273-.017 2.548.028 3.822.008.515-.009.759.128.721.688-.036.553-.022 1.11.003 1.665.022.478-.182.648-.643.623-.455-.025-.913.003-1.37-.007-.363-.009-.526.145-.52.516.013.676.002 1.352.007 2.027.003.543.279.785.822.75.384-.025.77.002 1.154-.026.524-.038.597.182.487.654-.314 1.348-1.046 1.985-2.408 2.005-.649.01-1.299 0-1.947-.02-1.078-.034-1.548-.532-1.549-1.641 0-1.158.012-2.317.025-3.475.005-.386-.012-.771-.517-.778-.45-.007-.92-.146-1.16.528-.89 2.501-2.744 4.13-5.01 5.353-.196.106-.418.182-.602-.002-.2-.2-.062-.409.055-.588.29-.444.59-.88.89-1.318.731-1.065.869-2.276.876-3.524.002-.353-.169-.464-.49-.459-.48.008-.961-.01-1.442.003-.362.01-.528-.132-.52-.509.015-.651.017-1.303.001-1.954-.01-.383.162-.509.522-.502.721.014 1.443.004 2.164.004v-.029z"/>
        <path fill="#ffffff" d="M21.262 5.187c.012-.649.26-1.2.84-1.493.57-.287 1.159-.114 1.611.284.905.794 1.416 1.81 1.46 3.032.014.385-.063.807-.576.69-1.18-.27-2.299-.698-3.089-1.696-.181-.229-.255-.516-.246-.817M34.623 5.464c.09.832-.415 1.283-.996 1.648-.72.45-1.516.695-2.367.78-.498.05-.636-.156-.586-.619.135-1.225.718-2.208 1.638-2.982.49-.412 1.067-.35 1.622-.073.529.264.81.665.689 1.246"/>
    </g>
</svg>
