<svg xmlns="http://www.w3.org/2000/svg" xmlns:xlink="http://www.w3.org/1999/xlink" width="159" height="38" viewBox="0 0 159 38">
    <defs>
        <path id="prefix__a" d="M25.681 0c-.038 0-.076.005-.115.012-8.798 1.89-15.184 9.777-15.184 18.754 0 .763.05 1.513.137 2.252l-.101.001c-3.163 0-5.042-.749-5.584-2.225-.556-1.513.655-3.659 3.32-5.89.217-.181.258-.498.094-.728-.106-.148-.273-.228-.444-.228-.095 0-.191.024-.278.076C2.752 14.853.006 18.01 0 20.557v.017c.001.388.066.762.196 1.118.73 1.983 3.325 3.077 7.31 3.077h.001c1.162 0 2.426-.099 3.748-.285 2.448 7.796 9.764 13.47 18.387 13.47 2.793 0 5.494-.588 8.027-1.746.252-.116.376-.402.288-.664-.075-.225-.285-.371-.515-.371-.039 0-.077.004-.115.013-1.267.272-2.561.41-3.846.41-7.915 0-14.66-5.07-17.147-12.119 3.251-.728 11.163-2.767 17.285-6.515.241-.148.328-.456.2-.708-.095-.187-.286-.297-.485-.297-.07 0-.138.013-.205.04-6.985 2.846-12.98 3.795-16.947 4.422l-.614.098c-.167-.985-.259-1.995-.259-3.026 0-7.05 4.161-13.51 10.6-16.456.252-.116.376-.401.288-.664C26.122.146 25.912 0 25.68 0z"/>
        <path id="prefix__c" d="M46.485 16.6c-.319.181-.682.41-1.143.702-2.32 1.465-7.147 4.515-18.257 8.502-.23.082-.361.325-.301.562.053.214.246.36.462.36.023 0 .045-.002.068-.005 2.514-.36 12.53-2.755 18.422-5.818l.04.587c.308 4.504-1.335 8.943-4.505 12.177-.174.176-.183.456-.02.643.094.108.226.165.361.165.097 0 .195-.03.28-.09 4.758-3.432 7.36-8.959 6.961-14.785-.054-.792-.16-1.595-.3-2.263-.069-.33-.23-1.102-1.005-1.102-.286 0-.624.116-1.063.365"/>
    </defs>
    <g fill="none" fill-rule="evenodd">
        <path fill="#FEFEFE" d="M102.36 19.014c.821-1.11 1.535-2.02 2.183-2.974.311-.457.66-.65 1.205-.605.481.04.97.025 1.455.004.612-.028.64.196.343.653-.865 1.33-1.69 2.687-2.58 4-.33.486-.319.889-.114 1.407.99 2.525 1.946 5.064 2.91 7.598.338.886.334.888-.571.892-2.114.01-2.116.011-2.854-1.956-.612-1.632-1.218-3.265-1.976-4.896v1.846c0 .97.016 1.94-.004 2.91-.024 1.187-.851 2.042-2.018 2.085-.728.027-1.456 0-2.184.014-.428.008-.646-.142-.659-.603-.011-.46.192-.643.623-.635.78.016 1.02-.416 1.01-1.132-.022-1.476-.006-2.954-.128-4.474-.563 1.136-1.124 2.274-1.69 3.409-.458.913-.95 1.811-1.37 2.742-.234.518-.548.703-1.115.701-2.176-.006-2.174.013-1.204-1.94 1.11-2.24 2.205-4.486 3.335-6.716.22-.433.232-.759-.028-1.18-.833-1.35-1.61-2.736-2.435-4.09-.311-.512-.265-.669.376-.674 1.985-.015 1.985-.037 3.06 1.62l1.189 1.839c0-1.561.003-2.908-.002-4.255 0-.395-.311-.293-.53-.294-1.214-.007-2.43-.028-3.642.006-.679.018-.885-.255-.882-.912.003-.661.287-.836.886-.824 1.187.025 2.374-.017 3.56.018.504.016.643-.142.625-.636-.038-.995.018-1.994-.022-2.99-.028-.694.235-.982.933-.972 2.729.038 2.277-.288 2.316 2.232.011.75-.248 1.747.131 2.186.438.508 1.463.137 2.233.162.915.03 1.833.007 2.75.009.188 0 .414-.015.497.183.103.244-.1.39-.264.531-.753.649-1.552 1.126-2.622 1.018-.748-.075-1.509 0-2.264-.02-.351-.01-.471.109-.467.46.014 1.343.006 2.687.006 4.253M71.597 16.014c3.174 0 6.349-.002 9.523.002.31 0 .725-.114.852.262.136.398-.335.472-.55.672-.556.52-1.217.684-1.992.663-1.693-.046-3.39.003-5.084-.024-.509-.009-.718.104-.694.652.044.977.04 1.959.001 2.938-.02.516.134.678.672.67 2.178-.028 4.358-.013 6.537-.009.287 0 .664-.1.793.225.146.37-.288.441-.487.625-.62.576-1.353.774-2.212.746-1.532-.049-3.068.014-4.6-.028-.584-.015-.722.177-.704.718.04 1.19.045 2.383-.002 3.573-.023.578.181.694.726.687 2.26-.028 4.52-.015 6.78-.007.303 0 .715-.134.829.275.1.356-.317.436-.519.624-.6.563-1.314.725-2.14.722-5.784-.023-11.568-.015-17.352-.006-.576 0-.989-.042-.97-.793.016-.626.248-.84.863-.836 2.287.019 4.574-.011 6.86.024.58.008.722-.162.703-.71-.043-1.217-.038-2.436 0-3.653.014-.505-.163-.618-.644-.614-2.152.024-4.305.003-6.457.017-.579.004-.974-.058-.978-.797-.004-.735.37-.807.962-.801 2.07.02 4.144-.032 6.213.028.779.022.952-.237.905-.932-.057-.844-.05-1.696-.001-2.54.035-.606-.125-.818-.789-.805-2.205.044-4.411.008-6.617.022-.588.004-1.039.016-1.024-.803.016-.827.513-.787 1.073-.787 3.175.003 6.35.001 9.524 0M122.492 22.165c-2.33 3.728-5.587 6.1-9.483 7.634-.914.36-.918.297-.998-.687-.074-.903.225-1.35 1.054-1.758 3.663-1.801 6.35-4.516 7.303-8.704.5-2.195.542-4.433.528-6.673-.007-1.024.022-2.05-.01-3.075-.023-.677.27-.93.9-.9.395.02.793.003 1.19.004 1.074.002 1.126.065 1.144 1.133.04 2.21-.034 4.419.092 6.631.308 5.376 2.872 9.189 7.583 11.501.92.453 1.283.973 1.191 2.013-.064.737-.268.797-.866.565-3.825-1.485-7.053-3.758-9.349-7.282-.069-.107-.146-.21-.28-.402M151.263 28.836c.592-.034 1.033-.052 1.474-.087.286-.023.469-.169.544-.468.49-1.967.054-2.458-1.96-2.19.987 1.906.987 1.906-.058 2.745m-2.546-2.813c-.31 0-.623-.022-.932.005-.65.057-.974-.158-.956-.872.014-.594.21-.847.83-.838 1.624.027 3.247.016 4.87.004.268-.002.657.17.659-.384.002-.554-.387-.387-.654-.387-5.499-.007-10.997-.008-16.496-.001-.537 0-1.019-.014-1.037-.731-.013-.532.166-.82.767-.819 7.541.01 15.082.006 22.622.006.232 0 .508-.042.585.253.067.254-.186.349-.341.473-.534.425-1.071.857-1.815.812-.32-.02-.308.18-.317.4-.01.242.03.396.33.387.549-.015 1.099-.005 1.649-.002.207 0 .441-.026.509.244.053.217-.116.33-.26.442-.576.445-1.103.99-1.901 1.004-.303.004-.329.162-.326.395.008.47.006.94.002 1.411-.012 1.301-.698 2.108-1.98 2.145-1.936.055-3.875.015-5.813.03-.48.004-.54-.252-.547-.648-.007-.414.164-.563.557-.555.496.01.995.012 1.492-.004.163-.005.394.096.473-.146.065-.202-.097-.344-.212-.477-.436-.503-.99-.864-1.594-1.111-.652-.267-.85-.511-.164-1.036"/>
        <path fill="#FEFEFE" d="M90.163 10.005c1.09 0 2.182-.002 3.273 0 .194.001.428-.053.53.175.122.277-.116.412-.283.546-.603.48-1.18 1.032-2.037.945-.361-.037-.394.178-.393.464.007 1.338.016 2.676-.002 4.015-.006.409.154.521.528.505.545-.024 1.092-.011 1.637-.002.211.002.485-.08.57.213.064.22-.103.383-.264.503-.652.484-1.21 1.154-2.117 1.144-.263-.003-.346.134-.345.372 0 1.465.003 2.929-.002 4.393-.001.316.113.405.407.295.371-.138.746-.27 1.127-.379.258-.074.6-.395.774-.013.158.344.199.805-.12 1.133-.241.25-.527.459-.806.666-1.778 1.317-3.758 2.217-5.822 2.955-.48.171-.561-.004-.551-.43.016-.63.035-1.264-.004-1.892-.028-.46.184-.604.573-.705.616-.162 1.434-.08 1.787-.576.35-.49.095-1.27.105-1.923.016-1.11-.009-2.222.012-3.332.007-.413-.104-.602-.543-.57-.468.034-.943-.009-1.413.01-.66.028-.785-.385-.782-.926.003-.523.08-.98.757-.944.1.006.2.002.298.002 1.675-.005 1.675-.005 1.675-1.674 0-.934-.017-1.869.009-2.802.011-.401-.12-.53-.506-.508-.494.03-.992-.007-1.487.011-.62.023-.745-.356-.748-.874-.003-.515.185-.809.74-.802 1.14.014 2.282.005 3.423.005M146.44 13.996c-2.604 0-5.208-.003-7.812.003-.495.001-.886-.033-.866-.775.016-.584.225-.748.723-.744 2.019.02 4.038.012 6.058.005.342-.001.76.161.747-.542-.012-.675-.428-.464-.72-.465-2.551-.013-5.102-.016-7.652-.001-.532.002-.906-.014-.918-.804-.012-.83.378-.87.947-.866 2.524.018 5.049-.006 7.572.029.57.007.852-.116.761-.803-.099-.754.238-1.057.92-1.028.743.032 1.49.037 2.231-.002.69-.036 1.017.27.922 1.02-.085.674.166.824.754.815 2.39-.036 4.782-.016 7.173-.013.257 0 .595-.099.7.244.106.344-.248.45-.429.63-.572.58-1.234.808-2.032.787-1.858-.05-3.719-.013-5.58-.019-.336 0-.606-.036-.595.52.012.558.299.504.626.503 1.86-.005 3.72-.005 5.58.002.225.001.526-.116.638.196.118.33-.206.418-.367.586-.53.55-1.153.736-1.889.726-2.497-.036-4.995-.014-7.492-.014v.01zM146.41 19.99c-2.818 0-5.637-.006-8.456.006-.576.003-.957-.057-.954-.596.002-.544.414-.6.97-.6 2.183.006 4.367.007 6.55-.003.286-.001.722.134.73-.292.007-.443-.448-.282-.72-.284-1.795-.014-3.592-.012-5.388-.005-.582.002-1.015-.04-1.018-.627-.004-.623.497-.584 1.045-.584 5.278.002 10.556.001 15.834.002.194 0 .397-.023.578.014.336.069.487.24.176.44-.633.406-1.283.779-2.2.76-1.214-.027-2.43-.01-3.647-.006-.263 0-.573-.056-.568.285.005.322.285.302.566.302l6.218.001c.326 0 .758-.067.862.225.09.252-.348.33-.559.48-.533.377-1.16.498-1.894.492-2.708-.024-5.416-.01-8.125-.01M61.062 12.685c-.216-.683.138-1.11.933-1.37.607-.196 1.102-.637 1.585-1.049 1.69-1.442 3.588-2.249 5.896-2.258 1.764-.007 3.527-.034 5.285.075 1.573.098 2.913.796 4.126 1.745.853.668 1.669 1.397 2.736 1.746.452.147.37.511.373.844.016 1.833.017 1.831-1.76 1.204-1.2-.423-2.266-1.079-3.167-1.94-1.034-.988-2.25-1.45-3.666-1.523-1.605-.084-3.207-.104-4.803.127-.905.132-1.648.552-2.32 1.148-1.236 1.097-2.587 2.019-4.24 2.428-.974.241-.976.236-.978-.734v-.443"/>
        <path fill="#FEFEFE" d="M157.445 16.978c-.206 0-.417-.023-.618.004-.658.09-.84-.162-.81-.736.048-.898.009-.903-1.048-.903-6.345 0-12.69-.004-19.035.006-.559.001-.942-.043-.934-.692.01-.68.47-.656.986-.656 6.396.004 12.793.003 19.19.003.67 0 1.342-.016 2.01.014 1.284.057 1.802.562 1.812 1.715.012 1.245.012 1.245-1.553 1.245M141.522 25.604c-.216 0-.436.03-.646-.005-.72-.121-.953.152-.93.977.06 2.067.048 2.09 2.012 1.815.685-.096 1.056-.457 1.08-1.254.047-1.534.065-1.533-1.355-1.533h-.161zm-.035-1.591c1.217 0 2.435.027 3.651-.012.616-.02.894.172.859.893-.045.937.002 1.88-.014 2.82-.024 1.432-.662 2.223-1.976 2.257-2.135.058-4.272.009-6.408.024-.478.002-.597-.247-.593-.71.012-1.528.019-3.055-.006-4.582-.009-.553.197-.71.675-.702 1.27.024 2.541.008 3.812.008v.004zM107 10.365c-.007.411-.382.426-.624.576-.207.129-.353.034-.485-.164-.447-.67-1.012-1.222-1.66-1.687-.137-.098-.32-.187-.183-.42.474-.807 1.565-.904 2.146-.188.444.545.695 1.177.806 1.883M23.437 20.022c-.11.167-.263.183-.437.124.117-.143.266-.174.437-.124"/>
        <mask id="prefix__b" fill="#fff">
            <use xlink:href="#prefix__a"/>
        </mask>
        <path fill="#FFF" d="M25.681 0c-.038 0-.076.005-.115.012-8.798 1.89-15.184 9.777-15.184 18.754 0 .763.05 1.513.137 2.252l-.101.001c-3.163 0-5.042-.749-5.584-2.225-.556-1.513.655-3.659 3.32-5.89.217-.181.258-.498.094-.728-.106-.148-.273-.228-.444-.228-.095 0-.191.024-.278.076C2.752 14.853.006 18.01 0 20.557v.017c.001.388.066.762.196 1.118.73 1.983 3.325 3.077 7.31 3.077h.001c1.162 0 2.426-.099 3.748-.285 2.448 7.796 9.764 13.47 18.387 13.47 2.793 0 5.494-.588 8.027-1.746.252-.116.376-.402.288-.664-.075-.225-.285-.371-.515-.371-.039 0-.077.004-.115.013-1.267.272-2.561.41-3.846.41-7.915 0-14.66-5.07-17.147-12.119 3.251-.728 11.163-2.767 17.285-6.515.241-.148.328-.456.2-.708-.095-.187-.286-.297-.485-.297-.07 0-.138.013-.205.04-6.985 2.846-12.98 3.795-16.947 4.422l-.614.098c-.167-.985-.259-1.995-.259-3.026 0-7.05 4.161-13.51 10.6-16.456.252-.116.376-.401.288-.664C26.122.146 25.912 0 25.68 0z" mask="url(#prefix__b)"/>
        <mask id="prefix__d" fill="#fff">
            <use xlink:href="#prefix__c"/>
        </mask>
        <path fill="#FFF" d="M46.485 16.6c-.319.181-.682.41-1.143.702-2.32 1.465-7.147 4.515-18.257 8.502-.23.082-.361.325-.301.562.053.214.246.36.462.36.023 0 .045-.002.068-.005 2.514-.36 12.53-2.755 18.422-5.818l.04.587c.308 4.504-1.335 8.943-4.505 12.177-.174.176-.183.456-.02.643.094.108.226.165.361.165.097 0 .195-.03.28-.09 4.758-3.432 7.36-8.959 6.961-14.785-.054-.792-.16-1.595-.3-2.263-.069-.33-.23-1.102-1.005-1.102-.286 0-.624.116-1.063.365" mask="url(#prefix__d)"/>
    </g>
</svg>
