<svg xmlns="http://www.w3.org/2000/svg" xmlns:xlink="http://www.w3.org/1999/xlink" width="23" height="23" viewBox="0 0 23 23">
    <defs>
        <path id="prefix__a" d="M0 0H27V27H0z"/>
        <path id="prefix__c" d="M0 0L0 23 23 23 23 0z"/>
    </defs>
    <g fill="none" fill-rule="evenodd" transform="translate(-2 -2)">
        <mask id="prefix__b" fill="#fff">
            <use xlink:href="#prefix__a"/>
        </mask>
        <g mask="url(#prefix__b)">
            <g transform="translate(2 2)">
                <mask id="prefix__d" fill="#fff">
                    <use xlink:href="#prefix__c"/>
                </mask>
                <path fill="#FFF" d="M18.52 14.114c-.48-.497-1.06-.763-1.673-.763-.61 0-1.193.26-1.693.758l-1.565 1.553c-.128-.07-.257-.133-.38-.197-.179-.089-.347-.173-.491-.262-1.465-.926-2.797-2.134-4.074-3.696-.619-.779-1.035-1.434-1.337-2.1.406-.369.783-.753 1.149-1.123.139-.138.277-.28.416-.419 1.04-1.035 1.04-2.375 0-3.41L7.52 3.109c-.153-.153-.312-.31-.46-.468-.297-.305-.609-.62-.93-.917C5.648 1.251 5.074 1 4.47 1c-.603 0-1.187.251-1.682.724l-.01.01-1.683 1.69C.46 4.056.1 4.825.02 5.717c-.118 1.44.307 2.78.634 3.657.802 2.154 2 4.15 3.787 6.289 2.168 2.577 4.777 4.613 7.757 6.047 1.139.537 2.659 1.173 4.357 1.281.104.005.213.01.312.01 1.143 0 2.104-.409 2.856-1.222.005-.01.015-.015.02-.025.257-.31.554-.591.866-.892.213-.202.43-.414.644-.636.49-.507.747-1.099.747-1.705 0-.61-.262-1.197-.762-1.69l-2.718-2.716zm1.772 5.19c-.005 0-.005.005 0 0-.193.207-.39.394-.604.601-.321.306-.648.626-.955.986-.5.532-1.09.783-1.862.783-.074 0-.153 0-.227-.004-1.47-.094-2.837-.666-3.861-1.154-2.802-1.35-5.263-3.267-7.307-5.697-1.688-2.026-2.817-3.898-3.564-5.909-.46-1.227-.63-2.183-.555-3.085.05-.577.272-1.055.683-1.464l1.688-1.68c.243-.227.5-.35.753-.35.312 0 .564.187.723.345l.014.014c.302.281.59.572.891.882.154.158.312.316.47.479l1.352 1.345c.525.523.525 1.005 0 1.528-.144.143-.282.286-.426.424-.415.423-.812.818-1.242 1.202-.01.01-.02.015-.025.025-.426.424-.346.838-.257 1.118l.015.045c.351.848.846 1.646 1.599 2.597l.004.005c1.367 1.676 2.807 2.982 4.396 3.982.203.128.411.232.61.33.178.09.346.173.49.262.02.01.039.024.059.034.168.084.326.123.49.123.41 0 .668-.256.752-.34l1.693-1.685c.169-.168.436-.37.748-.37.307 0 .56.192.713.36l2.737 2.725c.51.503.51 1.02.005 1.543zM12.545 6.313c1.284.216 2.45.824 3.382 1.755.932.932 1.535 2.098 1.755 3.383.054.324.333.549.652.549.04 0 .074-.005.113-.01.363-.059.603-.402.544-.765-.265-1.554-1-2.97-2.123-4.093-1.122-1.123-2.539-1.858-4.093-2.123-.363-.059-.7.181-.765.54-.063.357.172.705.535.764zM22.99 10.236c-.436-2.556-1.64-4.883-3.49-6.734C17.648 1.65 15.322.446 12.767.01c-.358-.064-.696.181-.76.539-.058.362.182.7.544.764 2.282.387 4.362 1.47 6.017 3.12 1.655 1.655 2.732 3.736 3.119 6.019.054.323.333.548.65.548.04 0 .074-.005.113-.01.358-.054.603-.397.539-.754z" mask="url(#prefix__d)"/>
            </g>
        </g>
    </g>
</svg>
