<?xml version="1.0" encoding="UTF-8"?>
<svg width="27px" height="25px" viewBox="0 0 27 25" version="1.1" xmlns="http://www.w3.org/2000/svg" xmlns:xlink="http://www.w3.org/1999/xlink">
    <!-- Generator: Sketch 63 (92445) - https://sketch.com -->
    <title>medical-kit copy</title>
    <desc>Created with Sketch.</desc>
    <defs>
        <rect id="path-1" x="0" y="0" width="39" height="39"></rect>
    </defs>
    <g id="页面1" stroke="none" stroke-width="1" fill="none" fill-rule="evenodd">
        <g id="EC首頁-1440-1" transform="translate(-788.000000, -638.000000)">
            <g id="Group-5" transform="translate(0.000000, 70.000000)">
                <g id="Group-4" transform="translate(120.000000, 554.000000)">
                    <g id="medical-kit-copy" transform="translate(662.000000, 8.000000)">
                        <mask id="mask-2" fill="white">
                            <use xlink:href="#path-1"></use>
                        </mask>
                        <g id="Mask"></g>
                        <g mask="url(#mask-2)" fill="#27327B">
                            <g transform="translate(6.000000, 6.000000)">
                                <path d="M1.03092042,5.08360302 C0.343720038,5.80524991 0,6.66936354 0,7.67544049 L0,21.3245595 C0,22.3313916 0.343720038,23.1957569 1.03092042,23.9174038 C1.71812081,24.6390507 2.54122723,25 3.5,25 L4,25 L4,4 L3.5,4 C2.54122723,4 1.71812081,4.36170442 1.03092042,5.08360302 Z" id="Fill-1"></path>
                                <path d="M19.5008461,1.5627185 C19.5008461,1.12871327 19.3546126,0.759883733 19.0626252,0.455730467 C18.7713569,0.152326348 18.4172801,0 18.0006346,0 L9.00056406,0 C8.58391855,0 8.22984178,0.152326348 7.93761458,0.455730467 C7.64634628,0.758884871 7.50035254,1.12871327 7.50035254,1.5627185 L7.50035254,4.16625047 L5,4.16625047 L5,25 L22,25 L22,4.16625047 L19.5008461,4.16625047 L19.5008461,1.5627185 Z M9.50063457,4.16625047 L17.5005641,4.16625047 L17.5005641,2.08362467 L9.50063457,2.08362467 L9.50063457,4.16625047 Z M19.5008461,16.1458437 C19.5008461,16.2979204 19.4538596,16.422778 19.3603661,16.5204167 C19.2666328,16.6178057 19.1467693,16.6667499 19.0007756,16.6667499 L15.500282,16.6667499 L15.500282,20.3128434 C15.500282,20.4641708 15.4535353,20.5890285 15.359802,20.6864175 C15.2663085,20.7840562 15.146445,20.8327507 15.0011704,20.8327507 L12.0009871,20.8327507 C11.8547536,20.8327507 11.7348901,20.7840562 11.6413966,20.6864175 C11.5476634,20.5890285 11.5009166,20.4641708 11.5009166,20.3128434 L11.5009166,16.6667499 L8.00042305,16.6667499 C7.85442931,16.6667499 7.73552472,16.6178057 7.64179147,16.5204167 C7.5470993,16.422778 7.50035254,16.2979204 7.50035254,16.1458437 L7.50035254,13.0204067 C7.50035254,12.8683301 7.5470993,12.7434724 7.64179147,12.6458337 C7.73456581,12.5491939 7.85442931,12.5004994 8.00042305,12.5004994 L11.5009166,12.5004994 L11.5009166,8.85415626 C11.5009166,8.70207963 11.5476634,8.57722197 11.6413966,8.47958328 C11.7348901,8.3821943 11.8547536,8.33325009 12.0009871,8.33325009 L15.0002115,8.33325009 C15.146445,8.33325009 15.2663085,8.3821943 15.359802,8.47958328 C15.4535353,8.57722197 15.500282,8.70207963 15.500282,8.85415626 L15.500282,12.5004994 L19.0007756,12.5004994 C19.1467693,12.5004994 19.2666328,12.5491939 19.3594072,12.6458337 C19.4529007,12.7434724 19.4998872,12.8683301 19.4998872,13.0204067 L19.4998872,16.1458437 L19.5008461,16.1458437 Z" id="Fill-4"></path>
                                <path d="M25.9690796,5.08360302 C25.2809204,4.36170442 24.4587728,4 23.5,4 L23,4 L23,25 L23.5,25 C24.4587728,25 25.2809204,24.6390507 25.9690796,23.9174038 C26.65628,23.1957569 27,22.3313916 27,21.3245595 L27,7.67544049 C27,6.66936354 26.65628,5.80524991 25.9690796,5.08360302 Z" id="Fill-5"></path>
                            </g>
                        </g>
                    </g>
                </g>
            </g>
        </g>
    </g>
</svg>