<svg xmlns="http://www.w3.org/2000/svg" xmlns:xlink="http://www.w3.org/1999/xlink" width="27" height="25" viewBox="0 0 27 25">
    <defs>
        <path id="prefix__a" d="M0 0H39V39H0z"/>
    </defs>
    <g fill="none" fill-rule="evenodd" transform="translate(-6 -6)">
        <mask id="prefix__b" fill="#fff">
            <use xlink:href="#prefix__a"/>
        </mask>
        <g fill="#FFF" mask="url(#prefix__b)">
            <g>
                <path d="M1.03 5.084C.345 5.805 0 6.669 0 7.675v13.65c0 1.006.344 1.87 1.03 2.592C1.719 24.64 2.542 25 3.5 25H4V4h-.5c-.959 0-1.782.362-2.47 1.084zM19.5 1.563c0-.434-.145-.803-.437-1.107C18.77.152 18.417 0 18 0H9c-.417 0-.771.152-1.063.456-.292.303-.438.673-.438 1.107v2.603H5V25h17V4.166h-2.5V1.563zm-10 2.603h8V2.084h-8v2.082zm10 11.98c0 .152-.046.277-.14.374-.093.098-.213.147-.36.147h-3.5v3.646c0 .151-.046.276-.14.373-.094.098-.214.147-.359.147h-3c-.146 0-.266-.049-.36-.147-.093-.097-.14-.222-.14-.373v-3.646H8c-.147 0-.265-.05-.36-.147-.094-.097-.14-.222-.14-.374V13.02c0-.152.046-.277.14-.374.094-.097.213-.146.36-.146h3.5V8.854c0-.152.047-.277.14-.374.094-.098.214-.147.36-.147h3c.145 0 .265.05.359.147.094.097.14.222.14.374V12.5H19c.147 0 .267.05.36.146.093.097.14.222.14.374v3.126zM25.97 5.084C25.28 4.362 24.458 4 23.5 4H23v21h.5c.959 0 1.78-.36 2.47-1.083.686-.721 1.03-1.586 1.03-2.592V7.675c0-1.006-.344-1.87-1.03-2.591z" transform="translate(6 6)"/>
            </g>
        </g>
    </g>
</svg>
