<?xml version="1.0" encoding="UTF-8"?>
<svg width="24px" height="26px" viewBox="0 0 24 26" version="1.1" xmlns="http://www.w3.org/2000/svg" xmlns:xlink="http://www.w3.org/1999/xlink">
    <!-- Generator: Sketch 63 (92445) - https://sketch.com -->
    <title>dollar-coin-stack copy</title>
    <desc>Created with Sketch.</desc>
    <defs>
        <rect id="path-1" x="0" y="0" width="39" height="39"></rect>
    </defs>
    <g id="页面1" stroke="none" stroke-width="1" fill="none" fill-rule="evenodd">
        <g id="EC首頁-1440-1" transform="translate(-489.000000, -639.000000)">
            <g id="Group-5" transform="translate(0.000000, 70.000000)">
                <g id="Group-4" transform="translate(120.000000, 554.000000)">
                    <g id="dollar-coin-stack-copy" transform="translate(362.000000, 8.000000)">
                        <mask id="mask-2" fill="white">
                            <use xlink:href="#path-1"></use>
                        </mask>
                        <g id="Mask"></g>
                        <g mask="url(#mask-2)" fill="#27327B">
                            <g transform="translate(7.000000, 7.000000)">
                                <path d="M6.24270408,3.62936562 L6.9182013,3.92946482 C6.44954798,4.2215461 6.23828434,4.50691851 6.29164267,4.77928226 C6.34660818,5.06015482 6.5990156,5.30241047 7.04251657,5.49958579 C7.45090069,5.68113435 7.93184893,5.77923111 8.51348691,5.80001225 C9.08700864,5.82013886 9.97184089,5.65585336 11.1439563,5.31141017 C11.4352575,5.22574936 11.6634769,5.17551465 11.822025,5.16340596 C11.9773589,5.15097001 12.102317,5.16847852 12.2159446,5.21936775 C12.2944552,5.25381207 12.5327195,5.35959949 11.9334829,5.62615434 C11.5442242,5.79935772 11.1408223,5.87037356 10.7355722,5.83805645 C10.4144579,5.81253002 10.0895667,5.87290984 9.90530369,5.99211501 L9.54497422,6.22537095 C9.38771178,6.32731305 9.35564856,6.45739967 9.45955267,6.57218679 C9.56313534,6.68656484 9.78950646,6.7703439 10.0613607,6.79521581 C10.9509342,6.87637677 11.8289359,6.77222566 12.6723833,6.48685324 L13.5842162,6.89208534 C13.9082234,7.03591696 14.433369,7.03591696 14.7572959,6.8924126 C15.0809014,6.74825372 15.0809014,6.51491596 14.7572959,6.37083889 L13.8137213,5.95153453 C14.228052,5.68334337 14.4462265,5.41237048 14.461334,5.14450658 C14.4798165,4.83098964 14.2308645,4.55715322 13.7220317,4.33085159 C13.3592111,4.16942963 12.9448001,4.06977837 12.4918971,4.03427045 C12.0389138,3.99851709 11.6094757,4.01831643 11.2165205,4.09342305 C10.8285475,4.16754788 10.2383915,4.31743385 9.46557959,4.53759932 C9.1293578,4.63258709 8.90113842,4.68077641 8.78686801,4.68143094 C8.67766022,4.68208546 8.57970267,4.66449513 8.50376348,4.63062352 C8.23472176,4.51141836 8.46077145,4.36030516 8.69807139,4.25476318 C8.99250653,4.12410385 9.30670997,4.06241498 9.63160115,4.07100561 C9.95745664,4.07967805 10.2647492,4.00236241 10.4157437,3.87383029 L10.6247572,3.69645432 C10.7569477,3.58428529 10.7497154,3.44978063 10.6062747,3.34014788 C10.462834,3.23084239 10.2028728,3.16179012 9.91783968,3.15729027 C9.29947767,3.14837238 8.70305364,3.23239688 8.10317418,3.41361818 L7.41578383,3.10811916 C7.09153553,2.96396028 6.56663095,2.96396028 6.24270408,3.10811916 C5.91909864,3.25195079 5.91909864,3.48520673 6.24270408,3.62936562 Z" id="Fill-1"></path>
                                <path d="M20.8479124,6.97952745 C20.904914,6.74097995 20.9338315,6.49849021 20.9338315,6.25247761 L20.9338315,5.47493354 C20.9338315,3.92127132 19.7814662,2.50055488 17.688658,1.47473353 C15.7485208,0.523563115 13.1839496,0 10.4671241,0 C7.75021528,0 5.18539404,0.523563115 3.24517348,1.47473353 C1.15236534,2.50055488 0,3.92127132 0,5.47493354 L0,6.25247761 C0,7.78449945 1.12144782,9.18684672 3.15925442,10.2094807 C3.10258618,10.4463507 3.0661685,10.741851 3.0661685,10.9329238 L3.0661685,11.0747606 C1.08694686,12.0927814 0,13.4760885 0,14.9845407 L0,15.7624203 C0,16.8098821 0.524764577,17.7967843 1.50787522,18.6433595 C1.37470485,19.0011807 1.30536959,19.3700738 1.30536959,19.7475224 L1.30536959,20.5250665 C1.30536959,22.0787287 2.45806828,23.4994451 4.55054307,24.5252665 C6.49076363,25.4761014 9.05558488,26 11.7724937,26 C14.4893191,26 17.0538904,25.4761014 18.9940276,24.5252665 C21.0868357,23.4994451 22.2392011,22.0787287 22.2392011,20.5250665 L22.2392011,19.7475224 C22.2392011,18.7000606 21.7151032,17.7131584 20.7323259,16.8669187 C20.8651629,16.5090975 20.9338315,16.1395334 20.9338315,15.7624203 L20.9338315,15.6204997 C22.9130531,14.6022273 24,13.2191718 24,11.710384 L24,10.9325883 C24,9.4024118 22.8811356,8.00140656 20.8479124,6.97952745 Z M1.4629573,4.8167471 C1.76596572,4.04113222 2.59157199,3.28791261 3.82885636,2.68147857 C5.59098864,1.81779235 7.94847079,1.34203938 10.4671241,1.34203938 C12.985694,1.34203938 15.3428429,1.81779235 17.1049751,2.68147857 C18.3423428,3.28791261 19.1678658,4.04113222 19.4712075,4.8167471 C18.4002611,6.69182775 14.6791578,8.05877874 10.4667907,8.05877874 C6.25442373,8.05877874 2.53357038,6.69182775 1.4629573,4.8167471 Z M1.4629573,14.3266059 C1.70938082,13.6959313 2.30281397,13.0806062 3.18075502,12.5465584 C3.51901442,13.7696596 4.60104447,14.8718094 6.31134198,15.7103324 C8.25189589,16.6614189 10.8163838,17.1854015 13.5332926,17.1854015 C13.7988833,17.1854015 14.0625573,17.1787751 14.3246479,17.1689615 C13.1386983,17.4255426 11.8287452,17.569057 10.4671241,17.569057 C6.25475708,17.5687214 2.53357038,16.2017705 1.4629573,14.3266059 Z M20.7765771,19.0896715 C19.7056307,20.9644166 15.9847774,22.3317031 11.7724937,22.3317031 C8.11314203,22.3317031 4.82663407,21.2992554 3.32434234,19.7993587 C5.25506264,20.7262046 7.78638296,21.2370183 10.4671241,21.2370183 C13.1839496,21.2370183 15.7485208,20.7134552 17.688658,19.7622848 C18.6938526,19.2695047 19.4816245,18.6856337 20.029223,18.0395256 C20.3830662,18.376713 20.6363232,18.7305082 20.7765771,19.0896715 Z M13.5332926,13.5170207 C9.85544043,13.5170207 6.55226534,12.4747593 5.06039057,10.9623648 C6.67176866,11.4597582 8.52982027,11.7270756 10.4671241,11.7270756 C13.1839496,11.7270756 15.7485208,11.2035125 17.688658,10.2526776 C18.8634407,9.6766911 19.7420484,8.97648205 20.2867302,8.19801533 C21.4592628,8.79404857 22.2437845,9.52369861 22.537376,10.274989 C21.4664296,12.1497342 17.7455763,13.5170207 13.5332926,13.5170207 Z" id="Fill-2"></path>
                            </g>
                        </g>
                    </g>
                </g>
            </g>
        </g>
    </g>
</svg>