<svg xmlns="http://www.w3.org/2000/svg" xmlns:xlink="http://www.w3.org/1999/xlink" width="24" height="26" viewBox="0 0 24 26">
    <defs>
        <path id="prefix__a" d="M0 0H39V39H0z"/>
    </defs>
    <g fill="none" fill-rule="evenodd" transform="translate(-7 -7)">
        <mask id="prefix__b" fill="#fff">
            <use xlink:href="#prefix__a"/>
        </mask>
        <g fill="#FFF" mask="url(#prefix__b)">
            <g>
                <path d="M6.243 3.63l.675.3c-.468.292-.68.577-.626.85.055.28.307.522.75.72.409.181.89.28 1.471.3.574.02 1.459-.144 2.631-.489.291-.085.52-.135.678-.148.155-.012.28.005.394.056.078.035.317.14-.283.407-.389.173-.792.244-1.197.212-.322-.025-.646.035-.83.154l-.361.233c-.157.102-.19.232-.085.347.103.115.33.198.601.223.89.081 1.768-.023 2.611-.308l.912.405c.324.144.85.144 1.173 0 .324-.144.324-.377 0-.521l-.943-.42c.414-.268.632-.539.647-.806.019-.314-.23-.588-.739-.814-.363-.162-.777-.261-1.23-.297-.453-.035-.883-.016-1.275.06-.388.074-.979.223-1.751.444-.337.095-.565.143-.68.143-.108.001-.206-.017-.282-.05-.27-.12-.043-.27.194-.376.295-.13.609-.193.934-.184.325.009.633-.069.784-.197l.209-.178c.132-.112.125-.246-.019-.356-.143-.11-.403-.178-.688-.183-.619-.009-1.215.075-1.815.257l-.687-.306c-.324-.144-.85-.144-1.173 0-.324.144-.324.377 0 .521z" transform="translate(7 7)"/>
                <path d="M20.848 6.98c.057-.239.086-.482.086-.728v-.777c0-1.554-1.153-2.974-3.245-4C15.749.524 13.184 0 10.467 0 7.75 0 5.185.524 3.245 1.475 1.152 2.5 0 3.92 0 5.475v.777c0 1.532 1.121 2.935 3.16 3.957-.057.237-.094.533-.094.724v.142C1.086 12.093 0 13.476 0 14.985v.777c0 1.048.525 2.035 1.508 2.881-.133.358-.203.727-.203 1.105v.777c0 1.554 1.153 2.974 3.246 4C6.49 25.476 9.056 26 11.772 26c2.717 0 5.282-.524 7.222-1.475 2.093-1.026 3.245-2.446 3.245-4v-.777c0-1.048-.524-2.035-1.507-2.881.133-.358.202-.727.202-1.105v-.142c1.98-1.018 3.066-2.4 3.066-3.91v-.777C24 9.403 22.881 8 20.848 6.98zM1.463 4.817c.303-.776 1.129-1.53 2.366-2.136 1.762-.863 4.12-1.339 6.638-1.339 2.519 0 4.876.476 6.638 1.34 1.237.606 2.063 1.36 2.366 2.135-1.07 1.875-4.792 3.242-9.004 3.242-4.213 0-7.933-1.367-9.004-3.242zm0 9.51c.246-.631.84-1.246 1.718-1.78.338 1.223 1.42 2.325 3.13 3.163 1.94.951 4.505 1.475 7.222 1.475.266 0 .53-.006.792-.016-1.186.257-2.496.4-3.858.4-4.212 0-7.933-1.367-9.004-3.242zm19.314 4.763c-1.071 1.874-4.792 3.242-9.005 3.242-3.659 0-6.945-1.033-8.448-2.533 1.931.927 4.462 1.438 7.143 1.438 2.717 0 5.282-.524 7.222-1.475 1.005-.492 1.793-1.076 2.34-1.722.354.337.607.69.748 1.05zm-7.244-5.573c-3.678 0-6.98-1.042-8.473-2.555 1.612.498 3.47.765 5.407.765 2.717 0 5.282-.523 7.222-1.474 1.174-.576 2.053-1.277 2.598-2.055 1.172.596 1.957 1.326 2.25 2.077-1.07 1.875-4.791 3.242-9.004 3.242z" transform="translate(7 7)"/>
            </g>
        </g>
    </g>
</svg>
